<svg width="3032" height="1465" xmlns="http://www.w3.org/2000/svg" xmlns:xlink="http://www.w3.org/1999/xlink" xml:space="preserve" overflow="hidden"><defs><radialGradient cx="0" cy="0" r="3391950" gradientUnits="userSpaceOnUse" spreadMethod="pad" id="fill0" gradientTransform="matrix(0.000360892 0 0 0.000360892 1077.5 459.5)"><stop offset="0" stop-color="#A9E3FF"/><stop offset="0.5" stop-color="#C9ECFF"/><stop offset="1" stop-color="#E4F5FF"/></radialGradient><clipPath id="clip1"><rect x="1573" y="508" width="105" height="104"/></clipPath><clipPath id="clip2"><rect x="1573" y="508" width="105" height="104"/></clipPath><clipPath id="clip3"><rect x="1573" y="508" width="105" height="104"/></clipPath><radialGradient cx="-36.63" cy="17.12" r="11.18" gradientUnits="userSpaceOnUse" spreadMethod="pad" id="fill4" gradientTransform="matrix(5.4311 0 0 5.4311 241.973 -42.7555)"><stop offset="0" stop-color="#FFD70F"/><stop offset="0.27" stop-color="#FFD70F"/><stop offset="0.49" stop-color="#FFCB12"/><stop offset="0.88" stop-color="#FEAC19"/><stop offset="1" stop-color="#FEA11B"/></radialGradient><radialGradient cx="0" cy="0" r="3391950" gradientUnits="userSpaceOnUse" spreadMethod="pad" id="fill5" gradientTransform="matrix(0.000360892 0 0 0.000360892 2419.5 459.5)"><stop offset="0" stop-color="#A9E3FF"/><stop offset="0.5" stop-color="#C9ECFF"/><stop offset="1" stop-color="#E4F5FF"/></radialGradient><clipPath id="clip6"><rect x="2916" y="508" width="105" height="104"/></clipPath><clipPath id="clip7"><rect x="2916" y="508" width="105" height="104"/></clipPath><clipPath id="clip8"><rect x="2916" y="508" width="105" height="104"/></clipPath><radialGradient cx="-36.63" cy="17.12" r="11.18" gradientUnits="userSpaceOnUse" spreadMethod="pad" id="fill9" gradientTransform="matrix(5.4311 0 0 5.4311 241.973 -42.7555)"><stop offset="0" stop-color="#FFD70F"/><stop offset="0.27" stop-color="#FFD70F"/><stop offset="0.49" stop-color="#FFCB12"/><stop offset="0.88" stop-color="#FEAC19"/><stop offset="1" stop-color="#FEA11B"/></radialGradient><radialGradient cx="-6811.4" cy="6729.69" r="17" gradientUnits="userSpaceOnUse" spreadMethod="pad" id="fill10" gradientTransform="matrix(3.55555 0 0 -3.55555 24283.8 23993.2)"><stop offset="0" stop-color="#5EA0EF"/><stop offset="0.18" stop-color="#5EA0EF"/><stop offset="1" stop-color="#0078D4"/></radialGradient><radialGradient cx="0" cy="0" r="3391952" gradientUnits="userSpaceOnUse" spreadMethod="pad" id="fill11" gradientTransform="matrix(0.000360892 0 0 0.000360892 496.5 1384.5)"><stop offset="0" stop-color="#A9E3FF"/><stop offset="0.5" stop-color="#C9ECFF"/><stop offset="1" stop-color="#E4F5FF"/></radialGradient><clipPath id="clip12"><rect x="993" y="1432" width="105" height="105"/></clipPath><clipPath id="clip13"><rect x="993" y="1432" width="105" height="105"/></clipPath><clipPath id="clip14"><rect x="993" y="1432" width="105" height="105"/></clipPath><radialGradient cx="-36.63" cy="17.12" r="11.18" gradientUnits="userSpaceOnUse" spreadMethod="pad" id="fill15" gradientTransform="matrix(5.48333 0 0 5.48333 1237.3 1388.83)"><stop offset="0" stop-color="#FFD70F"/><stop offset="0.27" stop-color="#FFD70F"/><stop offset="0.49" stop-color="#FFCB12"/><stop offset="0.88" stop-color="#FEAC19"/><stop offset="1" stop-color="#FEA11B"/></radialGradient><clipPath id="clip16"><rect x="973" y="1727" width="146" height="147"/></clipPath><clipPath id="clip17"><rect x="973" y="1727" width="146" height="147"/></clipPath><clipPath id="clip18"><rect x="973" y="1727" width="146" height="147"/></clipPath><linearGradient x1="71.3614" y1="70.5909" x2="119.095" y2="70.5909" gradientUnits="userSpaceOnUse" spreadMethod="pad" id="fill19"><stop offset="0" stop-color="#773ADC"/><stop offset="0.001" stop-color="#773ADC"/><stop offset="1" stop-color="#552F99"/></linearGradient><linearGradient x1="46.7524" y1="30.6356" x2="46.7524" y2="111.771" gradientUnits="userSpaceOnUse" spreadMethod="pad" id="fill20"><stop offset="0" stop-color="#A67AF4"/><stop offset="0.999" stop-color="#773ADC"/><stop offset="1" stop-color="#773ADC"/></linearGradient><radialGradient cx="0" cy="0" r="3394445" gradientUnits="userSpaceOnUse" spreadMethod="pad" id="fill21" gradientTransform="matrix(0.000360892 0 0 0.000360892 1660.5 1384.5)"><stop offset="0" stop-color="#A9E3FF"/><stop offset="0.5" stop-color="#C9ECFF"/><stop offset="1" stop-color="#E4F5FF"/></radialGradient><clipPath id="clip22"><rect x="2158" y="1432" width="104" height="105"/></clipPath><clipPath id="clip23"><rect x="2158" y="1432" width="104" height="105"/></clipPath><clipPath id="clip24"><rect x="2158" y="1432" width="104" height="105"/></clipPath><radialGradient cx="-36.63" cy="17.12" r="11.18" gradientUnits="userSpaceOnUse" spreadMethod="pad" id="fill25" gradientTransform="matrix(5.4311 0 0 5.4311 241.973 -42.7555)"><stop offset="0" stop-color="#FFD70F"/><stop offset="0.27" stop-color="#FFD70F"/><stop offset="0.49" stop-color="#FFCB12"/><stop offset="0.88" stop-color="#FEAC19"/><stop offset="1" stop-color="#FEA11B"/></radialGradient><radialGradient cx="13428.8" cy="3518.86" r="56.67" gradientUnits="userSpaceOnUse" spreadMethod="pad" id="fill26" gradientTransform="matrix(1.21666 0 0 1.21666 -16265.4 -4208.28)"><stop offset="0" stop-color="#5EA0EF"/><stop offset="0.18" stop-color="#5EA0EF"/><stop offset="1" stop-color="#0078D4"/></radialGradient><linearGradient x1="35.6888" y1="93.1154" x2="35.4455" y2="61.0766" gradientUnits="userSpaceOnUse" spreadMethod="pad" id="fill27"><stop offset="0" stop-color="#CCCCCC"/><stop offset="1" stop-color="#FCFCFC"/></linearGradient><linearGradient x1="82.1654" y1="125.316" x2="82.1654" y2="96.522" gradientUnits="userSpaceOnUse" spreadMethod="pad" id="fill28"><stop offset="0" stop-color="#CCCCCC"/><stop offset="1" stop-color="#FCFCFC"/></linearGradient><linearGradient x1="115.015" y1="90.4387" x2="115.015" y2="59.8599" gradientUnits="userSpaceOnUse" spreadMethod="pad" id="fill29"><stop offset="0" stop-color="#CCCCCC"/><stop offset="1" stop-color="#FCFCFC"/></linearGradient><linearGradient x1="35.6888" y1="93.1154" x2="35.4455" y2="61.0766" gradientUnits="userSpaceOnUse" spreadMethod="pad" id="fill30"><stop offset="0" stop-color="#CCCCCC"/><stop offset="1" stop-color="#FCFCFC"/></linearGradient><linearGradient x1="82.1654" y1="125.316" x2="82.1654" y2="96.522" gradientUnits="userSpaceOnUse" spreadMethod="pad" id="fill31"><stop offset="0" stop-color="#CCCCCC"/><stop offset="1" stop-color="#FCFCFC"/></linearGradient><linearGradient x1="27.3488" y1="26.5222" x2="27.3488" y2="12.9166" gradientUnits="userSpaceOnUse" spreadMethod="pad" id="fill32"><stop offset="0" stop-color="#5E9624"/><stop offset="1" stop-color="#76BC2D"/></linearGradient><linearGradient x1="27.3488" y1="49.1177" x2="27.3488" y2="35.5121" gradientUnits="userSpaceOnUse" spreadMethod="pad" id="fill33"><stop offset="0" stop-color="#5E9624"/><stop offset="1" stop-color="#76BC2D"/></linearGradient><linearGradient x1="30.4999" y1="53.5409" x2="30.4999" y2="18.0153" gradientUnits="userSpaceOnUse" spreadMethod="pad" id="fill34"><stop offset="0" stop-color="#A67AF4"/><stop offset="0.775" stop-color="#B796F9"/><stop offset="1" stop-color="#B796F9"/></linearGradient></defs><g transform="translate(-493 -456)"><rect x="1077.5" y="459.5" width="1102" height="533" stroke="#83CBEB" stroke-width="6.875" stroke-miterlimit="8" fill="url(#fill0)"/><text font-family="Aptos,Aptos_MSFontService,sans-serif" font-weight="400" font-size="50" transform="matrix(1 0 0 1 1281.07 712)">Private Endpoint Manager </text><text font-family="Aptos,Aptos_MSFontService,sans-serif" font-weight="400" font-size="50" transform="matrix(1 0 0 1 1848.26 712)">(PEM)</text><text font-family="Aptos,Aptos_MSFontService,sans-serif" font-weight="400" font-size="50" transform="matrix(1 0 0 1 1489.91 772)">Subscription </text><g clip-path="url(#clip1)"><g clip-path="url(#clip2)"><g clip-path="url(#clip3)"><path d="M78.3465 41.5421C83.0213 36.8756 83.028 29.303 78.3614 24.6282 78.3565 24.6232 78.3515 24.6182 78.3465 24.6133L78.3465 24.6133 57.7777 3.98666C53.1403-0.672161 45.6043-0.689564 40.9455 3.94779 40.9325 3.96071 40.9195 3.97367 40.9066 3.98666L40.9066 3.98666 20.3377 24.6133C15.7201 29.3116 15.7201 36.8438 20.3377 41.5421L37.671 58.8754C38.2843 59.5137 38.6349 60.3594 38.6533 61.2443L38.6533 93.1376C38.6378 94.2161 39.0538 95.2561 39.8088 96.0265L47.6088 103.826C48.585 104.879 50.2301 104.942 51.2831 103.965 51.3312 103.921 51.3776 103.875 51.4221 103.826L58.991 96.2576 58.991 96.2576 63.4399 91.8087C64.0462 91.2424 64.0785 90.2918 63.5122 89.6855 63.4889 89.6606 63.4648 89.6364 63.4399 89.6132L60.2621 86.3776C59.592 85.7394 59.5661 84.6788 60.2043 84.0087 60.2231 83.989 60.2424 83.9697 60.2621 83.951L63.4399 80.7154C64.0462 80.1491 64.0785 79.1985 63.5122 78.5922 63.4889 78.5673 63.4648 78.5431 63.4399 78.5199L60.0888 75.111C59.4346 74.5024 59.3977 73.4787 60.0063 72.8246 60.0328 72.7961 60.0603 72.7686 60.0888 72.7421L63.5554 69.3332C64.1617 68.7669 64.1941 67.8163 63.6278 67.21 63.6045 67.1851 63.5804 67.1609 63.5554 67.1376L59.1066 62.631 59.1066 61.0132ZM49.4577 8.95554C53.2229 8.98745 56.2493 12.0656 56.2174 15.8308 56.1855 19.596 53.1073 22.6225 49.3421 22.5906 45.5996 22.5589 42.5823 19.516 42.5821 15.7733 42.5502 12.04 45.5508 8.98769 49.2841 8.95579 49.3034 8.95562 49.3228 8.95554 49.3421 8.95554Z" fill="url(#fill4)" transform="matrix(1.00962 0 0 1 1573 508)"/><path d="M44.0266 93.6576 44.0266 93.6576C44.7079 94.0725 45.5966 93.8565 46.0115 93.1751 46.1458 92.9547 46.2185 92.7023 46.2221 92.4443L46.2221 66.7332C46.2268 66.232 45.9903 65.7591 45.5866 65.4621L45.5866 65.4621C44.9264 65.0143 44.0282 65.1864 43.5803 65.8466 43.4035 66.1073 43.3167 66.4186 43.3333 66.7332L43.3333 92.4443C43.3602 92.9354 43.6171 93.3851 44.0266 93.6576Z" fill="#FF9300" fill-opacity="0.75" transform="matrix(1.00962 0 0 1 1573 508)"/><path d="M64.8843 31.4888C65.9054 31.4888 66.7332 32.3166 66.7332 33.3377L66.7332 33.6266C66.7332 34.6477 65.9054 35.4755 64.8843 35.4755L34.7244 35.4755C33.7033 35.4755 32.8755 34.6477 32.8755 33.6266L32.8755 33.3377C32.8755 32.3166 33.7033 31.4888 34.7244 31.4888Z" fill="#FF9300" fill-opacity="0.75" transform="matrix(1.00962 0 0 1 1573 508)"/><path d="M64.8843 37.9599C65.9054 37.9599 66.7332 38.7877 66.7332 39.8088L66.7332 40.0977C66.7332 41.1188 65.9054 41.9466 64.8843 41.9466L34.7244 41.9466C33.7033 41.9466 32.8755 41.1188 32.8755 40.0977L32.8755 39.8088C32.8755 38.7877 33.7033 37.9599 34.7244 37.9599Z" fill="#FF9300" fill-opacity="0.75" transform="matrix(1.00962 0 0 1 1573 508)"/></g></g></g><rect x="2419.5" y="459.5" width="1102" height="533" stroke="#83CBEB" stroke-width="6.875" stroke-miterlimit="8" fill="url(#fill5)"/><text font-family="Aptos,Aptos_MSFontService,sans-serif" font-weight="400" font-size="50" transform="matrix(1 0 0 1 2510.54 712)">Connectivity Subscription (Hosting central </text><text font-family="Aptos,Aptos_MSFontService,sans-serif" font-weight="400" font-size="50" transform="matrix(1 0 0 1 2763.77 772)">private DNS zones)</text><g clip-path="url(#clip6)"><g clip-path="url(#clip7)"><g clip-path="url(#clip8)"><path d="M78.3465 41.5421C83.0213 36.8756 83.028 29.303 78.3614 24.6282 78.3565 24.6232 78.3515 24.6182 78.3465 24.6133L78.3465 24.6133 57.7777 3.98666C53.1403-0.672161 45.6043-0.689564 40.9455 3.94779 40.9325 3.96071 40.9195 3.97367 40.9066 3.98666L40.9066 3.98666 20.3377 24.6133C15.7201 29.3116 15.7201 36.8438 20.3377 41.5421L37.671 58.8754C38.2843 59.5137 38.6349 60.3594 38.6533 61.2443L38.6533 93.1376C38.6378 94.2161 39.0538 95.2561 39.8088 96.0265L47.6088 103.826C48.585 104.879 50.2301 104.942 51.2831 103.965 51.3312 103.921 51.3776 103.875 51.4221 103.826L58.991 96.2576 58.991 96.2576 63.4399 91.8087C64.0462 91.2424 64.0785 90.2918 63.5122 89.6855 63.4889 89.6606 63.4648 89.6364 63.4399 89.6132L60.2621 86.3776C59.592 85.7394 59.5661 84.6788 60.2043 84.0087 60.2231 83.989 60.2424 83.9697 60.2621 83.951L63.4399 80.7154C64.0462 80.1491 64.0785 79.1985 63.5122 78.5922 63.4889 78.5673 63.4648 78.5431 63.4399 78.5199L60.0888 75.111C59.4346 74.5024 59.3977 73.4787 60.0063 72.8246 60.0328 72.7961 60.0603 72.7686 60.0888 72.7421L63.5554 69.3332C64.1617 68.7669 64.1941 67.8163 63.6278 67.21 63.6045 67.1851 63.5804 67.1609 63.5554 67.1376L59.1066 62.631 59.1066 61.0132ZM49.4577 8.95554C53.2229 8.98745 56.2493 12.0656 56.2174 15.8308 56.1855 19.596 53.1073 22.6225 49.3421 22.5906 45.5996 22.5589 42.5823 19.516 42.5821 15.7733 42.5502 12.04 45.5508 8.98769 49.2841 8.95579 49.3034 8.95562 49.3228 8.95554 49.3421 8.95554Z" fill="url(#fill9)" transform="matrix(1.00962 0 0 1 2916 508)"/><path d="M44.0266 93.6576 44.0266 93.6576C44.7079 94.0725 45.5966 93.8565 46.0115 93.1751 46.1458 92.9547 46.2185 92.7023 46.2221 92.4443L46.2221 66.7332C46.2268 66.232 45.9903 65.7591 45.5866 65.4621L45.5866 65.4621C44.9264 65.0143 44.0282 65.1864 43.5803 65.8466 43.4035 66.1073 43.3167 66.4186 43.3333 66.7332L43.3333 92.4443C43.3602 92.9354 43.6171 93.3851 44.0266 93.6576Z" fill="#FF9300" fill-opacity="0.75" transform="matrix(1.00962 0 0 1 2916 508)"/><path d="M64.8843 31.4888C65.9054 31.4888 66.7332 32.3166 66.7332 33.3377L66.7332 33.6266C66.7332 34.6477 65.9054 35.4755 64.8843 35.4755L34.7244 35.4755C33.7033 35.4755 32.8755 34.6477 32.8755 33.6266L32.8755 33.3377C32.8755 32.3166 33.7033 31.4888 34.7244 31.4888Z" fill="#FF9300" fill-opacity="0.75" transform="matrix(1.00962 0 0 1 2916 508)"/><path d="M64.8843 37.9599C65.9054 37.9599 66.7332 38.7877 66.7332 39.8088L66.7332 40.0977C66.7332 41.1188 65.9054 41.9466 64.8843 41.9466L34.7244 41.9466C33.7033 41.9466 32.8755 41.1188 32.8755 40.0977L32.8755 39.8088C32.8755 38.7877 33.7033 37.9599 34.7244 37.9599Z" fill="#FF9300" fill-opacity="0.75" transform="matrix(1.00962 0 0 1 2916 508)"/></g></g></g><g><g><g><path d="M101.049 111.787C74.657 132.248 36.6748 127.441 16.2133 101.049-4.2482 74.657 0.559263 36.6748 26.9511 16.2133L27.5911 15.7867C54.3426-4.18197 92.2168 1.31668 112.185 28.0682 131.818 54.3697 126.875 91.5322 101.049 111.787" fill="url(#fill10)" transform="matrix(1 0 0 1 2907 820)"/><path d="M63.9999 9.31555C33.7986 9.31555 9.31555 33.7986 9.31555 63.9999 9.31555 94.2013 33.7986 118.684 63.9999 118.684 94.2013 118.684 118.684 94.2013 118.684 63.9999 118.645 33.8148 94.1851 9.35473 63.9999 9.31555ZM100.622 27.7333C95.854 30.416 90.6952 32.3355 85.3333 33.4222 83.4776 26.5655 80.472 20.0733 76.4444 14.2222 85.5919 16.4191 93.9572 21.0939 100.622 27.7333ZM63.9999 12.3733C66.5969 12.3715 69.1895 12.5856 71.751 13.0133L71.751 13.0133C76.9521 19.205 80.6731 26.501 82.631 34.3466 69.8192 36.6941 56.6874 36.6941 43.8755 34.3466 45.8282 26.6556 49.4995 19.5075 54.6133 13.44L54.6133 13.44C57.7035 12.8014 60.8452 12.4444 63.9999 12.3733ZM49.7777 14.2222C45.7013 20.0125 42.6467 26.4583 40.7466 33.28 35.9434 32.3049 31.3624 30.4484 27.2355 27.8044 33.4681 21.4284 41.2282 16.7528 49.7777 14.2222ZM26.4533 99.5555C30.3027 96.988 34.5944 95.1556 39.1111 94.151 40.8745 101.217 44.1498 107.816 48.7111 113.493 40.2131 110.846 32.5451 106.045 26.4533 99.5555ZM72.0355 115.2C69.3726 115.556 66.6855 115.699 63.9999 115.627 60.5585 115.635 57.1258 115.277 53.7599 114.56L53.7599 114.56C47.8078 108.757 43.6803 101.343 41.8844 93.2266 55.6805 90.4164 69.9016 90.4164 83.6977 93.2266 81.8621 101.359 77.6841 108.776 71.6799 114.56ZM77.2266 114.062C81.9283 108.231 85.2797 101.431 87.0399 94.151 92.0701 95.3318 96.8739 97.3254 101.262 100.053 94.6782 106.769 86.3562 111.521 77.2266 113.778ZM87.751 91.1644C88.3199 88.6044 88.8177 85.9733 89.1732 83.1999L85.9021 83.9821C85.5466 86.1866 85.191 88.391 84.6932 90.4532 70.4049 87.5377 55.6749 87.5377 41.3866 90.4532 40.8888 88.5332 40.5333 86.471 40.1777 84.3377 40.1432 84.1258 40.1432 83.9096 40.1777 83.6977L36.9066 82.7733C36.8672 83.4364 36.8672 84.1012 36.9066 84.7644 36.9066 87.0399 37.6889 89.1732 38.1155 91.2355 33.0414 92.3523 28.2189 94.4019 23.8933 97.2799 7.6862 77.8358 8.01785 49.495 24.6755 30.4355 29.1981 33.3468 34.2087 35.4184 39.4666 36.5511 38.9688 38.2577 38.5422 40.1066 38.1866 41.9555 37.8311 43.8044 38.1866 43.7333 37.6177 44.5866L40.96 43.8044 40.96 42.5955C41.3866 40.7466 41.8133 38.9688 42.3111 37.2622 49.4629 38.5743 56.7309 39.1462 63.9999 38.9688 70.6327 38.9685 77.251 38.3496 83.7688 37.12 84.2666 39.04 84.7644 41.1022 85.191 43.1644L88.4621 43.9466C87.9407 41.3866 87.3718 39.0163 86.7555 36.8355 92.5193 35.5704 98.0418 33.3854 103.111 30.3644 120.093 49.5933 120.276 78.4067 103.538 97.8488 98.6977 94.6839 93.3616 92.3524 87.751 90.951Z" fill="#5EA0EF" transform="matrix(1 0 0 1 2907 820)"/><path d="M26.24 49.7777C28.9719 49.3862 31.729 49.1961 34.4889 49.2088 38.864 48.8591 43.2091 50.1804 46.6488 52.9066 49.4083 55.648 50.9245 59.4 50.8444 63.2888 51.0645 67.6075 49.4954 71.826 46.5066 74.951 42.8312 78.0648 38.0856 79.6211 33.28 79.2888 30.9049 79.2999 28.531 79.1812 26.1689 78.9333ZM30.1511 76.3021C31.4532 76.3919 32.76 76.3919 34.0622 76.3021 40.384 77.0186 46.0897 72.4746 46.8062 66.1527 46.9087 65.2481 46.9036 64.3345 46.7911 63.431 47.3238 57.5642 42.9997 52.3762 37.1328 51.8434 36.2991 51.7677 35.4594 51.7904 34.6311 51.9111 33.1414 51.7623 31.6407 51.7623 30.1511 51.9111Z" fill="#FFFFFF" transform="matrix(1 0 0 1 2907 820)"/><path d="M55.8933 79.0044 55.8933 49.0666 60.0888 49.0666 69.6888 63.9999C71.6975 67.128 73.5027 70.3821 75.0933 73.7421L75.0933 73.7421C74.7377 69.7599 74.6666 66.1333 74.6666 61.4399L74.6666 49.0666 78.2221 49.0666 78.2221 79.0044 74.311 79.0044 64.9244 63.9999C62.8622 60.6577 60.8711 56.8888 59.3066 54.0444L59.3066 54.0444C59.3066 57.8133 59.3066 61.1555 59.3066 66.4177L59.3066 79.2177Z" fill="#FFFFFF" transform="matrix(1 0 0 1 2907 820)"/><path d="M84.551 74.311C86.7117 75.5644 89.1643 76.2266 91.6621 76.231 95.6443 76.231 97.9199 74.1688 97.9199 71.111 97.9199 68.0533 96.3555 66.7022 92.3021 65.2088 88.2488 63.7155 84.3377 60.9422 84.3377 56.6755 84.6145 51.8921 88.7166 48.2389 93.5 48.5157 93.6938 48.5269 93.8872 48.5446 94.0799 48.5688 96.3666 48.5041 98.6353 48.992 100.693 49.9911L99.5555 53.1911C97.8124 52.2372 95.8534 51.7475 93.8666 51.7688 89.7421 51.7688 88.1777 54.1866 88.1777 56.2488 88.1777 58.3111 90.0266 60.4444 94.151 62.0088 98.2755 63.5733 101.831 66.4177 101.831 70.8266 101.831 75.2355 98.4177 79.431 91.3066 79.431 88.6468 79.4607 86.025 78.7991 83.6977 77.511Z" fill="#FFFFFF" transform="matrix(1 0 0 1 2907 820)"/></g></g></g><rect x="496.5" y="1384.5" width="1102" height="533" stroke="#83CBEB" stroke-width="6.875" stroke-miterlimit="8" fill="url(#fill11)"/><text font-family="Aptos,Aptos_MSFontService,sans-serif" font-weight="400" font-size="50" transform="matrix(1 0 0 1 752.689 1667)">Application Landing Zone X</text><g clip-path="url(#clip12)"><g clip-path="url(#clip13)"><g clip-path="url(#clip14)"><path d="M1072.1 1473.94C1076.82 1469.23 1076.83 1461.58 1072.11 1456.87 1072.11 1456.86 1072.1 1456.86 1072.1 1456.85L1072.1 1456.85 1051.33 1436.03C1046.65 1431.32 1039.04 1431.3 1034.34 1435.99 1034.33 1436 1034.31 1436.01 1034.3 1436.03L1034.3 1436.03 1013.53 1456.85C1008.87 1461.59 1008.87 1469.2 1013.53 1473.94L1031.03 1491.44C1031.65 1492.09 1032.01 1492.94 1032.03 1493.83L1032.03 1526.03C1032.01 1527.12 1032.43 1528.17 1033.19 1528.95L1041.07 1536.82C1042.05 1537.89 1043.71 1537.95 1044.78 1536.97 1044.82 1536.92 1044.87 1536.87 1044.92 1536.82L1052.56 1529.18 1052.56 1529.18 1057.05 1524.69C1057.66 1524.12 1057.69 1523.16 1057.12 1522.55 1057.1 1522.52 1057.08 1522.5 1057.05 1522.47L1053.84 1519.21C1053.17 1518.56 1053.14 1517.49 1053.78 1516.82 1053.8 1516.8 1053.82 1516.78 1053.84 1516.76L1057.05 1513.49C1057.66 1512.92 1057.69 1511.96 1057.12 1511.35 1057.1 1511.32 1057.08 1511.3 1057.05 1511.28L1053.67 1507.83C1053.01 1507.22 1052.97 1506.19 1053.58 1505.52 1053.61 1505.5 1053.64 1505.47 1053.67 1505.44L1057.17 1502C1057.78 1501.43 1057.81 1500.47 1057.24 1499.86 1057.22 1499.83 1057.19 1499.81 1057.17 1499.78L1052.68 1495.23 1052.68 1493.6ZM1042.93 1441.04C1046.73 1441.07 1049.79 1444.18 1049.76 1447.98 1049.73 1451.78 1046.62 1454.84 1042.82 1454.81 1039.04 1454.78 1035.99 1451.7 1035.99 1447.93 1035.96 1444.16 1038.99 1441.07 1042.76 1441.04 1042.78 1441.04 1042.8 1441.04 1042.82 1441.04Z" fill="url(#fill15)"/><path d="M1037.45 1526.56 1037.45 1526.56C1038.14 1526.98 1039.04 1526.76 1039.45 1526.07 1039.59 1525.85 1039.66 1525.59 1039.67 1525.33L1039.67 1499.38C1039.67 1498.87 1039.43 1498.39 1039.03 1498.09L1039.03 1498.09C1038.36 1497.64 1037.45 1497.81 1037 1498.48 1036.82 1498.74 1036.73 1499.06 1036.75 1499.38L1036.75 1525.33C1036.78 1525.83 1037.04 1526.28 1037.45 1526.56Z" fill="#FF9300" fill-opacity="0.75"/><path d="M1058.51 1463.79C1059.54 1463.79 1060.38 1464.63 1060.38 1465.66L1060.38 1465.95C1060.38 1466.98 1059.54 1467.82 1058.51 1467.82L1028.06 1467.82C1027.03 1467.82 1026.19 1466.98 1026.19 1465.95L1026.19 1465.66C1026.19 1464.63 1027.03 1463.79 1028.06 1463.79Z" fill="#FF9300" fill-opacity="0.75"/><path d="M1058.51 1470.33C1059.54 1470.33 1060.38 1471.16 1060.38 1472.19L1060.38 1472.48C1060.38 1473.51 1059.54 1474.35 1058.51 1474.35L1028.06 1474.35C1027.03 1474.35 1026.19 1473.51 1026.19 1472.48L1026.19 1472.19C1026.19 1471.16 1027.03 1470.33 1028.06 1470.33Z" fill="#FF9300" fill-opacity="0.75"/></g></g></g><g clip-path="url(#clip16)"><g clip-path="url(#clip17)"><g clip-path="url(#clip18)"><path d="M137.337 93.9103C127.558 121.112 101.76 139.252 72.8539 139.251 66.4579 139.278 60.092 138.376 53.955 136.575 54.888 134.451 55.3845 132.162 55.415 129.842 55.4961 129.842 55.6583 129.924 55.7395 129.924 61.2975 131.554 67.0617 132.373 72.8539 132.357 96.474 132.31 118.017 118.85 128.415 97.6414L128.496 97.5603Z" fill="#32BEDD" transform="matrix(1 0 0 1 973 1727)"/><path d="M29.0539 114.107C27.0216 115.236 25.2522 116.785 23.8628 118.649 18.239 112.884 13.6561 106.188 10.3173 98.858L18.7529 100.724 18.7529 102.832C18.7366 105.127 20.3251 107.121 22.5651 107.618L23.7006 107.861C25.2201 109.963 26.9015 111.943 28.7295 113.782Z" fill="#32BEDD" transform="matrix(1 0 0 1 973 1727)"/><path d="M100.188 7.77043C99.0511 9.80298 98.308 12.0321 97.9983 14.3404 97.836 14.2593 97.5927 14.1782 97.4305 14.0971 89.6842 10.6989 81.3128 8.95829 72.8539 8.98709 54.308 9.01809 36.75 17.3507 24.9984 31.6982L22.6462 32.1848C20.4036 32.6424 18.7829 34.6007 18.7529 36.8893L18.7529 40.6204 10.4795 42.1615C21.6605 17.78 46.031 2.15633 72.8539 2.17377 82.2493 2.17945 91.5467 4.08307 100.188 7.77043Z" fill="#32BEDD" transform="matrix(1 0 0 1 973 1727)"/><path d="M136.85 46.2332 128.009 43.151C126.393 39.8213 124.436 36.6681 122.169 33.7422 122.007 33.4988 121.845 33.3366 121.764 33.1744 123.94 32.3716 125.928 31.1291 127.604 29.5244 131.513 34.5948 134.63 40.2284 136.85 46.2333Z" fill="#32BEDD" transform="matrix(1 0 0 1 973 1727)"/><path d="M81.695 96.5869 102.297 101.129 70.3394 114.366C70.1772 114.366 70.0961 114.448 69.9339 114.448 69.2691 114.431 68.7343 113.896 68.7172 113.231L68.7172 27.9671C68.7343 27.3023 69.2691 26.7674 69.9339 26.7504 70.0741 26.7378 70.2149 26.7659 70.3394 26.8315L106.515 39.4848 81.7761 44.1081C79.7209 44.574 78.2483 46.3812 78.2072 48.4881L78.2072 92.2881C78.1926 94.3706 79.6542 96.172 81.695 96.5869Z" fill="#FFFFFF" transform="matrix(1 0 0 1 973 1727)"/><path d="M8.92221 45.9737 18.7366 44.1081 18.7366 97.2358 8.75998 95.0458 0.729999 93.2614C0.271095 93.1753-0.0458601 92.7527 2.90075e-08 92.2881L6.75384e-16 48.4881C-0.0144059 48.0328 0.288885 47.6285 0.729999 47.5148Z" fill="#A67AF4" transform="matrix(1 0 0 1 973 1727)"/><path d="M81.695 96.5869 102.297 101.129 70.3394 114.366C70.1772 114.366 70.0961 114.448 69.9339 114.448 69.2691 114.431 68.7343 113.896 68.7172 113.231L68.7172 27.9671C68.7343 27.3023 69.2691 26.7674 69.9339 26.7504 70.0741 26.7378 70.2149 26.7659 70.3394 26.8315L106.515 39.4848 81.7761 44.1081C79.7209 44.574 78.2483 46.3812 78.2072 48.4881L78.2072 92.2881C78.1926 94.3706 79.6542 96.172 81.695 96.5869Z" fill="url(#fill19)" transform="matrix(1 0 0 1 973 1727)"/><path d="M69.6419 26.7666 23.3437 35.5104C22.6757 35.6531 22.2008 36.2468 22.2082 36.9298L22.2082 102.849C22.2022 103.521 22.6641 104.108 23.3194 104.26L69.6013 114.366C70.3749 114.519 71.1255 114.015 71.2778 113.242 71.2964 113.147 71.3054 113.051 71.3046 112.955L71.3046 28.2104C71.3182 27.4266 70.6938 26.7802 69.91 26.7666 69.9098 26.7666 69.9097 26.7666 69.9095 26.7666Z" fill="url(#fill20)" transform="matrix(1 0 0 1 973 1727)"/><path d="M48.2448 39.9147 48.2448 101.251 64.3534 103.936 64.3534 37.019 48.2448 39.9147Z" fill="#B796F9" fill-opacity="0.5" transform="matrix(1 0 0 1 973 1727)"/><path d="M28.4618 43.224 28.4618 96.9601 42.4859 99.9044 42.4859 40.8069 28.4618 43.224Z" fill="#B796F9" fill-opacity="0.5" transform="matrix(1 0 0 1 973 1727)"/><path d="M129.778 16.6115C129.755 24.4733 123.364 30.8283 115.502 30.8058 107.64 30.7834 101.285 24.392 101.308 16.5303 101.33 8.70027 107.672 2.35834 115.502 2.336 123.368 2.31806 129.76 8.68035 129.778 16.5466 129.778 16.5682 129.778 16.5899 129.778 16.6115Z" fill="#32BEDD" transform="matrix(1 0 0 1 973 1727)"/><path d="M51.984 129.559C51.984 137.438 45.5963 143.826 37.7166 143.826 29.8369 143.826 23.4492 137.438 23.4492 129.559 23.4492 121.679 29.8369 115.291 37.7166 115.291 45.5963 115.291 51.984 121.679 51.984 129.559Z" fill="#32BEDD" transform="matrix(1 0 0 1 973 1727)"/><path d="M146 54.2551 146 85.4342C145.989 86.1395 145.567 86.7737 144.921 87.0564L138.708 89.6195 113.807 99.9044 113.718 99.9044C113.615 99.92 113.512 99.92 113.409 99.9044 112.961 99.9044 112.598 99.5412 112.598 99.0933L112.598 42.4535C112.601 42.1528 112.769 41.878 113.036 41.7397L113.036 41.7397 113.19 41.7397C113.24 41.7236 113.294 41.7236 113.344 41.7397 113.441 41.7308 113.538 41.7536 113.62 41.8046L113.709 41.8046 113.807 41.8046 138.294 50.2888 144.783 52.5761C145.517 52.8032 146.012 53.4872 146 54.2551Z" fill="#773ADC" transform="matrix(1 0 0 1 973 1727)"/><path d="M113.223 41.691 82.4006 47.4905C81.9554 47.5869 81.6398 47.9839 81.6463 48.4395L81.6463 92.3124C81.642 92.76 81.9486 93.1509 82.3844 93.2533L113.207 99.9936C113.71 100.102 114.206 99.7817 114.315 99.2781 114.316 99.2732 114.317 99.2684 114.318 99.2636 114.326 99.1936 114.326 99.1227 114.318 99.0527L114.318 42.6319C114.322 42.1109 113.906 41.6837 113.385 41.6748 113.33 41.6735 113.276 41.679 113.223 41.691Z" fill="#A67AF4" transform="matrix(1 0 0 1 973 1727)"/></g></g></g><rect x="1660.5" y="1384.5" width="1103" height="533" stroke="#83CBEB" stroke-width="6.875" stroke-miterlimit="8" fill="url(#fill21)"/><text font-family="Aptos,Aptos_MSFontService,sans-serif" font-weight="400" font-size="50" transform="matrix(1 0 0 1 1916.86 1667)">Application Landing Zone X</text><g clip-path="url(#clip22)"><g clip-path="url(#clip23)"><g clip-path="url(#clip24)"><path d="M78.3465 41.5421C83.0213 36.8756 83.028 29.303 78.3614 24.6282 78.3565 24.6232 78.3515 24.6182 78.3465 24.6133L78.3465 24.6133 57.7777 3.98666C53.1403-0.672161 45.6043-0.689564 40.9455 3.94779 40.9325 3.96071 40.9195 3.97367 40.9066 3.98666L40.9066 3.98666 20.3377 24.6133C15.7201 29.3116 15.7201 36.8438 20.3377 41.5421L37.671 58.8754C38.2843 59.5137 38.6349 60.3594 38.6533 61.2443L38.6533 93.1376C38.6378 94.2161 39.0538 95.2561 39.8088 96.0265L47.6088 103.826C48.585 104.879 50.2301 104.942 51.2831 103.965 51.3312 103.921 51.3776 103.875 51.4221 103.826L58.991 96.2576 58.991 96.2576 63.4399 91.8087C64.0462 91.2424 64.0785 90.2918 63.5122 89.6855 63.4889 89.6606 63.4648 89.6364 63.4399 89.6132L60.2621 86.3776C59.592 85.7394 59.5661 84.6788 60.2043 84.0087 60.2231 83.989 60.2424 83.9697 60.2621 83.951L63.4399 80.7154C64.0462 80.1491 64.0785 79.1985 63.5122 78.5922 63.4889 78.5673 63.4648 78.5431 63.4399 78.5199L60.0888 75.111C59.4346 74.5024 59.3977 73.4787 60.0063 72.8246 60.0328 72.7961 60.0603 72.7686 60.0888 72.7421L63.5554 69.3332C64.1617 68.7669 64.1941 67.8163 63.6278 67.21 63.6045 67.1851 63.5804 67.1609 63.5554 67.1376L59.1066 62.631 59.1066 61.0132ZM49.4577 8.95554C53.2229 8.98745 56.2493 12.0656 56.2174 15.8308 56.1855 19.596 53.1073 22.6225 49.3421 22.5906 45.5996 22.5589 42.5823 19.516 42.5821 15.7733 42.5502 12.04 45.5508 8.98769 49.2841 8.95579 49.3034 8.95562 49.3228 8.95554 49.3421 8.95554Z" fill="url(#fill25)" transform="matrix(1 0 0 1.00962 2158 1432)"/><path d="M44.0266 93.6576 44.0266 93.6576C44.7079 94.0725 45.5966 93.8565 46.0115 93.1751 46.1458 92.9547 46.2185 92.7023 46.2221 92.4443L46.2221 66.7332C46.2268 66.232 45.9903 65.7591 45.5866 65.4621L45.5866 65.4621C44.9264 65.0143 44.0282 65.1864 43.5803 65.8466 43.4035 66.1073 43.3167 66.4186 43.3333 66.7332L43.3333 92.4443C43.3602 92.9354 43.6171 93.3851 44.0266 93.6576Z" fill="#FF9300" fill-opacity="0.75" transform="matrix(1 0 0 1.00962 2158 1432)"/><path d="M64.8843 31.4888C65.9054 31.4888 66.7332 32.3166 66.7332 33.3377L66.7332 33.6266C66.7332 34.6477 65.9054 35.4755 64.8843 35.4755L34.7244 35.4755C33.7033 35.4755 32.8755 34.6477 32.8755 33.6266L32.8755 33.3377C32.8755 32.3166 33.7033 31.4888 34.7244 31.4888Z" fill="#FF9300" fill-opacity="0.75" transform="matrix(1 0 0 1.00962 2158 1432)"/><path d="M64.8843 37.9599C65.9054 37.9599 66.7332 38.7877 66.7332 39.8088L66.7332 40.0977C66.7332 41.1188 65.9054 41.9466 64.8843 41.9466L34.7244 41.9466C33.7033 41.9466 32.8755 41.1188 32.8755 40.0977L32.8755 39.8088C32.8755 38.7877 33.7033 37.9599 34.7244 37.9599Z" fill="#FF9300" fill-opacity="0.75" transform="matrix(1 0 0 1.00962 2158 1432)"/></g></g></g><g><g><g><path d="M115.259 127.506C85.1555 150.845 41.8322 145.362 18.4933 115.259-4.8456 85.1555 0.637909 41.8322 30.7411 18.4933L31.4711 18.0066C61.9845-4.77006 105.185 1.50184 127.961 32.0153 150.355 62.0154 144.716 104.404 115.259 127.506" fill="url(#fill26)" transform="matrix(1 0 0 1 2137 1727)"/><path d="M54.2632 58.6432C73.7647 40.0958 99.6202 29.7071 126.533 29.6055 122.998 25.2322 118.939 21.3095 114.448 17.9255 101.355 18.7332 88.493 21.7498 76.4065 26.8477 63.9626 32.1929 52.7115 39.9694 43.3133 49.721 47.8304 51.4355 51.6717 54.5654 54.2632 58.6432Z" fill="#FFFFFF" fill-opacity="0.6" transform="matrix(1 0 0 1 2137 1727)"/><path d="M20.1155 86.3832C17.3289 93.2834 15.0782 100.388 13.3833 107.634 14.8808 110.238 16.5613 112.731 18.4122 115.096 19.8722 116.962 21.2511 118.665 22.8733 120.369 24.833 110.715 27.7681 101.284 31.6333 92.2232 27.3037 91.4501 23.2978 89.419 20.1155 86.3832Z" fill="#FFFFFF" fill-opacity="0.6" transform="matrix(1 0 0 1 2137 1727)"/><path d="M28.0644 49.5588C25.2021 41.8773 23.3217 33.865 22.4677 25.7122 19.0639 29.2871 16.0712 33.2321 13.5455 37.4733 14.4611 44.042 16.0094 50.5068 18.1689 56.7777 20.7104 53.4759 24.1443 50.9709 28.0644 49.5588Z" fill="#F2F2F2" fill-opacity="0.55" transform="matrix(1 0 0 1 2137 1727)"/><path d="M57.6699 70.4043C57.6699 82.6337 47.756 92.5476 35.5266 92.5476 23.2972 92.5476 13.3833 82.6337 13.3833 70.4043 13.3833 58.1749 23.2972 48.261 35.5266 48.261 47.756 48.261 57.6699 58.1749 57.6699 70.4043Z" fill="url(#fill27)" transform="matrix(1 0 0 1 2137 1727)"/><path d="M67.8088 110.879C67.8149 106.994 69.3952 103.277 72.1888 100.578 64.711 96.4789 57.8104 91.4057 51.6677 85.491 48.458 88.9636 44.2243 91.322 39.5821 92.2232 43.2413 95.969 47.1724 99.4392 51.3432 102.605 56.5366 106.527 62.1065 109.923 67.971 112.744 67.8768 112.127 67.8226 111.503 67.8088 110.879Z" fill="#F2F2F2" fill-opacity="0.55" transform="matrix(1 0 0 1 2137 1727)"/><path d="M118.909 112.582C111.371 112.587 103.859 111.716 96.522 109.986 96.5621 110.283 96.5621 110.583 96.522 110.879 96.5331 114.647 95.0448 118.266 92.3854 120.936 101.514 122.745 110.834 123.399 120.125 122.883 123.73 119.623 126.966 115.979 129.778 112.014 126.169 112.415 122.54 112.604 118.909 112.582Z" fill="#F2F2F2" fill-opacity="0.55" transform="matrix(1 0 0 1 2137 1727)"/><path d="M96.6032 110.879C96.6032 118.852 90.1392 125.316 82.1654 125.316 74.1917 125.316 67.7277 118.852 67.7277 110.879 67.7277 102.905 74.1917 96.4409 82.1654 96.4409 90.1392 96.4409 96.6032 102.905 96.6032 110.879Z" fill="url(#fill28)" transform="matrix(1 0 0 1 2137 1727)"/><path d="M99.9287 72.4321C100.645 69.2593 102.383 66.4096 104.876 64.321 91.5208 54.6118 79.3759 43.3382 68.701 30.7411 62.48 23.4354 57.0428 15.4972 52.4788 7.05666 49.4491 7.96492 46.4935 9.1038 43.6377 10.4633 48.522 19.6537 54.3677 28.2998 61.0765 36.2566 72.4791 49.8776 85.5297 62.0292 99.9287 72.4321Z" fill="#F2F2F2" fill-opacity="0.7" transform="matrix(1 0 0 1 2137 1727)"/><path d="M130.345 75.1899C130.345 83.6564 123.482 90.5198 115.015 90.5198 106.549 90.5198 99.6854 83.6564 99.6854 75.1899 99.6854 66.7234 106.549 59.8599 115.015 59.8599 123.482 59.8599 130.345 66.7234 130.345 75.1899Z" fill="url(#fill29)" transform="matrix(1 0 0 1 2137 1727)"/><path d="M140.728 85.491 137.889 84.1121 137.889 84.1121 135.455 82.8143 134.969 82.8143 132.86 81.111 132.292 81.111 129.778 79.4887C128.907 82.4753 127.084 85.0956 124.586 86.951 125.56 87.5998 126.614 88.1676 127.669 88.7354L128.318 89.1409 131.156 90.6821 131.156 90.6821 138.132 94.3321 138.132 94.3321C139.115 91.3864 139.901 88.3787 140.484 85.3287Z" fill="#F2F2F2" fill-opacity="0.55" transform="matrix(1 0 0 1 2137 1727)"/><path d="M57.6699 70.4043C57.6699 82.6337 47.756 92.5476 35.5266 92.5476 23.2972 92.5476 13.3833 82.6337 13.3833 70.4043 13.3833 58.1749 23.2972 48.261 35.5266 48.261 47.756 48.261 57.6699 58.1749 57.6699 70.4043Z" fill="url(#fill30)" transform="matrix(1 0 0 1 2137 1727)"/><path d="M96.6032 110.879C96.6032 118.852 90.1392 125.316 82.1654 125.316 74.1917 125.316 67.7277 118.852 67.7277 110.879 67.7277 102.905 74.1917 96.4409 82.1654 96.4409 90.1392 96.4409 96.6032 102.905 96.6032 110.879Z" fill="url(#fill31)" transform="matrix(1 0 0 1 2137 1727)"/></g></g></g><path d="M1.92048-2.85099 19.0264 8.67188 15.1855 14.3739-1.92048 2.85099ZM24.7284 12.5128 41.8344 24.0357 37.9934 29.7377 20.8875 18.2148ZM47.5364 27.8767 64.6423 39.3996 60.8014 45.1015 43.6954 33.5787ZM70.3443 43.2405 87.4503 54.7634 83.6093 60.4654 66.5034 48.9425ZM93.1523 58.6044 110.258 70.1272 106.417 75.8292 89.3113 64.3063ZM115.96 73.9682 133.066 85.4911 129.225 91.1931 112.119 79.6702ZM138.768 89.332 155.874 100.855 152.033 106.557 134.927 95.034ZM161.576 104.696 178.682 116.219 174.841 121.921 157.735 110.398ZM184.384 120.06 201.49 131.583 197.649 137.285 180.543 125.762ZM207.192 135.424 224.298 146.946 220.457 152.648 203.351 141.126ZM230 150.787 247.106 162.31 243.265 168.012 226.159 156.489ZM252.808 166.151 269.914 177.674 266.073 183.376 248.967 171.853ZM275.616 181.515 292.722 193.038 288.881 198.74 271.775 187.217ZM298.424 196.879 315.53 208.402 311.689 214.104 294.583 202.581ZM321.232 212.243 338.338 223.766 334.497 229.468 317.391 217.945ZM344.04 227.607 361.146 239.129 357.305 244.831 340.199 233.309ZM366.848 242.97 383.954 254.493 380.113 260.195 363.007 248.672ZM389.656 258.334 406.762 269.857 402.921 275.559 385.815 264.036ZM412.464 273.698 429.57 285.221 425.729 290.923 408.623 279.4ZM435.272 289.062 452.378 300.585 448.537 306.287 431.431 294.764ZM458.079 304.426 475.185 315.949 471.344 321.651 454.239 310.128ZM480.887 319.79 497.993 331.312 494.152 337.014 477.046 325.492ZM503.695 335.153 520.801 346.676 516.96 352.378 499.854 340.855ZM526.503 350.517 543.609 362.04 539.768 367.742 522.662 356.219ZM549.311 365.881 564.005 375.779 560.164 381.481 545.47 371.583ZM565.965 364.665 581.091 391.433 550.601 387.473Z" fill="#E59EDD" transform="matrix(1 0 0 -1 1047.5 1383.93)"/><path d="M2209.66 1386.79 2192.54 1375.29 2196.37 1369.58 2213.49 1381.08ZM2186.83 1371.46 2169.7 1359.96 2173.53 1354.26 2190.66 1365.75ZM2163.99 1356.13 2146.87 1344.64 2150.7 1338.93 2167.83 1350.42ZM2141.16 1340.8 2124.04 1329.31 2127.87 1323.6 2144.99 1335.1ZM2118.33 1325.48 2101.21 1313.98 2105.04 1308.27 2122.16 1319.77ZM2095.5 1310.15 2078.37 1298.65 2082.21 1292.94 2099.33 1304.44ZM2072.67 1294.82 2055.54 1283.32 2059.37 1277.62 2076.5 1289.11ZM2049.83 1279.49 2032.71 1268 2036.54 1262.29 2053.67 1273.78ZM2027 1264.16 2009.88 1252.67 2013.71 1246.96 2030.83 1258.46ZM2004.17 1248.84 1987.05 1237.34 1990.88 1231.63 2008 1243.13ZM1981.34 1233.51 1964.21 1222.01 1968.05 1216.31 1985.17 1227.8ZM1958.51 1218.18 1941.38 1206.69 1945.21 1200.98 1962.34 1212.47ZM1935.67 1202.85 1918.55 1191.36 1922.38 1185.65 1939.51 1197.15ZM1912.84 1187.53 1895.72 1176.03 1899.55 1170.32 1916.67 1181.82ZM1890.01 1172.2 1872.88 1160.7 1876.72 1154.99 1893.84 1166.49ZM1867.18 1156.87 1850.05 1145.37 1853.88 1139.67 1871.01 1151.16ZM1844.34 1141.54 1827.22 1130.05 1831.05 1124.34 1848.18 1135.83ZM1821.51 1126.21 1804.39 1114.72 1808.22 1109.01 1825.34 1120.51ZM1798.68 1110.89 1781.56 1099.39 1785.39 1093.68 1802.51 1105.18ZM1775.85 1095.56 1758.72 1084.06 1762.56 1078.35 1779.68 1089.85ZM1753.02 1080.23 1735.89 1068.74 1739.72 1063.03 1756.85 1074.52ZM1730.18 1064.9 1713.06 1053.41 1716.89 1047.7 1734.02 1059.2ZM1707.35 1049.58 1690.23 1038.08 1694.06 1032.37 1711.18 1043.87ZM1684.52 1034.25 1667.4 1022.75 1671.23 1017.04 1688.35 1028.54ZM1661.69 1018.92 1645.61 1008.13 1649.44 1002.42 1665.52 1013.21ZM1643.67 1019.24 1628.5 992.5 1659 996.412Z" fill="#E59EDD"/><text font-family="Aptos,Aptos_MSFontService,sans-serif" font-weight="400" font-size="37" transform="matrix(1 0 0 1 1366.13 1229)">Private Endpoint Creation Events</text><g><g><g><path d="M3.6511 4.8911 8.09443 4.8911 8.09443 4.8911 8.09443 17.2222C8.09443 17.7739 7.64721 18.2211 7.09554 18.2211L2.65222 18.2211C2.10055 18.2211 1.65333 17.7739 1.65333 17.2222L1.65333 6.88887C1.63414 5.80473 2.49745 4.91029 3.5816 4.8911 3.60477 4.89069 3.62794 4.89069 3.6511 4.8911Z" fill="#A3A3A3" transform="matrix(1 0 0 1.00001 1586 1250)"/><path d="M3.6511 4.8911 8.09443 4.8911 8.09443 4.8911 8.09443 17.2222C8.09443 17.7739 7.64721 18.2211 7.09554 18.2211L2.65222 18.2211C2.10055 18.2211 1.65333 17.7739 1.65333 17.2222L1.65333 6.88887C1.63414 5.80473 2.49745 4.91029 3.5816 4.8911 3.60477 4.89069 3.62794 4.89069 3.6511 4.8911Z" fill="#A3A3A3" fill-opacity="0.5" transform="matrix(1 0 0 1.00001 1586 1250)"/><path d="M53.9054 4.8911 58.3488 4.8911C59.4331 4.8911 60.3121 5.77011 60.3121 6.85443L60.3121 17.2222C60.3121 17.7739 59.8649 18.2211 59.3132 18.2211L54.9043 18.2211C54.3527 18.2211 53.9054 17.7739 53.9054 17.2222L53.9054 4.8911 53.9054 4.8911Z" fill="#A3A3A3" transform="matrix(1 0 0 1.00001 1586 1250)"/><path d="M53.9054 4.8911 58.3488 4.8911C59.4331 4.8911 60.3121 5.77011 60.3121 6.85443L60.3121 17.2222C60.3121 17.7739 59.8649 18.2211 59.3132 18.2211L54.9043 18.2211C54.3527 18.2211 53.9054 17.7739 53.9054 17.2222L53.9054 4.8911 53.9054 4.8911Z" fill="#A3A3A3" fill-opacity="0.5" transform="matrix(1 0 0 1.00001 1586 1250)"/><path d="M29.8288-21.3211 34.1344-21.3211 34.1344-21.3211 34.1344 37.2344 34.1344 37.2344 29.8288 37.2344C28.7445 37.2344 27.8655 36.3554 27.8655 35.271L27.8655-19.3577C27.8655-20.4421 28.7445-21.3211 29.8288-21.3211Z" fill="#949494" transform="matrix(6.12323e-17 1.00001 -1 6.12327e-17 1624.99 1226.99)"/><path d="M2.65222 43.7099 7.09554 43.7099C7.64721 43.7099 8.09443 44.1571 8.09443 44.7088L8.09443 57.1432 8.09443 57.1432 3.6511 57.1432C2.56697 57.1629 1.67213 56.3 1.65243 55.2159 1.6518 55.1809 1.6521 55.1459 1.65333 55.111L1.65333 44.7777C1.61528 44.2273 2.03059 43.7503 2.58095 43.7123 2.60467 43.7106 2.62844 43.7099 2.65222 43.7099Z" fill="#A3A3A3" transform="matrix(1 0 0 1.00001 1586 1250)"/><path d="M2.65222 43.7099 7.09554 43.7099C7.64721 43.7099 8.09443 44.1571 8.09443 44.7088L8.09443 57.1432 8.09443 57.1432 3.6511 57.1432C2.56697 57.1629 1.67213 56.3 1.65243 55.2159 1.6518 55.1809 1.6521 55.1459 1.65333 55.111L1.65333 44.7777C1.61528 44.2273 2.03059 43.7503 2.58095 43.7123 2.60467 43.7106 2.62844 43.7099 2.65222 43.7099Z" fill="#A3A3A3" fill-opacity="0.5" transform="matrix(1 0 0 1.00001 1586 1250)"/><path d="M54.9043 43.7099 59.3477 43.7099C59.8993 43.7099 60.3465 44.1571 60.3465 44.7088L60.3465 55.0421C60.3465 56.1264 59.4675 57.0054 58.3832 57.0054L53.9054 57.0054 53.9054 57.0054 53.9054 44.7777C53.8674 44.2273 54.2827 43.7503 54.8331 43.7123 54.8568 43.7106 54.8806 43.7099 54.9043 43.7099Z" fill="#A3A3A3" transform="matrix(1 0 0 1.00001 1586 1250)"/><path d="M54.9043 43.7099 59.3477 43.7099C59.8993 43.7099 60.3465 44.1571 60.3465 44.7088L60.3465 55.0421C60.3465 56.1264 59.4675 57.0054 58.3832 57.0054L53.9054 57.0054 53.9054 57.0054 53.9054 44.7777C53.8674 44.2273 54.2827 43.7503 54.8331 43.7123 54.8568 43.7106 54.8806 43.7099 54.9043 43.7099Z" fill="#A3A3A3" fill-opacity="0.5" transform="matrix(1 0 0 1.00001 1586 1250)"/><path d="M29.8288 24.6622 34.1344 24.6622 34.1344 24.6622 34.1344 83.2176 34.1344 83.2176 29.8288 83.2176C28.7445 83.2176 27.8655 82.3386 27.8655 81.2543L27.8655 26.6255C27.8655 25.5412 28.7445 24.6622 29.8288 24.6622Z" fill="#949494" transform="matrix(6.12323e-17 -1.00001 1 6.12327e-17 1562.99 1335.01)"/><path d="M51.3566 30.4488 45.0877 24.1111C44.9831 23.9755 44.7885 23.9504 44.6529 24.0549 44.5622 24.1249 44.5174 24.2392 44.5366 24.3522L44.5366 28.2444C44.5568 28.4144 44.4354 28.5686 44.2654 28.5888 44.241 28.5917 44.2165 28.5917 44.1921 28.5888L26.1433 28.5888C25.4605 27.7007 24.4046 27.1792 23.2844 27.1766 21.2014 26.9773 19.3512 28.5044 19.1519 30.5874 18.9526 32.6705 20.4797 34.5206 22.5627 34.7199 22.8027 34.7429 23.0444 34.7429 23.2844 34.7199 24.419 34.7042 25.4844 34.1715 26.1777 33.2733L44.1921 33.2733C44.3623 33.2542 44.5156 33.3767 44.5347 33.5469 44.536 33.559 44.5367 33.5711 44.5366 33.5833L44.5366 37.4066C44.5299 37.5777 44.6631 37.7218 44.8342 37.7285 44.9322 37.7323 45.0262 37.6896 45.0877 37.6133L51.3566 31.3788C51.5974 31.1156 51.5974 30.7121 51.3566 30.4488Z" fill="#5EA0EF" transform="matrix(1 0 0 1.00001 1586 1250)"/><path d="M39.7833 19.2544 33.5144 13.02C33.4098 12.8844 33.2151 12.8593 33.0796 12.9638 32.9889 13.0338 32.9441 13.1481 32.9633 13.2611L32.9633 17.2222C32.9823 17.3923 32.8598 17.5457 32.6896 17.5647 32.6776 17.5661 32.6654 17.5667 32.6533 17.5666L21.3555 17.5666C20.6585 16.6773 19.5921 16.1567 18.4622 16.1544 16.3701 16.1121 14.6398 17.7738 14.5975 19.8659 14.5552 21.958 16.2169 23.6883 18.309 23.7306 19.5127 23.755 20.6564 23.2058 21.39 22.2511L32.6533 22.2511C32.8245 22.2511 32.9633 22.3899 32.9633 22.5611L32.9633 26.2122C32.9566 26.3832 33.0898 26.5274 33.2609 26.534 33.3589 26.5379 33.4529 26.4951 33.5144 26.4188L39.7833 20.1844C40.0241 19.9212 40.0241 19.5176 39.7833 19.2544Z" fill="url(#fill32)" transform="matrix(1 0 0 1.00001 1586 1250)"/><path d="M39.7833 41.8499 33.5144 35.6155C33.4098 35.4799 33.2151 35.4548 33.0796 35.5593 32.9889 35.6293 32.9441 35.7436 32.9633 35.8566L32.9633 39.6455C32.9642 39.823 32.8299 39.9722 32.6533 39.9899L21.3555 39.9899C20.6585 39.1005 19.5921 38.58 18.4622 38.5777 16.3696 38.5805 14.6756 40.2791 14.6784 42.3716 14.6812 44.4642 16.3798 46.1583 18.4723 46.1555 19.6016 46.1539 20.6713 45.6488 21.39 44.7777L32.6533 44.7777C32.8245 44.7777 32.9633 44.9165 32.9633 45.0877L32.9633 48.911C32.9566 49.0821 33.0898 49.2262 33.2609 49.2329 33.3589 49.2367 33.4529 49.194 33.5144 49.1177L39.7833 42.8832C40.0686 42.6316 40.0959 42.1963 39.8443 41.9109 39.8252 41.8893 39.8048 41.869 39.7833 41.8499Z" fill="url(#fill33)" transform="matrix(1 0 0 1.00001 1586 1250)"/></g></g></g><g><g><g><path d="M1.84355 18.0153 59.1563 18.0153 59.1563 18.0153 59.1563 51.6262C59.1563 52.6837 58.299 53.5409 57.2416 53.5409L3.75827 53.5409C2.7008 53.5409 1.84355 52.6837 1.84355 51.6262L1.84355 18.0153 1.84355 18.0153Z" fill="url(#fill34)" transform="matrix(1 0 0 1.0164 1595 965)"/><path d="M3.76843 7.45554 57.2314 7.45554C58.2889 7.45554 59.1461 8.31278 59.1461 9.37025L59.1461 18.0119 59.1461 18.0119 1.85372 18.0119 1.85372 18.0119 1.85372 9.37364C1.85185 8.31617 2.70758 7.45741 3.76504 7.45554 3.76617 7.45554 3.7673 7.45554 3.76843 7.45554Z" fill="#773ADC" transform="matrix(1 0 0 1.0164 1595 965)"/><path d="M20.4485 21.8074C20.9613 21.8074 21.3771 22.2232 21.3771 22.736L21.3771 47.7629C21.3771 48.2757 20.9613 48.6914 20.4485 48.6914L9.82436 48.6914C9.31154 48.6914 8.89581 48.2757 8.89581 47.7629L8.89581 22.736C8.89581 22.2232 9.31154 21.8074 9.82436 21.8074Z" fill="#FFFFFF" transform="matrix(1 0 0 1.0164 1595 965)"/><path d="M35.8103 21.8074C36.3231 21.8074 36.7388 22.2232 36.7388 22.736L36.7388 47.7629C36.7388 48.2757 36.3231 48.6914 35.8103 48.6914L25.1862 48.6914C24.6733 48.6914 24.2576 48.2757 24.2576 47.7629L24.2576 22.736C24.2576 22.2232 24.6733 21.8074 25.1862 21.8074Z" fill="#FFFFFF" fill-opacity="0.75" transform="matrix(1 0 0 1.0164 1595 965)"/><path d="M51.1755 21.8074C51.6883 21.8074 52.104 22.2232 52.104 22.736L52.104 47.7629C52.104 48.2757 51.6883 48.6914 51.1755 48.6914L40.5513 48.6914C40.0385 48.6914 39.6228 48.2757 39.6228 47.7629L39.6228 22.736C39.6228 22.2232 40.0385 21.8074 40.5513 21.8074Z" fill="#FFFFFF" fill-opacity="0.5" transform="matrix(1 0 0 1.0164 1595 965)"/></g></g></g><text font-family="Aptos,Aptos_MSFontService,sans-serif" font-weight="400" font-size="37" transform="matrix(1 0 0 1 1571.67 1056)">Queue</text><path d="M0.0348046-3.43732 20.6587-3.2285 20.5891 3.64615-0.0348046 3.43732ZM27.5334-3.15889 48.1573-2.95006 48.0877 3.92459 27.4638 3.71576ZM55.032-2.88045 75.6559-2.67162 75.5863 4.20303 54.9624 3.9942ZM82.5306-2.60201 103.155-2.39319 103.085 4.48146 82.461 4.27263ZM110.029-2.32358 130.653-2.11475 130.583 4.7599 109.96 4.55107ZM137.528-2.04514 158.152-1.83631 158.082 5.03834 137.458 4.82951ZM165.026-1.7667 185.65-1.55787 185.581 5.31677 164.957 5.10795ZM192.525-1.48827 213.149-1.27944 213.079 5.59521 192.455 5.38638ZM220.023-1.20983 240.647-1.001 240.578 5.87365 219.954 5.66482ZM247.522-0.931391 268.146-0.722564 268.076 6.15208 247.452 5.94326ZM275.021-0.652954 295.645-0.444127 295.575 6.43052 274.951 6.22169ZM302.519-0.374517 323.143-0.16569 323.074 6.70896 302.45 6.50013ZM330.018-0.0960805 350.642 0.112747 350.572 6.98739 329.948 6.77857ZM357.516 0.182356 378.14 0.391184 378.071 7.26583 357.447 7.057ZM385.015 0.460793 405.639 0.669621 405.569 7.54427 384.945 7.33544ZM412.514 0.73923 433.138 0.948058 433.068 7.82271 412.444 7.61388ZM440.012 1.01767 460.636 1.22649 460.567 8.10114 439.943 7.89231ZM467.511 1.2961 488.135 1.50493 488.065 8.37958 467.441 8.17075ZM495.009 1.57454 515.633 1.78337 515.564 8.65802 494.94 8.44919ZM522.508 1.85298 543.132 2.06181 543.062 8.93645 522.438 8.72763ZM550.007 2.13141 570.631 2.34024 570.561 9.21489 549.937 9.00606ZM577.505 2.40985 598.129 2.61868 598.06 9.49333 577.436 9.2845ZM605.004 2.68829 625.628 2.89712 625.558 9.77176 604.934 9.56294ZM632.502 2.96673 653.126 3.17555 653.057 10.0502 632.433 9.84137ZM660.001 3.24516 680.625 3.45399 680.555 10.3286 659.931 10.1198ZM687.5 3.5236 708.124 3.73243 708.054 10.6071 687.43 10.3982ZM714.998 3.80204 735.622 4.01086 735.552 10.8855 714.929 10.6767ZM742.497 4.08047 763.121 4.2893 763.051 11.1639 742.427 10.9551ZM769.995 4.35891 790.619 4.56774 790.55 11.4424 769.926 11.2336ZM797.494 4.63735 818.118 4.84618 818.048 11.7208 797.424 11.512ZM824.992 4.91578 845.616 5.12461 845.547 11.9993 824.923 11.7904ZM852.491 5.19422 873.115 5.40305 873.045 12.2777 852.421 12.0689ZM879.99 5.47266 900.613 5.68149 900.544 12.5561 879.92 12.3473ZM907.488 5.7511 928.112 5.95992 928.042 12.8346 907.418 12.6257ZM934.987 6.02953 955.611 6.23836 955.541 13.113 934.917 12.9042ZM962.485 6.30797 983.109 6.5168 983.04 13.3914 962.416 13.1826ZM989.984 6.58641 1010.61 6.79523 1010.54 13.6699 989.914 13.4611ZM1017.48 6.86484 1038.11 7.07367 1038.04 13.9483 1017.41 13.7395ZM1044.98 7.14328 1065.61 7.35211 1065.54 14.2268 1044.91 14.0179ZM1072.48 7.42172 1093.1 7.63054 1093.03 14.5052 1072.41 14.2964ZM1099.98 7.70015 1120.6 7.90898 1120.53 14.7836 1099.91 14.5748ZM1127.48 7.97859 1148.1 8.18742 1148.03 15.0621 1127.41 14.8532ZM1154.98 8.25703 1175.6 8.46586 1175.53 15.3405 1154.91 15.1317ZM1182.47 8.53547 1203.1 8.74429 1203.03 15.6189 1182.4 15.4101ZM1202.47-1.57514 1229.82 12.4526 1202.19 25.9235Z" fill="#0070C0" transform="matrix(1 0 0 -1 1678.5 896.953)"/><text font-family="Aptos,Aptos_MSFontService,sans-serif" font-weight="400" font-size="37" transform="matrix(1 0 0 1 2025.35 1049)">Links private endpoint with central </text><text font-family="Aptos,Aptos_MSFontService,sans-serif" font-weight="400" font-size="37" transform="matrix(1 0 0 1 2210.1 1093)">DNS zones</text></g></svg>