<svg width="3032" height="1465" xmlns="http://www.w3.org/2000/svg" xmlns:xlink="http://www.w3.org/1999/xlink" xml:space="preserve" overflow="hidden"><defs><radialGradient cx="0" cy="0" r="3394446" gradientUnits="userSpaceOnUse" spreadMethod="pad" id="fill0" gradientTransform="matrix(0.000360892 0 0 0.000360892 1076.5 463.5)"><stop offset="0" stop-color="#A9E3FF"/><stop offset="0.5" stop-color="#C9ECFF"/><stop offset="1" stop-color="#E4F5FF"/></radialGradient><radialGradient cx="-36.63" cy="17.12" r="11.18" gradientUnits="userSpaceOnUse" spreadMethod="pad" id="fill1" gradientTransform="matrix(5.48333 0 0 5.48333 244.3 -43.1666)"><stop offset="0" stop-color="#FFD70F"/><stop offset="0.27" stop-color="#FFD70F"/><stop offset="0.49" stop-color="#FFCB12"/><stop offset="0.88" stop-color="#FEAC19"/><stop offset="1" stop-color="#FEA11B"/></radialGradient><linearGradient x1="1625" y1="838" x2="1625" y2="810" gradientUnits="userSpaceOnUse" spreadMethod="reflect" id="fill2"><stop offset="0" stop-color="#37C2B1"/><stop offset="0.001" stop-color="#37C2B1"/><stop offset="0.496" stop-color="#3ACEBC"/><stop offset="1" stop-color="#3CD4C2"/></linearGradient><linearGradient x1="1671" y1="951" x2="1671" y2="923" gradientUnits="userSpaceOnUse" spreadMethod="reflect" id="fill3"><stop offset="0" stop-color="#37C2B1"/><stop offset="0.001" stop-color="#37C2B1"/><stop offset="0.496" stop-color="#3ACEBC"/><stop offset="1" stop-color="#3CD4C2"/></linearGradient><linearGradient x1="1577" y1="951" x2="1577" y2="923" gradientUnits="userSpaceOnUse" spreadMethod="reflect" id="fill4"><stop offset="0" stop-color="#37C2B1"/><stop offset="0.001" stop-color="#37C2B1"/><stop offset="0.496" stop-color="#3ACEBC"/><stop offset="1" stop-color="#3CD4C2"/></linearGradient><linearGradient x1="1599.7" y1="851.312" x2="1599.7" y2="859.613" gradientUnits="userSpaceOnUse" spreadMethod="pad" id="fill5"><stop offset="0" stop-color="#50E6FF"/><stop offset="1" stop-color="#32BEDD"/></linearGradient><linearGradient x1="1599.66" y1="883.069" x2="1599.66" y2="874.768" gradientUnits="userSpaceOnUse" spreadMethod="pad" id="fill6"><stop offset="0" stop-color="#5E9624"/><stop offset="0.183" stop-color="#629C25"/><stop offset="0.435" stop-color="#6DAE2A"/><stop offset="0.726" stop-color="#7FCB30"/><stop offset="0.822" stop-color="#86D633"/><stop offset="1" stop-color="#86D633"/></linearGradient><clipPath id="clip7"><rect x="1629" y="850" width="45" height="44"/></clipPath><clipPath id="clip8"><rect x="1629" y="850" width="45" height="44"/></clipPath><clipPath id="clip9"><rect x="1629" y="850" width="45" height="44"/></clipPath><linearGradient x1="21.7006" y1="1.31153" x2="21.7006" y2="9.61285" gradientUnits="userSpaceOnUse" spreadMethod="pad" id="fill10"><stop offset="0" stop-color="#50E6FF"/><stop offset="1" stop-color="#32BEDD"/></linearGradient><linearGradient x1="21.6553" y1="33.0694" x2="21.6553" y2="24.768" gradientUnits="userSpaceOnUse" spreadMethod="pad" id="fill11"><stop offset="0" stop-color="#5E9624"/><stop offset="0.183" stop-color="#629C25"/><stop offset="0.435" stop-color="#6DAE2A"/><stop offset="0.726" stop-color="#7FCB30"/><stop offset="0.822" stop-color="#86D633"/><stop offset="1" stop-color="#86D633"/></linearGradient><clipPath id="clip12"><rect x="1602" y="884" width="45" height="44"/></clipPath><clipPath id="clip13"><rect x="1602" y="884" width="45" height="44"/></clipPath><clipPath id="clip14"><rect x="1602" y="884" width="45" height="44"/></clipPath><linearGradient x1="21.7006" y1="1.31153" x2="21.7006" y2="9.61285" gradientUnits="userSpaceOnUse" spreadMethod="pad" id="fill15"><stop offset="0" stop-color="#50E6FF"/><stop offset="1" stop-color="#32BEDD"/></linearGradient><linearGradient x1="21.6553" y1="33.0694" x2="21.6553" y2="24.768" gradientUnits="userSpaceOnUse" spreadMethod="pad" id="fill16"><stop offset="0" stop-color="#5E9624"/><stop offset="0.183" stop-color="#629C25"/><stop offset="0.435" stop-color="#6DAE2A"/><stop offset="0.726" stop-color="#7FCB30"/><stop offset="0.822" stop-color="#86D633"/><stop offset="1" stop-color="#86D633"/></linearGradient><clipPath id="clip17"><rect x="1661" y="927" width="19" height="21"/></clipPath><clipPath id="clip18"><rect x="1661" y="927" width="19" height="21"/></clipPath><clipPath id="clip19"><rect x="1661" y="927" width="19" height="21"/></clipPath><linearGradient x1="9.63199" y1="17.7934" x2="9.63199" y2="0.948153" gradientUnits="userSpaceOnUse" spreadMethod="pad" id="fill20"><stop offset="0" stop-color="#FEA11B"/><stop offset="0.284" stop-color="#FEA51A"/><stop offset="0.547" stop-color="#FEB018"/><stop offset="0.8" stop-color="#FFC314"/><stop offset="1" stop-color="#FFD70F"/></linearGradient><linearGradient x1="1577.14" y1="945.73" x2="1577.14" y2="927.998" gradientUnits="userSpaceOnUse" spreadMethod="pad" id="fill21"><stop offset="0" stop-color="#FEA11B"/><stop offset="0.284" stop-color="#FEA51A"/><stop offset="0.547" stop-color="#FEB018"/><stop offset="0.8" stop-color="#FFC314"/><stop offset="1" stop-color="#FFD70F"/></linearGradient><clipPath id="clip22"><rect x="1614" y="815" width="21" height="19"/></clipPath><clipPath id="clip23"><rect x="1614" y="815" width="21" height="19"/></clipPath><clipPath id="clip24"><rect x="1614" y="815" width="21" height="19"/></clipPath><linearGradient x1="9.63199" y1="17.7934" x2="9.63199" y2="0.948153" gradientUnits="userSpaceOnUse" spreadMethod="pad" id="fill25"><stop offset="0" stop-color="#FEA11B"/><stop offset="0.284" stop-color="#FEA51A"/><stop offset="0.547" stop-color="#FEB018"/><stop offset="0.8" stop-color="#FFC314"/><stop offset="1" stop-color="#FFD70F"/></linearGradient><radialGradient cx="0.125" cy="0.125" r="3391952" fx="0" fy="0" gradientUnits="userSpaceOnUse" spreadMethod="pad" id="fill26" gradientTransform="matrix(0.000360892 0 0 0.000360892 2420.5 463.5)"><stop offset="0" stop-color="#A9E3FF"/><stop offset="0.5" stop-color="#C9ECFF"/><stop offset="1" stop-color="#E4F5FF"/></radialGradient><radialGradient cx="-36.63" cy="17.12" r="11.18" gradientUnits="userSpaceOnUse" spreadMethod="pad" id="fill27" gradientTransform="matrix(5.48333 0 0 5.48333 244.3 -43.1666)"><stop offset="0" stop-color="#FFD70F"/><stop offset="0.27" stop-color="#FFD70F"/><stop offset="0.49" stop-color="#FFCB12"/><stop offset="0.88" stop-color="#FEAC19"/><stop offset="1" stop-color="#FEA11B"/></radialGradient><radialGradient cx="-6811.4" cy="6729.69" r="17" gradientUnits="userSpaceOnUse" spreadMethod="pad" id="fill28" gradientTransform="matrix(3.52777 0 0 -3.52777 24094.1 23805.8)"><stop offset="0" stop-color="#5EA0EF"/><stop offset="0.18" stop-color="#5EA0EF"/><stop offset="1" stop-color="#0078D4"/></radialGradient><radialGradient cx="0.125" cy="0.125" r="3391952" fx="0" fy="0" gradientUnits="userSpaceOnUse" spreadMethod="pad" id="fill29" gradientTransform="matrix(0.000360892 0 0 0.000360892 497.5 1388.5)"><stop offset="0" stop-color="#A9E3FF"/><stop offset="0.5" stop-color="#C9ECFF"/><stop offset="1" stop-color="#E4F5FF"/></radialGradient><radialGradient cx="-36.63" cy="17.12" r="11.18" gradientUnits="userSpaceOnUse" spreadMethod="pad" id="fill30" gradientTransform="matrix(5.43112 0 0 5.43112 241.974 -42.7556)"><stop offset="0" stop-color="#FFD70F"/><stop offset="0.27" stop-color="#FFD70F"/><stop offset="0.49" stop-color="#FFCB12"/><stop offset="0.88" stop-color="#FEAC19"/><stop offset="1" stop-color="#FEA11B"/></radialGradient><clipPath id="clip31"><rect x="973" y="1731" width="146" height="146"/></clipPath><clipPath id="clip32"><rect x="973" y="1731" width="146" height="146"/></clipPath><clipPath id="clip33"><rect x="973" y="1731" width="146" height="146"/></clipPath><linearGradient x1="70.8728" y1="70.1075" x2="118.28" y2="70.1075" gradientUnits="userSpaceOnUse" spreadMethod="pad" id="fill34"><stop offset="0" stop-color="#773ADC"/><stop offset="0.001" stop-color="#773ADC"/><stop offset="1" stop-color="#552F99"/></linearGradient><linearGradient x1="46.4322" y1="30.4258" x2="46.4322" y2="111.006" gradientUnits="userSpaceOnUse" spreadMethod="pad" id="fill35"><stop offset="0" stop-color="#A67AF4"/><stop offset="0.999" stop-color="#773ADC"/><stop offset="1" stop-color="#773ADC"/></linearGradient><radialGradient cx="0.125" cy="0.125" r="3391952" fx="0" fy="0" gradientUnits="userSpaceOnUse" spreadMethod="pad" id="fill36" gradientTransform="matrix(0.000360892 0 0 0.000360892 1661.5 1388.5)"><stop offset="0" stop-color="#A9E3FF"/><stop offset="0.5" stop-color="#C9ECFF"/><stop offset="1" stop-color="#E4F5FF"/></radialGradient><radialGradient cx="-36.63" cy="17.12" r="11.18" gradientUnits="userSpaceOnUse" spreadMethod="pad" id="fill37" gradientTransform="matrix(5.43112 0 0 5.43112 241.974 -42.7556)"><stop offset="0" stop-color="#FFD70F"/><stop offset="0.27" stop-color="#FFD70F"/><stop offset="0.49" stop-color="#FFCB12"/><stop offset="0.88" stop-color="#FEAC19"/><stop offset="1" stop-color="#FEA11B"/></radialGradient><radialGradient cx="13428.8" cy="3518.86" r="56.67" gradientUnits="userSpaceOnUse" spreadMethod="pad" id="fill38" gradientTransform="matrix(1.21666 0 0 1.21666 -14127.4 -2477.28)"><stop offset="0" stop-color="#5EA0EF"/><stop offset="0.18" stop-color="#5EA0EF"/><stop offset="1" stop-color="#0078D4"/></radialGradient><linearGradient x1="2173.69" y1="1824.12" x2="2173.45" y2="1792.08" gradientUnits="userSpaceOnUse" spreadMethod="pad" id="fill39"><stop offset="0" stop-color="#CCCCCC"/><stop offset="1" stop-color="#FCFCFC"/></linearGradient><linearGradient x1="2220.17" y1="1856.32" x2="2220.17" y2="1827.52" gradientUnits="userSpaceOnUse" spreadMethod="pad" id="fill40"><stop offset="0" stop-color="#CCCCCC"/><stop offset="1" stop-color="#FCFCFC"/></linearGradient><linearGradient x1="2253.02" y1="1821.44" x2="2253.02" y2="1790.86" gradientUnits="userSpaceOnUse" spreadMethod="pad" id="fill41"><stop offset="0" stop-color="#CCCCCC"/><stop offset="1" stop-color="#FCFCFC"/></linearGradient><linearGradient x1="2173.69" y1="1824.12" x2="2173.45" y2="1792.08" gradientUnits="userSpaceOnUse" spreadMethod="pad" id="fill42"><stop offset="0" stop-color="#CCCCCC"/><stop offset="1" stop-color="#FCFCFC"/></linearGradient><linearGradient x1="2220.17" y1="1856.32" x2="2220.17" y2="1827.52" gradientUnits="userSpaceOnUse" spreadMethod="pad" id="fill43"><stop offset="0" stop-color="#CCCCCC"/><stop offset="1" stop-color="#FCFCFC"/></linearGradient><linearGradient x1="26.9077" y1="26.0944" x2="26.9077" y2="12.7083" gradientUnits="userSpaceOnUse" spreadMethod="pad" id="fill44"><stop offset="0" stop-color="#5E9624"/><stop offset="1" stop-color="#76BC2D"/></linearGradient><linearGradient x1="26.9077" y1="48.3254" x2="26.9077" y2="34.9394" gradientUnits="userSpaceOnUse" spreadMethod="pad" id="fill45"><stop offset="0" stop-color="#5E9624"/><stop offset="1" stop-color="#76BC2D"/></linearGradient><linearGradient x1="30.4999" y1="53.5409" x2="30.4999" y2="18.0153" gradientUnits="userSpaceOnUse" spreadMethod="pad" id="fill46"><stop offset="0" stop-color="#A67AF4"/><stop offset="0.775" stop-color="#B796F9"/><stop offset="1" stop-color="#B796F9"/></linearGradient></defs><g transform="translate(-494 -460)"><rect x="1076.5" y="463.5" width="1103" height="533" stroke="#83CBEB" stroke-width="6.875" stroke-miterlimit="8" fill="url(#fill0)"/><text font-family="Aptos,Aptos_MSFontService,sans-serif" font-weight="400" font-size="50" transform="matrix(1 0 0 1 1280.24 716)">Private Endpoint Manager </text><text font-family="Aptos,Aptos_MSFontService,sans-serif" font-weight="400" font-size="50" transform="matrix(1 0 0 1 1847.43 716)">(PEM)</text><text font-family="Aptos,Aptos_MSFontService,sans-serif" font-weight="400" font-size="50" transform="matrix(1 0 0 1 1489.08 776)">Subscription </text><g><g><g><path d="M79.0999 41.9416C83.8196 37.2302 83.8263 29.5847 79.1149 24.865 79.1099 24.86 79.1049 24.855 79.0999 24.85L79.0999 24.85 58.3332 4.02499C53.6513-0.678624 46.0428-0.696195 41.3392 3.98575 41.3261 3.9988 41.313 4.01188 41.2999 4.02499L41.2999 4.02499 20.5333 24.85C15.8713 29.5934 15.8713 37.1981 20.5333 41.9416L38.0333 59.4416C38.6524 60.086 39.0064 60.9398 39.0249 61.8332L39.0249 94.0332C39.0093 95.1221 39.4293 96.1721 40.1916 96.9499L48.0666 104.825C49.0522 105.888 50.7131 105.951 51.7762 104.965 51.8248 104.92 51.8716 104.873 51.9166 104.825L59.5582 97.1832 59.5582 97.1832 64.0499 92.6915C64.662 92.1197 64.6947 91.16 64.1229 90.5479 64.0994 90.5227 64.0751 90.4984 64.0499 90.4749L60.8416 87.2082C60.165 86.5639 60.1389 85.4931 60.7832 84.8165 60.8022 84.7966 60.8217 84.7772 60.8416 84.7582L64.0499 81.4915C64.662 80.9198 64.6947 79.96 64.1229 79.3479 64.0994 79.3227 64.0751 79.2984 64.0499 79.2749L60.6666 75.8332C60.0061 75.2188 59.9688 74.1853 60.5833 73.5248 60.61 73.4961 60.6378 73.4683 60.6666 73.4416L64.1666 69.9999C64.7787 69.4281 64.8114 68.4684 64.2396 67.8562 64.2161 67.8311 64.1917 67.8067 64.1666 67.7832L59.6749 63.2332 59.6749 61.5999ZM49.9333 9.04165C53.7347 9.07387 56.7902 12.1816 56.758 15.9831 56.7258 19.7845 53.618 22.84 49.8166 22.8078 46.038 22.7758 42.9917 19.7037 42.9916 15.925 42.9594 12.1558 45.9888 9.07412 49.758 9.0419 49.7775 9.04174 49.7971 9.04165 49.8166 9.04165Z" fill="url(#fill1)" transform="matrix(1 0 0 1 1574 512)"/><path d="M44.4499 94.5582 44.4499 94.5582C45.1378 94.9771 46.0351 94.759 46.454 94.0711 46.5895 93.8485 46.6629 93.5937 46.6666 93.3332L46.6666 67.3749C46.6713 66.8689 46.4326 66.3914 46.0249 66.0916L46.0249 66.0916C45.3584 65.6394 44.4515 65.8132 43.9994 66.4798 43.8209 66.743 43.7333 67.0573 43.7499 67.3749L43.7499 93.3332C43.7771 93.829 44.0365 94.283 44.4499 94.5582Z" fill="#FF9300" fill-opacity="0.75" transform="matrix(1 0 0 1 1574 512)"/><path d="M65.5082 31.7916C66.5392 31.7916 67.3749 32.6274 67.3749 33.6583L67.3749 33.9499C67.3749 34.9809 66.5392 35.8166 65.5082 35.8166L35.0583 35.8166C34.0273 35.8166 33.1916 34.9809 33.1916 33.9499L33.1916 33.6583C33.1916 32.6274 34.0273 31.7916 35.0583 31.7916Z" fill="#FF9300" fill-opacity="0.75" transform="matrix(1 0 0 1 1574 512)"/><path d="M65.5082 38.3249C66.5392 38.3249 67.3749 39.1607 67.3749 40.1916L67.3749 40.4833C67.3749 41.5142 66.5392 42.3499 65.5082 42.3499L35.0583 42.3499C34.0273 42.3499 33.1916 41.5142 33.1916 40.4833L33.1916 40.1916C33.1916 39.1607 34.0273 38.3249 35.0583 38.3249Z" fill="#FF9300" fill-opacity="0.75" transform="matrix(1 0 0 1 1574 512)"/></g></g></g><path d="M1611 824C1611 816.268 1617.27 810 1625 810 1632.73 810 1639 816.268 1639 824 1639 831.732 1632.73 838 1625 838 1617.27 838 1611 831.732 1611 824Z" fill="url(#fill2)" fill-rule="evenodd"/><path d="M1641.72 825C1641.6 827.268 1641.02 829.491 1640 831.548 1667.52 838.926 1686.42 862.858 1686.13 889.962 1686.13 900.944 1683.04 911.727 1677.18 921.199 1679.34 922.084 1681.29 923.378 1682.91 925 1689.52 914.396 1693.01 902.301 1693 889.982 1693.37 859.828 1672.35 833.187 1641.72 825Z" fill="#37C2B1" fill-rule="evenodd"/><path d="M1657 937C1657 929.268 1663.27 923 1671 923 1678.73 923 1685 929.268 1685 937 1685 944.732 1678.73 951 1671 951 1663.27 951 1657 944.732 1657 937Z" fill="url(#fill3)" fill-rule="evenodd"/><path d="M1563 937C1563 929.268 1569.27 923 1577 923 1584.73 923 1591 929.268 1591 937 1591 944.732 1584.73 951 1577 951 1569.27 951 1563 944.732 1563 937Z" fill="url(#fill4)" fill-rule="evenodd"/><path d="M1654.38 942.646C1635.21 953.202 1611.52 952.566 1593 941 1592.44 943.239 1591.42 945.349 1590 947.21 1610.65 959.78 1636.85 960.281 1658 948.509 1656.41 946.8 1655.18 944.808 1654.38 942.646Z" fill="#37C2B1" fill-rule="evenodd"/><path d="M1572.89 920.141C1567.49 910.868 1564.65 900.394 1564.66 889.741 1564.38 862.902 1582.48 839.139 1609 831.526 1607.98 829.483 1607.38 827.266 1607.24 825 1577.75 833.467 1557.65 859.909 1558 889.751 1557.99 901.379 1561.03 912.819 1566.81 923 1568.62 921.652 1570.69 920.679 1572.89 920.141Z" fill="#37C2B1" fill-rule="evenodd"/><g><g><g><path d="M1596.75 881.873C1598.36 883.506 1600.99 883.524 1602.62 881.914 1604.26 880.305 1604.28 877.676 1602.67 876.043 1602.64 876.012 1602.6 875.981 1602.57 875.951 1602.15 875.536 1601.64 875.219 1601.08 875.021L1601.08 857.188 1598.42 857.188 1598.42 874.971C1596.24 875.64 1595.01 877.95 1595.68 880.131 1595.89 880.793 1596.25 881.394 1596.75 881.877Z" fill="#B3B3B3"/><path d="M1603.85 855.277C1603.85 857.57 1601.99 859.429 1599.7 859.429 1597.41 859.429 1595.55 857.57 1595.55 855.277 1595.55 852.984 1597.41 851.125 1599.7 851.125 1601.99 851.125 1603.85 852.984 1603.85 855.277Z" fill="url(#fill5)"/><path d="M1592.8 890.08 1591.22 891.665C1590.94 891.945 1590.48 891.946 1590.2 891.666L1578.52 880.012C1577.96 879.453 1577.96 878.546 1578.51 877.985L1580.09 876.4 1580.09 876.4 1592.8 889.066C1593.08 889.346 1593.08 889.8 1592.8 890.08Z" fill="#50E6FF"/><path d="M1590.98 866.45 1592.57 868.03C1592.85 868.31 1592.85 868.764 1592.57 869.044L1580.09 881.562 1580.09 881.562 1578.5 879.979C1577.94 879.42 1577.94 878.513 1578.5 877.952L1589.97 866.45C1590.25 866.169 1590.7 866.169 1590.98 866.448 1590.98 866.449 1590.98 866.449 1590.98 866.45Z" fill="#1490DF"/><path d="M1618.9 876.402 1620.48 877.987C1621.04 878.548 1621.04 879.455 1620.48 880.014L1608.79 891.668C1608.51 891.948 1608.06 891.947 1607.78 891.667L1606.2 890.082C1605.92 889.802 1605.92 889.348 1606.2 889.068L1618.9 876.402 1618.9 876.402Z" fill="#50E6FF"/><path d="M1620.49 879.974 1618.91 881.554 1618.91 881.554 1606.43 869.037C1606.15 868.756 1606.15 868.303 1606.43 868.023L1608.01 866.443C1608.29 866.163 1608.75 866.164 1609.03 866.444L1620.5 877.947C1621.06 878.507 1621.06 879.415 1620.49 879.974Z" fill="#1490DF"/><path d="M1603.81 878.92C1603.81 881.213 1601.95 883.072 1599.66 883.072 1597.36 883.072 1595.5 881.213 1595.5 878.92 1595.5 876.627 1597.36 874.768 1599.66 874.768 1601.95 874.768 1603.81 876.627 1603.81 878.92Z" fill="url(#fill6)"/></g></g></g><g clip-path="url(#clip7)"><g clip-path="url(#clip8)"><g clip-path="url(#clip9)"><path d="M18.7528 31.8725C20.3626 33.5054 22.9914 33.5241 24.6243 31.9143 26.2572 30.3044 26.2759 27.6757 24.666 26.0428 24.6352 26.0115 24.6039 25.9807 24.5721 25.9505 24.1468 25.536 23.6366 25.2189 23.0767 25.0212L23.0767 7.18816 20.4202 7.18816 20.4202 24.971C18.2393 25.6399 17.0136 27.9501 17.6825 30.131 17.8856 30.7932 18.252 31.3938 18.748 31.8773Z" fill="#B3B3B3" transform="matrix(1.02326 0 0 1 1629 850)"/><path d="M25.8525 5.27705C25.8525 7.57008 23.9937 9.42894 21.7006 9.42894 19.4076 9.42894 17.5488 7.57008 17.5488 5.27705 17.5488 2.98403 19.4076 1.12517 21.7006 1.12517 23.9937 1.12517 25.8525 2.98403 25.8525 5.27705Z" fill="url(#fill10)" transform="matrix(1.02326 0 0 1 1629 850)"/><path d="M6.35961 25.2476 8.62365 25.2476C9.02399 25.2476 9.34853 25.5721 9.34853 25.9724L9.34853 42.6664C9.34853 43.4671 8.69945 44.1162 7.89877 44.1162L5.63473 44.1162 5.63473 44.1162 5.63473 25.9724C5.63473 25.5721 5.95927 25.2476 6.35961 25.2476Z" fill="#50E6FF" transform="matrix(-0.714341 0.700082 -0.716364 -0.698106 1666.77 903.253)"/><path d="M6.23598 14.7213 8.49987 14.7213C8.90018 14.7213 9.2247 15.0459 9.2247 15.4462L9.2247 33.3254 9.2247 33.3254 6.95839 33.3254C6.15776 33.3254 5.50873 32.6763 5.50873 31.8757L5.50873 15.4462C5.50872 15.0459 5.83324 14.7213 6.23356 14.7213 6.23436 14.7213 6.23517 14.7213 6.23598 14.7213Z" fill="#1490DF" transform="matrix(0.71641 0.698151 -0.714388 0.700128 1648.34 851.789)"/><path d="M34.1467 25.2476 36.4107 25.2476C37.2114 25.2476 37.8605 25.8966 37.8605 26.6973L37.8605 43.3913C37.8605 43.7916 37.5359 44.1162 37.1356 44.1162L34.8715 44.1162C34.4712 44.1162 34.1467 43.7916 34.1467 43.3913L34.1467 25.2476 34.1467 25.2476Z" fill="#50E6FF" transform="matrix(0.714341 0.700082 -0.716364 0.698106 1664.55 834.871)"/><path d="M35.7149 14.7213 37.9788 14.7213 37.9788 14.7213 37.9788 32.6006C37.9788 33.0009 37.6543 33.3254 37.254 33.3254L34.9901 33.3254C34.5898 33.3254 34.2653 33.0009 34.2653 32.6006L34.2653 16.171C34.2653 15.3704 34.9143 14.7213 35.7149 14.7213Z" fill="#1490DF" transform="matrix(-0.71641 0.698151 -0.714388 -0.700128 1708.59 865.346)"/><path d="M25.8071 28.9199C25.8071 31.2129 23.9483 33.0718 21.6553 33.0718 19.3622 33.0718 17.5034 31.2129 17.5034 28.9199 17.5034 26.6268 19.3622 24.768 21.6553 24.768 23.9483 24.768 25.8071 26.6268 25.8071 28.9199Z" fill="url(#fill11)" transform="matrix(1.02326 0 0 1 1629 850)"/></g></g></g><g clip-path="url(#clip12)"><g clip-path="url(#clip13)"><g clip-path="url(#clip14)"><path d="M18.7528 31.8725C20.3626 33.5054 22.9914 33.5241 24.6243 31.9143 26.2572 30.3044 26.2759 27.6757 24.666 26.0428 24.6352 26.0115 24.6039 25.9807 24.5721 25.9505 24.1468 25.536 23.6366 25.2189 23.0767 25.0212L23.0767 7.18816 20.4202 7.18816 20.4202 24.971C18.2393 25.6399 17.0136 27.9501 17.6825 30.131 17.8856 30.7932 18.252 31.3938 18.748 31.8773Z" fill="#B3B3B3" transform="matrix(1.02326 0 0 1 1603 884)"/><path d="M25.8525 5.27705C25.8525 7.57008 23.9937 9.42894 21.7006 9.42894 19.4076 9.42894 17.5488 7.57008 17.5488 5.27705 17.5488 2.98403 19.4076 1.12517 21.7006 1.12517 23.9937 1.12517 25.8525 2.98403 25.8525 5.27705Z" fill="url(#fill15)" transform="matrix(1.02326 0 0 1 1603 884)"/><path d="M6.35961 25.2476 8.62365 25.2476C9.02399 25.2476 9.34853 25.5721 9.34853 25.9724L9.34853 42.6664C9.34853 43.4671 8.69945 44.1162 7.89877 44.1162L5.63473 44.1162 5.63473 44.1162 5.63473 25.9724C5.63473 25.5721 5.95927 25.2476 6.35961 25.2476Z" fill="#50E6FF" transform="matrix(-0.714341 0.700082 -0.716364 -0.698106 1640.77 937.253)"/><path d="M6.23598 14.7213 8.49987 14.7213C8.90018 14.7213 9.2247 15.0459 9.2247 15.4462L9.2247 33.3254 9.2247 33.3254 6.95839 33.3254C6.15776 33.3254 5.50873 32.6763 5.50873 31.8757L5.50873 15.4462C5.50872 15.0459 5.83324 14.7213 6.23356 14.7213 6.23436 14.7213 6.23517 14.7213 6.23598 14.7213Z" fill="#1490DF" transform="matrix(0.71641 0.698151 -0.714388 0.700128 1622.34 885.789)"/><path d="M34.1467 25.2476 36.4107 25.2476C37.2114 25.2476 37.8605 25.8966 37.8605 26.6973L37.8605 43.3913C37.8605 43.7916 37.5359 44.1162 37.1356 44.1162L34.8715 44.1162C34.4712 44.1162 34.1467 43.7916 34.1467 43.3913L34.1467 25.2476 34.1467 25.2476Z" fill="#50E6FF" transform="matrix(0.714341 0.700082 -0.716364 0.698106 1638.55 868.871)"/><path d="M35.7149 14.7213 37.9788 14.7213 37.9788 14.7213 37.9788 32.6006C37.9788 33.0009 37.6543 33.3254 37.254 33.3254L34.9901 33.3254C34.5898 33.3254 34.2653 33.0009 34.2653 32.6006L34.2653 16.171C34.2653 15.3704 34.9143 14.7213 35.7149 14.7213Z" fill="#1490DF" transform="matrix(-0.71641 0.698151 -0.714388 -0.700128 1682.59 899.346)"/><path d="M25.8071 28.9199C25.8071 31.2129 23.9483 33.0718 21.6553 33.0718 19.3622 33.0718 17.5034 31.2129 17.5034 28.9199 17.5034 26.6268 19.3622 24.768 21.6553 24.768 23.9483 24.768 25.8071 26.6268 25.8071 28.9199Z" fill="url(#fill16)" transform="matrix(1.02326 0 0 1 1603 884)"/></g></g></g><g clip-path="url(#clip17)"><g clip-path="url(#clip18)"><g clip-path="url(#clip19)"><path d="M2.56477 8.08931 3.46298 8.08931C3.62256 8.08931 3.75193 8.21868 3.75193 8.37826L3.75193 15.0315C3.75193 15.3501 3.49368 15.6083 3.17512 15.6083L2.27258 15.6083 2.27258 15.6083 2.27258 8.37717C2.27258 8.2176 2.40195 8.08823 2.56153 8.08823Z" fill="#50E6FF" transform="matrix(-0.688729 0.727032 -0.690679 -0.72498 1674.2 945.561)"/><path d="M2.51644 3.89642 3.41803 3.89642C3.57763 3.89642 3.70701 4.0258 3.70701 4.18541L3.70701 11.3104 3.70701 11.3104 2.80434 11.3104C2.48574 11.3104 2.22745 11.0522 2.22745 10.7336L2.22745 4.18324C2.22864 4.02449 2.35768 3.89642 2.51644 3.89642Z" fill="#1490DF" transform="matrix(0.690579 0.724875 -0.68863 0.726927 1667.08 927.127)"/><path d="M15.7241 8.08931 16.6256 8.08931C16.9441 8.08931 17.2024 8.34756 17.2024 8.66612L17.2024 15.3194C17.2024 15.479 17.073 15.6083 16.9134 15.6083L16.0163 15.6083C15.8567 15.6083 15.7274 15.479 15.7274 15.3194L15.7274 8.08931 15.7274 8.08931Z" fill="#50E6FF" transform="matrix(0.688729 0.727032 -0.690679 0.72498 1673.9 918.606)"/><path d="M16.352 3.89642 17.2536 3.89642 17.2536 3.89642 17.2536 11.0215C17.2536 11.1811 17.1242 11.3104 16.9646 11.3104L16.063 11.3104C15.9034 11.3104 15.774 11.1811 15.774 11.0215L15.774 4.47114C15.774 4.15254 16.0323 3.89426 16.3509 3.89426Z" fill="#1490DF" transform="matrix(-0.690579 0.724875 -0.68863 -0.726927 1693.75 928.358)"/><path d="M8.9289 10.4499 5.14053 10.4499C5.02995 10.4542 4.93622 10.3693 4.92942 10.2589 4.92945 10.2314 4.93596 10.2043 4.94842 10.1797L9.49045 1.19277C9.52986 1.12173 9.60558 1.07857 9.68678 1.08088L14.1676 1.08088C14.2782 1.07666 14.3719 1.16149 14.3787 1.27194 14.3783 1.31023 14.3653 1.34733 14.3418 1.37749L9.00807 8.40851 14.2098 8.40851C14.3204 8.40429 14.4141 8.48911 14.4209 8.59957 14.4201 8.64801 14.4004 8.69422 14.366 8.72834L5.72214 17.7206C5.64086 17.7691 5.06347 18.2484 5.34636 17.5211L5.34636 17.5211Z" fill="url(#fill20)" transform="matrix(1 0 0 1.05263 1661 927)"/></g></g></g><g><g><g><path d="M1573.16 941.561 1572.5 942.214C1572.39 942.33 1572.2 942.331 1572.09 942.215L1567.25 937.391C1567.02 937.16 1567.02 936.785 1567.25 936.554L1567.9 935.898 1567.9 935.898 1573.16 941.14C1573.27 941.256 1573.27 941.444 1573.16 941.56Z" fill="#50E6FF"/><path d="M1572.4 931.783 1573.06 932.437C1573.18 932.552 1573.18 932.74 1573.06 932.856L1567.9 938.036 1567.9 938.036 1567.24 937.381C1567.01 937.151 1567.01 936.776 1567.24 936.544L1571.99 931.782C1572.1 931.668 1572.29 931.668 1572.4 931.783Z" fill="#1490DF"/><path d="M1586.1 935.902 1586.75 936.558C1586.98 936.789 1586.98 937.164 1586.75 937.395L1581.91 942.219C1581.8 942.334 1581.61 942.334 1581.5 942.218L1580.84 941.566C1580.73 941.45 1580.73 941.262 1580.85 941.146L1586.1 935.905 1586.1 935.905Z" fill="#50E6FF"/><path d="M1586.76 937.379 1586.1 938.032 1586.1 938.032 1580.94 932.853C1580.82 932.737 1580.82 932.549 1580.94 932.433L1581.59 931.78C1581.71 931.664 1581.9 931.664 1582.01 931.78L1586.76 936.542C1586.99 936.773 1586.99 937.148 1586.76 937.379Z" fill="#1490DF"/><path d="M1576.4 938 1572.41 938C1572.29 938.005 1572.2 937.915 1572.19 937.799 1572.19 937.77 1572.2 937.741 1572.21 937.716L1576.99 928.256C1577.03 928.181 1577.11 928.135 1577.2 928.138L1581.91 928.138C1582.03 928.133 1582.13 928.223 1582.14 928.339 1582.14 928.379 1582.12 928.418 1582.1 928.45L1576.48 935.851 1581.96 935.851C1582.07 935.847 1582.17 935.936 1582.18 936.052 1582.18 936.103 1582.16 936.152 1582.12 936.188L1573.02 945.653C1572.94 945.705 1572.33 946.209 1572.63 945.443L1572.63 945.443Z" fill="url(#fill21)"/></g></g></g><g clip-path="url(#clip22)"><g clip-path="url(#clip23)"><g clip-path="url(#clip24)"><path d="M2.56514 8.09049 3.46349 8.09049C3.62309 8.09049 3.75247 8.21987 3.75247 8.37947L3.75247 15.0337C3.75247 15.3523 3.49419 15.6106 3.17558 15.6106L2.27291 15.6106 2.27291 15.6106 2.27291 8.37839C2.27291 8.21879 2.40229 8.0894 2.5619 8.0894Z" fill="#50E6FF" transform="matrix(-0.724875 0.690579 -0.726927 -0.68863 1628.9 832.633)"/><path d="M2.51607 3.89586 3.41753 3.89586C3.57711 3.89586 3.70647 4.02522 3.70647 4.1848L3.70647 11.3088 3.70647 11.3088 2.80393 11.3088C2.48537 11.3088 2.22713 11.0506 2.22713 10.732L2.22713 4.18263C2.22832 4.0239 2.35734 3.89585 2.51607 3.89586Z" fill="#1490DF" transform="matrix(0.727032 0.688729 -0.72498 0.690679 1621.4 815.12)"/><path d="M15.7264 8.09049 16.628 8.09049C16.9466 8.09049 17.2049 8.34877 17.2049 8.66737L17.2049 15.3216C17.2049 15.4812 17.0755 15.6106 16.9159 15.6106L16.0186 15.6106C15.859 15.6106 15.7296 15.4812 15.7296 15.3216L15.7296 8.09049 15.7296 8.09049Z" fill="#50E6FF" transform="matrix(0.724875 0.690579 -0.726927 0.68863 1628.58 807.025)"/><path d="M16.3496 3.89586 17.2511 3.89586 17.2511 3.89586 17.2511 11.0199C17.2511 11.1794 17.1217 11.3088 16.9621 11.3088L16.0607 11.3088C15.9011 11.3088 15.7717 11.1794 15.7717 11.0199L15.7717 4.4705C15.7717 4.15194 16.03 3.89369 16.3485 3.89369Z" fill="#1490DF" transform="matrix(-0.727032 0.688729 -0.72498 -0.690679 1649.47 816.29)"/><path d="M8.9289 10.4499 5.14053 10.4499C5.02995 10.4542 4.93622 10.3693 4.92942 10.2589 4.92945 10.2314 4.93596 10.2043 4.94842 10.1797L9.49045 1.19277C9.52986 1.12173 9.60558 1.07857 9.68678 1.08088L14.1676 1.08088C14.2782 1.07666 14.3719 1.16149 14.3787 1.27194 14.3783 1.31023 14.3653 1.34733 14.3418 1.37749L9.00807 8.40851 14.2098 8.40851C14.3204 8.40429 14.4141 8.48911 14.4209 8.59957 14.4201 8.64801 14.4004 8.69422 14.366 8.72834L5.72214 17.7206C5.64086 17.7691 5.06347 18.2484 5.34636 17.5211L5.34636 17.5211Z" fill="url(#fill25)" transform="matrix(1.05263 0 0 1 1615 815)"/></g></g></g><rect x="2420.5" y="463.5" width="1102" height="533" stroke="#83CBEB" stroke-width="6.875" stroke-miterlimit="8" fill="url(#fill26)"/><text font-family="Aptos,Aptos_MSFontService,sans-serif" font-weight="400" font-size="50" transform="matrix(1 0 0 1 2511.4 716)">Connectivity Subscription (Hosting central </text><text font-family="Aptos,Aptos_MSFontService,sans-serif" font-weight="400" font-size="50" transform="matrix(1 0 0 1 2764.63 776)">private DNS zones)</text><g><g><g><path d="M79.0999 41.9416C83.8196 37.2302 83.8263 29.5847 79.1149 24.865 79.1099 24.86 79.1049 24.855 79.0999 24.85L79.0999 24.85 58.3332 4.02499C53.6513-0.678624 46.0428-0.696195 41.3392 3.98575 41.3261 3.9988 41.313 4.01188 41.2999 4.02499L41.2999 4.02499 20.5333 24.85C15.8713 29.5934 15.8713 37.1981 20.5333 41.9416L38.0333 59.4416C38.6524 60.086 39.0064 60.9398 39.0249 61.8332L39.0249 94.0332C39.0093 95.1221 39.4293 96.1721 40.1916 96.9499L48.0666 104.825C49.0522 105.888 50.7131 105.951 51.7762 104.965 51.8248 104.92 51.8716 104.873 51.9166 104.825L59.5582 97.1832 59.5582 97.1832 64.0499 92.6915C64.662 92.1197 64.6947 91.16 64.1229 90.5479 64.0994 90.5227 64.0751 90.4984 64.0499 90.4749L60.8416 87.2082C60.165 86.5639 60.1389 85.4931 60.7832 84.8165 60.8022 84.7966 60.8217 84.7772 60.8416 84.7582L64.0499 81.4915C64.662 80.9198 64.6947 79.96 64.1229 79.3479 64.0994 79.3227 64.0751 79.2984 64.0499 79.2749L60.6666 75.8332C60.0061 75.2188 59.9688 74.1853 60.5833 73.5248 60.61 73.4961 60.6378 73.4683 60.6666 73.4416L64.1666 69.9999C64.7787 69.4281 64.8114 68.4684 64.2396 67.8562 64.2161 67.8311 64.1917 67.8067 64.1666 67.7832L59.6749 63.2332 59.6749 61.5999ZM49.9333 9.04165C53.7347 9.07387 56.7902 12.1816 56.758 15.9831 56.7258 19.7845 53.618 22.84 49.8166 22.8078 46.038 22.7758 42.9917 19.7037 42.9916 15.925 42.9594 12.1558 45.9888 9.07412 49.758 9.0419 49.7775 9.04174 49.7971 9.04165 49.8166 9.04165Z" fill="url(#fill27)" transform="matrix(1 0 0 1 2917 512)"/><path d="M44.4499 94.5582 44.4499 94.5582C45.1378 94.9771 46.0351 94.759 46.454 94.0711 46.5895 93.8485 46.6629 93.5937 46.6666 93.3332L46.6666 67.3749C46.6713 66.8689 46.4326 66.3914 46.0249 66.0916L46.0249 66.0916C45.3584 65.6394 44.4515 65.8132 43.9994 66.4798 43.8209 66.743 43.7333 67.0573 43.7499 67.3749L43.7499 93.3332C43.7771 93.829 44.0365 94.283 44.4499 94.5582Z" fill="#FF9300" fill-opacity="0.75" transform="matrix(1 0 0 1 2917 512)"/><path d="M65.5082 31.7916C66.5392 31.7916 67.3749 32.6274 67.3749 33.6583L67.3749 33.9499C67.3749 34.9809 66.5392 35.8166 65.5082 35.8166L35.0583 35.8166C34.0273 35.8166 33.1916 34.9809 33.1916 33.9499L33.1916 33.6583C33.1916 32.6274 34.0273 31.7916 35.0583 31.7916Z" fill="#FF9300" fill-opacity="0.75" transform="matrix(1 0 0 1 2917 512)"/><path d="M65.5082 38.3249C66.5392 38.3249 67.3749 39.1607 67.3749 40.1916L67.3749 40.4833C67.3749 41.5142 66.5392 42.3499 65.5082 42.3499L35.0583 42.3499C34.0273 42.3499 33.1916 41.5142 33.1916 40.4833L33.1916 40.1916C33.1916 39.1607 34.0273 38.3249 35.0583 38.3249Z" fill="#FF9300" fill-opacity="0.75" transform="matrix(1 0 0 1 2917 512)"/></g></g></g><g><g><g><path d="M100.259 110.913C74.0737 131.215 36.3883 126.445 16.0866 100.259-4.21501 74.0737 0.554894 36.3883 26.7405 16.0866L27.3755 15.6633C53.9181-4.1493 91.4964 1.3064 111.309 27.849 130.788 53.945 125.883 90.8171 100.259 110.913" fill="url(#fill28)" transform="matrix(1.00787 0 0 1 2908 825)"/><path d="M63.4999 9.24277C33.5345 9.24277 9.24277 33.5345 9.24277 63.4999 9.24277 93.4653 33.5345 117.757 63.4999 117.757 93.4653 117.757 117.757 93.4653 117.757 63.4999 117.718 33.5506 93.4492 9.28164 63.4999 9.24277ZM99.836 27.5166C95.1051 30.1784 89.9866 32.0829 84.6666 33.1611 82.8254 26.3579 79.8433 19.9165 75.8471 14.1111 84.9231 16.2909 93.2231 20.9291 99.836 27.5166ZM63.4999 12.2767C66.0766 12.2749 68.649 12.4873 71.1905 12.9116L71.1905 12.9116C76.3509 19.0549 80.0428 26.2939 81.9855 34.0783 69.2737 36.4074 56.2445 36.4074 43.5327 34.0783 45.4701 26.4473 49.1128 19.3551 54.1866 13.335L54.1866 13.335C57.2527 12.7014 60.3699 12.3472 63.4999 12.2767ZM49.3888 14.1111C45.3442 19.8562 42.3135 26.2516 40.4283 33.02 35.6626 32.0525 31.1174 30.2105 27.0227 27.5872 33.2066 21.261 40.9061 16.6219 49.3888 14.1111ZM26.2466 98.7776C30.066 96.2303 34.3241 94.4122 38.8055 93.4154 40.5552 100.426 43.8049 106.974 48.3305 112.607 39.8989 109.98 32.2908 105.216 26.2466 98.7776ZM71.4727 114.3C68.8307 114.653 66.1645 114.795 63.4999 114.723 60.0853 114.731 56.6795 114.377 53.3399 113.665L53.3399 113.665C47.4343 107.908 43.339 100.551 41.5572 92.4982 55.2455 89.71 69.3554 89.71 83.0438 92.4982 81.2225 100.567 77.0772 107.926 71.1199 113.665ZM76.6232 113.171C81.2882 107.386 84.6134 100.639 86.3599 93.4154 91.3508 94.587 96.1171 96.565 100.471 99.2715 93.9385 105.934 85.6815 110.649 76.6232 112.889ZM87.0654 90.4521C87.6299 87.9121 88.1238 85.3016 88.4765 82.5499L85.231 83.326C84.8782 85.5132 84.5254 87.7004 84.0316 89.7466 69.8549 86.8537 55.24 86.8537 41.0633 89.7466 40.5694 87.8416 40.2166 85.7954 39.8638 83.6788 39.8296 83.4685 39.8296 83.2541 39.8638 83.0438L36.6183 82.1266C36.5792 82.7845 36.5792 83.4442 36.6183 84.1021 36.6183 86.3599 37.3944 88.4765 37.8177 90.5227 32.7833 91.6308 27.9984 93.6643 23.7066 96.5199 7.62615 77.2277 7.95521 49.1083 24.4827 30.1977 28.97 33.0862 33.9414 35.1417 39.1583 36.2655 38.6644 37.9588 38.2411 39.7933 37.8883 41.6277 37.5355 43.4622 37.8883 43.3916 37.3238 44.2383L40.6399 43.4622 40.6399 42.2627C41.0633 40.4283 41.4866 38.6644 41.9805 36.9711 49.0765 38.2729 56.2877 38.8403 63.4999 38.6644 70.0809 38.6641 76.6475 38.0499 83.1143 36.8299 83.6082 38.7349 84.1021 40.7811 84.5254 42.8272L87.771 43.6033C87.2536 41.0633 86.6891 38.7114 86.0777 36.5477 91.7965 35.2925 97.2759 33.1245 102.305 30.1272 119.155 49.2059 119.336 77.7941 102.729 97.0843 97.9266 93.9442 92.6321 91.6309 87.0654 90.2404Z" fill="#5EA0EF" transform="matrix(1.00787 0 0 1 2908 825)"/><path d="M26.035 49.3888C28.7456 49.0004 31.4811 48.8117 34.2194 48.8244 38.5603 48.4774 42.8715 49.7884 46.2844 52.4933 49.0222 55.2132 50.5266 58.9359 50.4472 62.7944 50.6656 67.0793 49.1087 71.2648 46.1433 74.3655 42.4965 77.4549 37.788 78.9991 33.02 78.6693 30.6634 78.6803 28.3081 78.5626 25.9644 78.3166ZM29.9155 75.706C31.2075 75.795 32.5041 75.795 33.7961 75.706 40.0685 76.4169 45.7296 71.9083 46.4405 65.6359 46.5422 64.7383 46.5372 63.8318 46.4255 62.9355 46.9541 57.1144 42.6637 51.967 36.8427 51.4384 36.0155 51.3633 35.1824 51.3858 34.3605 51.5055 32.8825 51.3579 31.3935 51.3579 29.9155 51.5055Z" fill="#FFFFFF" transform="matrix(1.00787 0 0 1 2908 825)"/><path d="M55.4566 78.3871 55.4566 48.6833 59.6194 48.6833 69.1444 63.4999C71.1373 66.6035 72.9285 69.8323 74.5066 73.166L74.5066 73.166C74.1538 69.2149 74.0832 65.6166 74.0832 60.9599L74.0832 48.6833 77.611 48.6833 77.611 78.3871 73.7305 78.3871 64.4171 63.4999C62.371 60.1838 60.3955 56.4444 58.8433 53.6222L58.8433 53.6222C58.8433 57.3616 58.8433 60.6777 58.8433 65.8988L58.8433 78.5988Z" fill="#FFFFFF" transform="matrix(1.00787 0 0 1 2908 825)"/><path d="M83.8904 73.7305C86.0342 74.974 88.4677 75.6311 90.946 75.6355 94.8971 75.6355 97.1549 73.5893 97.1549 70.5555 97.1549 67.5216 95.6027 66.181 91.581 64.6994 87.5593 63.2177 83.6788 60.466 83.6788 56.2327 83.9534 51.4867 88.0235 47.862 92.7695 48.1367 92.9618 48.1478 93.1537 48.1654 93.3449 48.1894 95.6137 48.1252 97.8646 48.6092 99.9065 49.6005L98.7776 52.7755C97.0482 51.8291 95.1045 51.3432 93.1332 51.3644 89.041 51.3644 87.4888 53.7633 87.4888 55.8094 87.4888 57.8555 89.3232 59.9721 93.4154 61.5244 97.5076 63.0766 101.035 65.8988 101.035 70.2732 101.035 74.6477 97.6488 78.8105 90.5932 78.8105 87.9542 78.8398 85.3529 78.1834 83.0438 76.9054Z" fill="#FFFFFF" transform="matrix(1.00787 0 0 1 2908 825)"/></g></g></g><rect x="497.5" y="1388.5" width="1102" height="533" stroke="#83CBEB" stroke-width="6.875" stroke-miterlimit="8" fill="url(#fill29)"/><text font-family="Aptos,Aptos_MSFontService,sans-serif" font-weight="400" font-size="50" transform="matrix(1 0 0 1 753.548 1671)">Application Landing Zone X</text><g><g><g><path d="M78.3468 41.5423C83.0216 36.8757 83.0283 29.3031 78.3617 24.6283 78.3567 24.6233 78.3518 24.6183 78.3468 24.6134L78.3468 24.6134 57.7779 3.98667C53.1405-0.672163 45.6044-0.689567 40.9456 3.9478 40.9326 3.96073 40.9197 3.97369 40.9067 3.98667L40.9067 3.98667 20.3378 24.6134C15.7202 29.3117 15.7202 36.844 20.3378 41.5423L37.6712 58.8756C38.2844 59.5139 38.6351 60.3596 38.6534 61.2445L38.6534 93.1379C38.6379 94.2165 39.0539 95.2565 39.8089 96.0268L47.609 103.827C48.5852 104.88 50.2303 104.942 51.2833 103.966 51.3314 103.921 51.3777 103.875 51.4223 103.827L58.9912 96.2579 58.9912 96.2579 63.4401 91.809C64.0464 91.2427 64.0788 90.2921 63.5124 89.6858 63.4891 89.6609 63.465 89.6368 63.4401 89.6135L60.2623 86.3779C59.5922 85.7397 59.5663 84.6791 60.2045 84.009 60.2233 83.9893 60.2426 83.97 60.2623 83.9512L63.4401 80.7157C64.0464 80.1493 64.0788 79.1987 63.5124 78.5924 63.4891 78.5675 63.465 78.5434 63.4401 78.5201L60.089 75.1112C59.4348 74.5026 59.3979 73.479 60.0065 72.8248 60.033 72.7963 60.0605 72.7688 60.089 72.7423L63.5557 69.3334C64.1619 68.7671 64.1943 67.8165 63.628 67.2102 63.6047 67.1853 63.5806 67.1612 63.5557 67.1379L59.1068 62.6312 59.1068 61.0134ZM49.4579 8.95557C53.2231 8.98748 56.2495 12.0657 56.2176 15.8309 56.1857 19.5961 53.1075 22.6226 49.3423 22.5907 45.5997 22.5589 42.5824 19.5161 42.5823 15.7734 42.5504 12.04 45.551 8.98773 49.2843 8.95582 49.3036 8.95565 49.323 8.95557 49.3423 8.95557Z" fill="url(#fill30)" transform="matrix(1.00961 0 0 1 994 1437)"/><path d="M44.0267 93.6579 44.0267 93.6579C44.7081 94.0728 45.5968 93.8568 46.0117 93.1755 46.1459 92.955 46.2187 92.7027 46.2223 92.4446L46.2223 66.7334C46.2269 66.2322 45.9905 65.7593 45.5867 65.4623L45.5867 65.4623C44.9266 65.0145 44.0283 65.1866 43.5805 65.8468 43.4037 66.1075 43.3169 66.4189 43.3334 66.7334L43.3334 92.4446C43.3603 92.9357 43.6173 93.3854 44.0267 93.6579Z" fill="#FF9300" fill-opacity="0.75" transform="matrix(1.00961 0 0 1 994 1437)"/><path d="M64.8845 31.4889C65.9057 31.4889 66.7334 32.3167 66.7334 33.3378L66.7334 33.6267C66.7334 34.6478 65.9057 35.4756 64.8845 35.4756L34.7245 35.4756C33.7034 35.4756 32.8756 34.6478 32.8756 33.6267L32.8756 33.3378C32.8756 32.3167 33.7034 31.4889 34.7245 31.4889Z" fill="#FF9300" fill-opacity="0.75" transform="matrix(1.00961 0 0 1 994 1437)"/><path d="M64.8845 37.9601C65.9057 37.9601 66.7334 38.7878 66.7334 39.809L66.7334 40.0978C66.7334 41.119 65.9057 41.9467 64.8845 41.9467L34.7245 41.9467C33.7034 41.9467 32.8756 41.119 32.8756 40.0978L32.8756 39.809C32.8756 38.7878 33.7034 37.9601 34.7245 37.9601Z" fill="#FF9300" fill-opacity="0.75" transform="matrix(1.00961 0 0 1 994 1437)"/></g></g></g><g clip-path="url(#clip31)"><g clip-path="url(#clip32)"><g clip-path="url(#clip33)"><path d="M136.397 93.2673C126.685 120.283 101.063 138.298 72.355 138.298 66.0029 138.324 59.6805 137.429 53.5856 135.639 54.5122 133.531 55.0053 131.257 55.0356 128.953 55.1161 128.953 55.2772 129.034 55.3578 129.034 60.8778 130.653 66.6025 131.467 72.355 131.451 95.8134 131.404 117.209 118.036 127.536 96.9728L127.616 96.8923Z" fill="#32BEDD" transform="matrix(1 0 0 1.00689 974 1731)"/><path d="M28.855 113.326C26.8366 114.447 25.0793 115.985 23.6995 117.837 18.1141 112.111 13.5626 105.461 10.2467 98.1812L18.6245 100.034 18.6245 102.128C18.6083 104.407 20.1859 106.387 22.4106 106.881L23.5383 107.123C25.0474 109.21 26.7173 111.176 28.5328 113.003Z" fill="#32BEDD" transform="matrix(1 0 0 1.00689 974 1731)"/><path d="M99.5023 7.71723C98.3729 9.73586 97.6349 11.9497 97.3273 14.2422 97.1662 14.1617 96.9245 14.0811 96.7634 14.0006 89.0701 10.6256 80.756 8.89696 72.355 8.92556 53.9361 8.95635 36.4984 17.2319 24.8272 31.4811L22.4911 31.9645C20.2639 32.4189 18.6543 34.3638 18.6245 36.6367L18.6245 40.3422 10.4078 41.8728C21.5122 17.6583 45.7158 2.14156 72.355 2.15889 81.6861 2.16452 90.9199 4.05512 99.5023 7.71723Z" fill="#32BEDD" transform="matrix(1 0 0 1.00689 974 1731)"/><path d="M135.913 45.9167 127.133 42.8556C125.528 39.5486 123.584 36.4171 121.333 33.5111 121.172 33.2695 121.011 33.1083 120.93 32.9472 123.092 32.1499 125.066 30.916 126.73 29.3222 130.612 34.3579 133.708 39.9529 135.913 45.9167Z" fill="#32BEDD" transform="matrix(1 0 0 1.00689 974 1731)"/><path d="M81.1356 95.9256 101.597 100.437 69.8578 113.583C69.6967 113.583 69.6161 113.664 69.455 113.664 68.7948 113.647 68.2636 113.116 68.2467 112.456L68.2467 27.7756C68.2636 27.1154 68.7948 26.5842 69.455 26.5672 69.5942 26.5547 69.7341 26.5827 69.8578 26.6478L105.786 39.2145 81.2161 43.8061C79.1751 44.2688 77.7125 46.0637 77.6717 48.1561L77.6717 91.6562C77.6572 93.7244 79.1088 95.5135 81.1356 95.9256Z" fill="#FFFFFF" transform="matrix(1 0 0 1.00689 974 1731)"/><path d="M8.86112 45.6589 18.6083 43.8061 18.6083 96.57 8.7 94.395 0.725 92.6228C0.269239 92.5373-0.0455461 92.1176 2.88089e-08 91.6562L6.7076e-16 48.1561C-0.0143072 47.704 0.286907 47.3023 0.725 47.1895Z" fill="#A67AF4" transform="matrix(1 0 0 1.00689 974 1731)"/><path d="M81.1356 95.9256 101.597 100.437 69.8578 113.583C69.6967 113.583 69.6161 113.664 69.455 113.664 68.7948 113.647 68.2636 113.116 68.2467 112.456L68.2467 27.7756C68.2636 27.1154 68.7948 26.5842 69.455 26.5672 69.5942 26.5547 69.7341 26.5827 69.8578 26.6478L105.786 39.2145 81.2161 43.8061C79.1751 44.2688 77.7125 46.0637 77.6717 48.1561L77.6717 91.6562C77.6572 93.7244 79.1088 95.5135 81.1356 95.9256Z" fill="url(#fill34)" transform="matrix(1 0 0 1.00689 974 1731)"/><path d="M69.165 26.5833 23.1839 35.2672C22.5205 35.409 22.0488 35.9986 22.0561 36.677L22.0561 102.144C22.0502 102.813 22.5089 103.395 23.1597 103.546L69.1248 113.583C69.893 113.735 70.6385 113.235 70.7897 112.466 70.8082 112.373 70.8171 112.277 70.8164 112.182L70.8164 28.0172C70.8299 27.2388 70.2097 26.5968 69.4313 26.5834 69.4311 26.5834 69.431 26.5833 69.4309 26.5833Z" fill="url(#fill35)" transform="matrix(1 0 0 1.00689 974 1731)"/><path d="M47.9145 39.6414 47.9145 100.558 63.9128 103.224 63.9128 36.7656 47.9145 39.6414Z" fill="#B796F9" fill-opacity="0.5" transform="matrix(1 0 0 1.00689 974 1731)"/><path d="M28.267 42.9281 28.267 96.2962 42.195 99.2203 42.195 40.5275 28.267 42.9281Z" fill="#B796F9" fill-opacity="0.5" transform="matrix(1 0 0 1.00689 974 1731)"/><path d="M128.889 16.4978C128.867 24.3057 122.519 30.6172 114.711 30.5949 106.903 30.5726 100.592 24.225 100.614 16.4171 100.636 8.6407 106.935 2.34219 114.711 2.32 122.524 2.30219 128.871 8.62091 128.889 16.4333 128.889 16.4548 128.889 16.4763 128.889 16.4978Z" fill="#32BEDD" transform="matrix(1 0 0 1.00689 974 1731)"/><path d="M51.6281 128.671C51.6281 136.497 45.2841 142.841 37.4584 142.841 29.6326 142.841 23.2886 136.497 23.2886 128.671 23.2886 120.846 29.6326 114.502 37.4584 114.502 45.2841 114.502 51.6281 120.846 51.6281 128.671Z" fill="#32BEDD" transform="matrix(1 0 0 1.00689 974 1731)"/><path d="M145 53.8836 145 84.8492C144.989 85.5497 144.571 86.1795 143.929 86.4603L137.758 89.0059 113.028 99.2203 112.939 99.2203C112.837 99.2358 112.734 99.2358 112.633 99.2203 112.188 99.2203 111.827 98.8597 111.827 98.4148L111.827 42.1628C111.83 41.8641 111.997 41.5913 112.262 41.4539L112.262 41.4539 112.415 41.4539C112.465 41.4379 112.519 41.4379 112.568 41.4539 112.664 41.4451 112.76 41.4677 112.842 41.5183L112.931 41.5183 113.028 41.5183 137.347 49.9445 143.792 52.2161C144.52 52.4416 145.013 53.121 145 53.8836Z" fill="#773ADC" transform="matrix(1 0 0 1.00689 974 1731)"/><path d="M112.448 41.4056 81.8364 47.1653C81.3942 47.2611 81.0808 47.6554 81.0873 48.1078L81.0873 91.6803C81.083 92.1249 81.3875 92.513 81.8203 92.6148L112.431 99.3089C112.932 99.4166 113.424 99.0985 113.532 98.5983 113.533 98.5935 113.534 98.5887 113.535 98.5839 113.543 98.5144 113.543 98.4441 113.535 98.3745L113.535 42.34C113.54 41.8226 113.126 41.3983 112.609 41.3895 112.555 41.3882 112.5 41.3936 112.448 41.4056Z" fill="#A67AF4" transform="matrix(1 0 0 1.00689 974 1731)"/></g></g></g><rect x="1661.5" y="1388.5" width="1102" height="533" stroke="#83CBEB" stroke-width="6.875" stroke-miterlimit="8" fill="url(#fill36)"/><text font-family="Aptos,Aptos_MSFontService,sans-serif" font-weight="400" font-size="50" transform="matrix(1 0 0 1 1917.71 1671)">Application Landing Zone X</text><g><g><g><path d="M78.3468 41.5423C83.0216 36.8757 83.0283 29.3031 78.3617 24.6283 78.3567 24.6233 78.3518 24.6183 78.3468 24.6134L78.3468 24.6134 57.7779 3.98667C53.1405-0.672163 45.6044-0.689567 40.9456 3.9478 40.9326 3.96073 40.9197 3.97369 40.9067 3.98667L40.9067 3.98667 20.3378 24.6134C15.7202 29.3117 15.7202 36.844 20.3378 41.5423L37.6712 58.8756C38.2844 59.5139 38.6351 60.3596 38.6534 61.2445L38.6534 93.1379C38.6379 94.2165 39.0539 95.2565 39.8089 96.0268L47.609 103.827C48.5852 104.88 50.2303 104.942 51.2833 103.966 51.3314 103.921 51.3777 103.875 51.4223 103.827L58.9912 96.2579 58.9912 96.2579 63.4401 91.809C64.0464 91.2427 64.0788 90.2921 63.5124 89.6858 63.4891 89.6609 63.465 89.6368 63.4401 89.6135L60.2623 86.3779C59.5922 85.7397 59.5663 84.6791 60.2045 84.009 60.2233 83.9893 60.2426 83.97 60.2623 83.9512L63.4401 80.7157C64.0464 80.1493 64.0788 79.1987 63.5124 78.5924 63.4891 78.5675 63.465 78.5434 63.4401 78.5201L60.089 75.1112C59.4348 74.5026 59.3979 73.479 60.0065 72.8248 60.033 72.7963 60.0605 72.7688 60.089 72.7423L63.5557 69.3334C64.1619 68.7671 64.1943 67.8165 63.628 67.2102 63.6047 67.1853 63.5806 67.1612 63.5557 67.1379L59.1068 62.6312 59.1068 61.0134ZM49.4579 8.95557C53.2231 8.98748 56.2495 12.0657 56.2176 15.8309 56.1857 19.5961 53.1075 22.6226 49.3423 22.5907 45.5997 22.5589 42.5824 19.5161 42.5823 15.7734 42.5504 12.04 45.551 8.98773 49.2843 8.95582 49.3036 8.95565 49.323 8.95557 49.3423 8.95557Z" fill="url(#fill37)" transform="matrix(1.00961 0 0 1 2158 1437)"/><path d="M44.0267 93.6579 44.0267 93.6579C44.7081 94.0728 45.5968 93.8568 46.0117 93.1755 46.1459 92.955 46.2187 92.7027 46.2223 92.4446L46.2223 66.7334C46.2269 66.2322 45.9905 65.7593 45.5867 65.4623L45.5867 65.4623C44.9266 65.0145 44.0283 65.1866 43.5805 65.8468 43.4037 66.1075 43.3169 66.4189 43.3334 66.7334L43.3334 92.4446C43.3603 92.9357 43.6173 93.3854 44.0267 93.6579Z" fill="#FF9300" fill-opacity="0.75" transform="matrix(1.00961 0 0 1 2158 1437)"/><path d="M64.8845 31.4889C65.9057 31.4889 66.7334 32.3167 66.7334 33.3378L66.7334 33.6267C66.7334 34.6478 65.9057 35.4756 64.8845 35.4756L34.7245 35.4756C33.7034 35.4756 32.8756 34.6478 32.8756 33.6267L32.8756 33.3378C32.8756 32.3167 33.7034 31.4889 34.7245 31.4889Z" fill="#FF9300" fill-opacity="0.75" transform="matrix(1.00961 0 0 1 2158 1437)"/><path d="M64.8845 37.9601C65.9057 37.9601 66.7334 38.7878 66.7334 39.809L66.7334 40.0978C66.7334 41.119 65.9057 41.9467 64.8845 41.9467L34.7245 41.9467C33.7034 41.9467 32.8756 41.119 32.8756 40.0978L32.8756 39.809C32.8756 38.7878 33.7034 37.9601 34.7245 37.9601Z" fill="#FF9300" fill-opacity="0.75" transform="matrix(1.00961 0 0 1 2158 1437)"/></g></g></g><g><g><g><path d="M2253.26 1858.51C2223.16 1881.85 2179.83 1876.36 2156.49 1846.26 2133.15 1816.16 2138.64 1772.83 2168.74 1749.49L2169.47 1749.01C2199.98 1726.23 2243.19 1732.5 2265.96 1763.02 2288.36 1793.02 2282.72 1835.4 2253.26 1858.51" fill="url(#fill38)"/><path d="M2192.26 1789.64C2211.76 1771.1 2237.62 1760.71 2264.53 1760.61 2261 1756.23 2256.94 1752.31 2252.45 1748.93 2239.35 1749.73 2226.49 1752.75 2214.41 1757.85 2201.96 1763.19 2190.71 1770.97 2181.31 1780.72 2185.83 1782.44 2189.67 1785.57 2192.26 1789.64Z" fill="#FFFFFF" fill-opacity="0.6"/><path d="M2158.12 1817.38C2155.33 1824.28 2153.08 1831.39 2151.38 1838.63 2152.88 1841.24 2154.56 1843.73 2156.41 1846.1 2157.87 1847.96 2159.25 1849.67 2160.87 1851.37 2162.83 1841.71 2165.77 1832.28 2169.63 1823.22 2165.3 1822.45 2161.3 1820.42 2158.12 1817.38Z" fill="#FFFFFF" fill-opacity="0.6"/><path d="M2166.06 1780.56C2163.2 1772.88 2161.32 1764.87 2160.47 1756.71 2157.06 1760.29 2154.07 1764.23 2151.55 1768.47 2152.46 1775.04 2154.01 1781.51 2156.17 1787.78 2158.71 1784.48 2162.14 1781.97 2166.06 1780.56Z" fill="#F2F2F2" fill-opacity="0.55"/><path d="M2195.67 1801.4C2195.67 1813.63 2185.76 1823.55 2173.53 1823.55 2161.3 1823.55 2151.38 1813.63 2151.38 1801.4 2151.38 1789.18 2161.3 1779.26 2173.53 1779.26 2185.76 1779.26 2195.67 1789.18 2195.67 1801.4Z" fill="url(#fill39)"/><path d="M2205.81 1841.88C2205.82 1837.99 2207.4 1834.28 2210.19 1831.58 2202.71 1827.48 2195.81 1822.41 2189.67 1816.49 2186.46 1819.96 2182.22 1822.32 2177.58 1823.22 2181.24 1826.97 2185.17 1830.44 2189.34 1833.61 2194.54 1837.53 2200.11 1840.92 2205.97 1843.74 2205.88 1843.13 2205.82 1842.5 2205.81 1841.88Z" fill="#F2F2F2" fill-opacity="0.55"/><path d="M2256.91 1843.58C2249.37 1843.59 2241.86 1842.72 2234.52 1840.99 2234.56 1841.28 2234.56 1841.58 2234.52 1841.88 2234.53 1845.65 2233.05 1849.27 2230.39 1851.94 2239.51 1853.75 2248.83 1854.4 2258.13 1853.88 2261.73 1850.62 2264.97 1846.98 2267.78 1843.01 2264.17 1843.42 2260.54 1843.6 2256.91 1843.58Z" fill="#F2F2F2" fill-opacity="0.55"/><path d="M2234.6 1841.88C2234.6 1849.85 2228.14 1856.32 2220.17 1856.32 2212.19 1856.32 2205.73 1849.85 2205.73 1841.88 2205.73 1833.91 2212.19 1827.44 2220.17 1827.44 2228.14 1827.44 2234.6 1833.91 2234.6 1841.88Z" fill="url(#fill40)"/><path d="M2237.93 1803.43C2238.65 1800.26 2240.38 1797.41 2242.88 1795.32 2229.52 1785.61 2217.38 1774.34 2206.7 1761.74 2200.48 1754.44 2195.04 1746.5 2190.48 1738.06 2187.45 1738.97 2184.49 1740.1 2181.64 1741.46 2186.52 1750.65 2192.37 1759.3 2199.08 1767.26 2210.48 1780.88 2223.53 1793.03 2237.93 1803.43Z" fill="#F2F2F2" fill-opacity="0.7"/><path d="M2268.35 1806.19C2268.35 1814.66 2261.48 1821.52 2253.02 1821.52 2244.55 1821.52 2237.69 1814.66 2237.69 1806.19 2237.69 1797.72 2244.55 1790.86 2253.02 1790.86 2261.48 1790.86 2268.35 1797.72 2268.35 1806.19Z" fill="url(#fill41)"/><path d="M2278.73 1816.49 2275.89 1815.11 2275.89 1815.11 2273.46 1813.81 2272.97 1813.81 2270.86 1812.11 2270.29 1812.11 2267.78 1810.49C2266.91 1813.48 2265.08 1816.1 2262.59 1817.95 2263.56 1818.6 2264.61 1819.17 2265.67 1819.74L2266.32 1820.14 2269.16 1821.68 2269.16 1821.68 2276.13 1825.33 2276.13 1825.33C2277.12 1822.39 2277.9 1819.38 2278.48 1816.33Z" fill="#F2F2F2" fill-opacity="0.55"/><path d="M2195.67 1801.4C2195.67 1813.63 2185.76 1823.55 2173.53 1823.55 2161.3 1823.55 2151.38 1813.63 2151.38 1801.4 2151.38 1789.18 2161.3 1779.26 2173.53 1779.26 2185.76 1779.26 2195.67 1789.18 2195.67 1801.4Z" fill="url(#fill42)"/><path d="M2234.6 1841.88C2234.6 1849.85 2228.14 1856.32 2220.17 1856.32 2212.19 1856.32 2205.73 1849.85 2205.73 1841.88 2205.73 1833.91 2212.19 1827.44 2220.17 1827.44 2228.14 1827.44 2234.6 1833.91 2234.6 1841.88Z" fill="url(#fill43)"/></g></g></g><path d="M1.92611-2.84719 19.0093 8.70946 15.157 14.4039-1.92611 2.84719ZM24.7037 12.5617 41.7868 24.1183 37.9346 29.8127 20.8514 18.2561ZM47.4812 27.9706 64.5644 39.5272 60.7121 45.2216 43.629 33.6649ZM70.2587 43.3794 87.3419 54.9361 83.4897 60.6305 66.4065 49.0738ZM93.0363 58.7883 110.119 70.345 106.267 76.0394 89.1841 64.4827ZM115.814 74.1972 132.897 85.7539 129.045 91.4482 111.962 79.8916ZM138.591 89.6061 155.675 101.163 151.822 106.857 134.739 95.3005ZM161.369 105.015 178.452 116.572 174.6 122.266 157.517 110.709ZM184.146 120.424 201.23 131.98 197.377 137.675 180.294 126.118ZM206.924 135.833 224.007 147.389 220.155 153.084 203.072 141.527ZM229.702 151.242 246.785 162.798 242.932 168.493 225.849 156.936ZM252.479 166.65 269.562 178.207 265.71 183.901 248.627 172.345ZM275.257 182.059 292.34 193.616 288.488 199.31 271.404 187.754ZM298.034 197.468 315.117 209.025 311.265 214.719 294.182 203.163ZM320.812 212.877 337.895 224.434 334.043 230.128 316.96 218.571ZM343.589 228.286 360.672 239.843 356.82 245.537 339.737 233.98ZM366.367 243.695 383.45 255.251 379.598 260.946 362.515 249.389ZM389.144 259.104 406.228 270.66 402.375 276.355 385.292 264.798ZM411.922 274.513 429.005 286.069 425.153 291.764 408.07 280.207ZM434.699 289.921 451.783 301.478 447.93 307.172 430.847 295.616ZM457.477 305.33 474.56 316.887 470.708 322.581 453.625 311.025ZM480.255 320.739 497.338 332.296 493.485 337.99 476.402 326.434ZM503.032 336.148 520.115 347.705 516.263 353.399 499.18 341.842ZM525.81 351.557 542.893 363.114 539.041 368.808 521.957 357.251ZM548.587 366.966 562.342 376.271 558.49 381.965 544.735 372.66ZM564.326 365.162 579.399 391.96 548.917 387.94Z" fill="#E59EDD" transform="matrix(1 0 0 -1 1048.5 1388.46)"/><path d="M2210.35 1391.32 2193.22 1379.83 2197.05 1374.12 2214.18 1385.6ZM2187.51 1376 2170.38 1364.52 2174.21 1358.81 2191.34 1370.29ZM2164.67 1360.69 2147.54 1349.21 2151.36 1343.5 2168.5 1354.98ZM2141.82 1345.38 2124.69 1333.9 2128.52 1328.19 2145.65 1339.67ZM2118.98 1330.07 2101.85 1318.59 2105.68 1312.88 2122.81 1324.36ZM2096.14 1314.76 2079.01 1303.27 2082.83 1297.56 2099.97 1309.05ZM2073.29 1299.45 2056.16 1287.96 2059.99 1282.25 2077.12 1293.74ZM2050.45 1284.14 2033.32 1272.65 2037.15 1266.94 2054.28 1278.42ZM2027.61 1268.82 2010.48 1257.34 2014.3 1251.63 2031.44 1263.11ZM2004.77 1253.51 1987.63 1242.03 1991.46 1236.32 2008.59 1247.8ZM1981.92 1238.2 1964.79 1226.72 1968.62 1221.01 1985.75 1232.49ZM1959.08 1222.89 1941.95 1211.41 1945.77 1205.7 1962.91 1217.18ZM1936.24 1207.58 1919.1 1196.09 1922.93 1190.38 1940.06 1201.87ZM1913.39 1192.27 1896.26 1180.78 1900.09 1175.07 1917.22 1186.56ZM1890.55 1176.96 1873.42 1165.47 1877.24 1159.76 1894.38 1171.24ZM1867.71 1161.64 1850.57 1150.16 1854.4 1144.45 1871.53 1155.93ZM1844.86 1146.33 1827.73 1134.85 1831.56 1129.14 1848.69 1140.62ZM1822.02 1131.02 1804.89 1119.54 1808.72 1113.83 1825.85 1125.31ZM1799.18 1115.71 1782.04 1104.23 1785.87 1098.52 1803 1110ZM1776.33 1100.4 1759.2 1088.92 1763.03 1083.2 1780.16 1094.69ZM1753.49 1085.09 1736.36 1073.6 1740.19 1067.89 1757.32 1079.38ZM1730.65 1069.78 1713.51 1058.29 1717.34 1052.58 1734.47 1064.07ZM1707.8 1054.46 1690.67 1042.98 1694.5 1037.27 1711.63 1048.75ZM1684.96 1039.15 1667.83 1027.67 1671.66 1021.96 1688.79 1033.44ZM1662.12 1023.84 1644.99 1012.36 1648.81 1006.65 1665.95 1018.13ZM1642.69 1023.23 1627.5 996.5 1658 1000.39Z" fill="#E59EDD"/><text font-family="Aptos,Aptos_MSFontService,sans-serif" font-weight="400" font-size="37" transform="matrix(1 0 0 1 1365.27 1233)">Private Endpoint Creation Events</text><g><g><g><path d="M3.59221 4.81221 7.96387 4.81221 7.96387 4.81221 7.96387 16.9444C7.96387 17.4872 7.52386 17.9272 6.98109 17.9272L2.60944 17.9272C2.06667 17.9272 1.62666 17.4872 1.62666 16.9444L1.62666 6.77776C1.60778 5.7111 2.45717 4.83109 3.52383 4.81221 3.54662 4.81181 3.56942 4.81181 3.59221 4.81221Z" fill="#A3A3A3" transform="matrix(1.01639 0 0 1 1587 1255)"/><path d="M3.59221 4.81221 7.96387 4.81221 7.96387 4.81221 7.96387 16.9444C7.96387 17.4872 7.52386 17.9272 6.98109 17.9272L2.60944 17.9272C2.06667 17.9272 1.62666 17.4872 1.62666 16.9444L1.62666 6.77776C1.60778 5.7111 2.45717 4.83109 3.52383 4.81221 3.54662 4.81181 3.56942 4.81181 3.59221 4.81221Z" fill="#A3A3A3" fill-opacity="0.5" transform="matrix(1.01639 0 0 1 1587 1255)"/><path d="M53.036 4.81221 57.4076 4.81221C58.4745 4.81221 59.3393 5.67704 59.3393 6.74387L59.3393 16.9444C59.3393 17.4872 58.8993 17.9272 58.3565 17.9272L54.0187 17.9272C53.476 17.9272 53.036 17.4872 53.036 16.9444L53.036 4.81221 53.036 4.81221Z" fill="#A3A3A3" transform="matrix(1.01639 0 0 1 1587 1255)"/><path d="M53.036 4.81221 57.4076 4.81221C58.4745 4.81221 59.3393 5.67704 59.3393 6.74387L59.3393 16.9444C59.3393 17.4872 58.8993 17.9272 58.3565 17.9272L54.0187 17.9272C53.476 17.9272 53.036 17.4872 53.036 16.9444L53.036 4.81221 53.036 4.81221Z" fill="#A3A3A3" fill-opacity="0.5" transform="matrix(1.01639 0 0 1 1587 1255)"/><path d="M29.3477-20.9772 33.5838-20.9772 33.5838-20.9772 33.5838 36.6338 33.5838 36.6338 29.3477 36.6338C28.2809 36.6338 27.416 35.769 27.416 34.7021L27.416-19.0455C27.416-20.1123 28.2809-20.9772 29.3477-20.9772Z" fill="#949494" transform="matrix(6.22362e-17 1 -1.01639 6.12323e-17 1625.99 1232.36)"/><path d="M2.60944 43.0049 6.98109 43.0049C7.52386 43.0049 7.96387 43.4449 7.96387 43.9877L7.96387 56.2215 7.96387 56.2215 3.59221 56.2215C2.52556 56.2409 1.64516 55.3919 1.62578 54.3253 1.62516 54.2909 1.62545 54.2565 1.62666 54.2221L1.62666 44.0554C1.58923 43.514 1.99784 43.0447 2.53932 43.0072 2.56266 43.0056 2.58604 43.0048 2.60944 43.0049Z" fill="#A3A3A3" transform="matrix(1.01639 0 0 1 1587 1255)"/><path d="M2.60944 43.0049 6.98109 43.0049C7.52386 43.0049 7.96387 43.4449 7.96387 43.9877L7.96387 56.2215 7.96387 56.2215 3.59221 56.2215C2.52556 56.2409 1.64516 55.3919 1.62578 54.3253 1.62516 54.2909 1.62545 54.2565 1.62666 54.2221L1.62666 44.0554C1.58923 43.514 1.99784 43.0447 2.53932 43.0072 2.56266 43.0056 2.58604 43.0048 2.60944 43.0049Z" fill="#A3A3A3" fill-opacity="0.5" transform="matrix(1.01639 0 0 1 1587 1255)"/><path d="M54.0187 43.0049 58.3904 43.0049C58.9332 43.0049 59.3732 43.4449 59.3732 43.9877L59.3732 54.1543C59.3732 55.2211 58.5083 56.086 57.4415 56.086L53.036 56.086 53.036 56.086 53.036 44.0554C52.9985 43.514 53.4071 43.0447 53.9486 43.0072 53.972 43.0056 53.9953 43.0048 54.0187 43.0049Z" fill="#A3A3A3" transform="matrix(1.01639 0 0 1 1587 1255)"/><path d="M54.0187 43.0049 58.3904 43.0049C58.9332 43.0049 59.3732 43.4449 59.3732 43.9877L59.3732 54.1543C59.3732 55.2211 58.5083 56.086 57.4415 56.086L53.036 56.086 53.036 56.086 53.036 44.0554C52.9985 43.514 53.4071 43.0447 53.9486 43.0072 53.972 43.0056 53.9953 43.0048 54.0187 43.0049Z" fill="#A3A3A3" fill-opacity="0.5" transform="matrix(1.01639 0 0 1 1587 1255)"/><path d="M29.3477 24.2644 33.5838 24.2644 33.5838 24.2644 33.5838 81.8753 33.5838 81.8753 29.3477 81.8753C28.2809 81.8753 27.416 81.0105 27.416 79.9437L27.416 26.196C27.416 25.1292 28.2809 24.2644 29.3477 24.2644Z" fill="#949494" transform="matrix(6.22362e-17 -1 1.01639 6.12323e-17 1563.99 1338.64)"/><path d="M50.5282 29.9577 44.3604 23.7222C44.2576 23.5888 44.066 23.5641 43.9327 23.6669 43.8434 23.7358 43.7994 23.8482 43.8182 23.9594L43.8182 27.7888C43.8381 27.9561 43.7186 28.1078 43.5514 28.1277 43.5274 28.1306 43.5033 28.1306 43.4793 28.1277L25.7216 28.1277C25.0498 27.2539 24.011 26.7408 22.9088 26.7383 20.8594 26.5422 19.0391 28.0446 18.843 30.0941 18.6469 32.1435 20.1493 33.9638 22.1988 34.1599 22.4349 34.1825 22.6727 34.1825 22.9088 34.1599 24.0251 34.1445 25.0733 33.6203 25.7555 32.7366L43.4793 32.7366C43.6467 32.7179 43.7976 32.8384 43.8163 33.0058 43.8177 33.0177 43.8183 33.0296 43.8182 33.0416L43.8182 36.8032C43.8116 36.9715 43.9427 37.1133 44.1111 37.1199 44.2074 37.1237 44.2999 37.0816 44.3604 37.0066L50.5282 30.8727C50.7651 30.6137 50.7651 30.2167 50.5282 29.9577Z" fill="#5EA0EF" transform="matrix(1.01639 0 0 1 1587 1255)"/><path d="M39.1416 18.9438 32.9738 12.81C32.8709 12.6766 32.6794 12.6519 32.546 12.7547 32.4568 12.8236 32.4128 12.936 32.4316 13.0472L32.4316 16.9444C32.4503 17.1118 32.3298 17.2627 32.1624 17.2814 32.1505 17.2827 32.1385 17.2834 32.1266 17.2833L21.0111 17.2833C20.3253 16.4083 19.2761 15.8961 18.1644 15.8938 16.106 15.8522 14.4036 17.4871 14.362 19.5455 14.3204 21.6039 15.9553 23.3062 18.0137 23.3479 19.198 23.3718 20.3232 22.8315 21.0449 21.8922L32.1266 21.8922C32.295 21.8922 32.4316 22.0287 32.4316 22.1972L32.4316 25.7894C32.425 25.9577 32.5561 26.0995 32.7244 26.1061 32.8208 26.1098 32.9133 26.0678 32.9738 25.9927L39.1416 19.8588C39.3785 19.5999 39.3785 19.2028 39.1416 18.9438Z" fill="url(#fill44)" transform="matrix(1.01639 0 0 1 1587 1255)"/><path d="M39.1416 41.1749 32.9738 35.041C32.8709 34.9076 32.6794 34.8829 32.546 34.9858 32.4568 35.0546 32.4128 35.1671 32.4316 35.2782L32.4316 39.006C32.4325 39.1807 32.3004 39.3274 32.1266 39.3449L21.0111 39.3449C20.3253 38.4699 19.2761 37.9577 18.1644 37.9555 16.1056 37.9582 14.4389 39.6294 14.4416 41.6882 14.4444 43.747 16.1156 45.4137 18.1744 45.411 19.2854 45.4095 20.3379 44.9125 21.0449 44.0554L32.1266 44.0554C32.295 44.0554 32.4316 44.192 32.4316 44.3604L32.4316 48.1221C32.425 48.2904 32.5561 48.4322 32.7244 48.4388 32.8208 48.4425 32.9133 48.4005 32.9738 48.3254L39.1416 42.1916C39.4223 41.944 39.4492 41.5157 39.2016 41.2349 39.1829 41.2137 39.1628 41.1936 39.1416 41.1749Z" fill="url(#fill45)" transform="matrix(1.01639 0 0 1 1587 1255)"/></g></g></g><g><g><g><path d="M1.84355 18.0153 59.1563 18.0153 59.1563 18.0153 59.1563 51.6262C59.1563 52.6837 58.299 53.5409 57.2416 53.5409L3.75827 53.5409C2.7008 53.5409 1.84355 52.6837 1.84355 51.6262L1.84355 18.0153 1.84355 18.0153Z" fill="url(#fill46)" transform="matrix(1.01639 0 0 1 1595 970)"/><path d="M3.76843 7.45554 57.2314 7.45554C58.2889 7.45554 59.1461 8.31278 59.1461 9.37025L59.1461 18.0119 59.1461 18.0119 1.85372 18.0119 1.85372 18.0119 1.85372 9.37364C1.85185 8.31617 2.70758 7.45741 3.76504 7.45554 3.76617 7.45554 3.7673 7.45554 3.76843 7.45554Z" fill="#773ADC" transform="matrix(1.01639 0 0 1 1595 970)"/><path d="M20.4485 21.8074C20.9613 21.8074 21.3771 22.2232 21.3771 22.736L21.3771 47.7629C21.3771 48.2757 20.9613 48.6914 20.4485 48.6914L9.82436 48.6914C9.31154 48.6914 8.89581 48.2757 8.89581 47.7629L8.89581 22.736C8.89581 22.2232 9.31154 21.8074 9.82436 21.8074Z" fill="#FFFFFF" transform="matrix(1.01639 0 0 1 1595 970)"/><path d="M35.8103 21.8074C36.3231 21.8074 36.7388 22.2232 36.7388 22.736L36.7388 47.7629C36.7388 48.2757 36.3231 48.6914 35.8103 48.6914L25.1862 48.6914C24.6733 48.6914 24.2576 48.2757 24.2576 47.7629L24.2576 22.736C24.2576 22.2232 24.6733 21.8074 25.1862 21.8074Z" fill="#FFFFFF" fill-opacity="0.75" transform="matrix(1.01639 0 0 1 1595 970)"/><path d="M51.1755 21.8074C51.6883 21.8074 52.104 22.2232 52.104 22.736L52.104 47.7629C52.104 48.2757 51.6883 48.6914 51.1755 48.6914L40.5513 48.6914C40.0385 48.6914 39.6228 48.2757 39.6228 47.7629L39.6228 22.736C39.6228 22.2232 40.0385 21.8074 40.5513 21.8074Z" fill="#FFFFFF" fill-opacity="0.5" transform="matrix(1.01639 0 0 1 1595 970)"/></g></g></g><text font-family="Aptos,Aptos_MSFontService,sans-serif" font-weight="400" font-size="37" transform="matrix(1 0 0 1 1573.62 1063)">Queue</text><path d="M0.00403403-3.4375 20.629-3.41329 20.621 3.4617-0.00403403 3.4375ZM27.504-3.40522 48.129-3.38102 48.1209 3.49397 27.4959 3.46977ZM55.004-3.37295 75.629-3.34875 75.6209 3.52625 54.9959 3.50204ZM82.504-3.34068 103.129-3.31648 103.121 3.55852 82.4959 3.53431ZM110.004-3.30841 130.629-3.2842 130.621 3.59079 109.996 3.56659ZM137.504-3.27614 158.129-3.25193 158.121 3.62306 137.496 3.59886ZM165.004-3.24386 185.629-3.21966 185.621 3.65534 164.996 3.63113ZM192.504-3.21159 213.129-3.18739 213.121 3.68761 192.496 3.6634ZM220.004-3.17932 240.629-3.15512 240.621 3.71988 219.996 3.69568ZM247.504-3.14705 268.129-3.12284 268.121 3.75215 247.496 3.72795ZM275.004-3.11478 295.629-3.09057 295.621 3.78442 274.996 3.76022ZM302.504-3.0825 323.129-3.0583 323.121 3.8167 302.496 3.79249ZM330.004-3.05023 350.629-3.02603 350.621 3.84897 329.996 3.82476ZM357.504-3.01796 378.129-2.99375 378.121 3.88124 357.496 3.85704ZM385.004-2.98569 405.629-2.96148 405.621 3.91351 384.996 3.88931ZM412.504-2.95341 433.129-2.92921 433.121 3.94579 412.496 3.92158ZM440.004-2.92114 460.629-2.89694 460.621 3.97806 439.996 3.95385ZM467.504-2.88887 488.129-2.86467 488.121 4.01033 467.496 3.98613ZM495.004-2.8566 515.629-2.83239 515.621 4.0426 494.996 4.0184ZM522.504-2.82433 543.129-2.80012 543.121 4.07487 522.496 4.05067ZM550.004-2.79205 570.629-2.76785 570.621 4.10715 549.996 4.08294ZM577.504-2.75978 598.129-2.73558 598.121 4.13942 577.496 4.11521ZM605.004-2.72751 625.629-2.70331 625.621 4.17169 604.996 4.14749ZM632.504-2.69524 653.129-2.67103 653.121 4.20396 632.496 4.17976ZM660.004-2.66296 680.629-2.63876 680.621 4.23624 659.996 4.21203ZM687.504-2.63069 708.129-2.60649 708.121 4.26851 687.496 4.2443ZM715.004-2.59842 735.629-2.57422 735.621 4.30078 714.996 4.27658ZM742.504-2.56615 763.129-2.54194 763.121 4.33305 742.496 4.30885ZM770.004-2.53388 790.629-2.50967 790.621 4.36532 769.996 4.34112ZM797.504-2.5016 818.129-2.4774 818.121 4.3976 797.496 4.37339ZM825.004-2.46933 845.629-2.44513 845.621 4.42987 824.996 4.40566ZM852.504-2.43706 873.129-2.41286 873.121 4.46214 852.496 4.43794ZM880.004-2.40479 900.629-2.38058 900.621 4.49441 879.996 4.47021ZM907.504-2.37251 928.129-2.34831 928.121 4.52669 907.496 4.50248ZM935.004-2.34024 955.629-2.31604 955.621 4.55896 934.996 4.53475ZM962.504-2.30797 983.129-2.28377 983.121 4.59123 962.496 4.56703ZM990.004-2.2757 1010.63-2.25149 1010.62 4.6235 989.996 4.5993ZM1017.5-2.24343 1038.13-2.21922 1038.12 4.65577 1017.5 4.63157ZM1045-2.21115 1065.63-2.18695 1065.62 4.68805 1045 4.66384ZM1072.5-2.17888 1093.13-2.15468 1093.12 4.72032 1072.5 4.69611ZM1100-2.14661 1120.63-2.12241 1120.62 4.75259 1100 4.72839ZM1127.5-2.11434 1148.13-2.09013 1148.12 4.78486 1127.5 4.76066ZM1155-2.08207 1175.63-2.05786 1175.62 4.81713 1155 4.79293ZM1182.5-2.04979 1199.19-2.03021 1199.19 4.84479 1182.5 4.8252ZM1194.62-12.3481 1222.11 1.43419 1194.59 15.1519Z" fill="#0070C0" transform="matrix(1 0 0 -1 1686.5 889.934)"/><text font-family="Aptos,Aptos_MSFontService,sans-serif" font-weight="400" font-size="37" transform="matrix(1 0 0 1 2027.35 1053)">Links private endpoint with central </text><text font-family="Aptos,Aptos_MSFontService,sans-serif" font-weight="400" font-size="37" transform="matrix(1 0 0 1 2211.54 1097)">DNS zones</text></g></svg>