<svg width="1009" height="989" xmlns="http://www.w3.org/2000/svg" xmlns:xlink="http://www.w3.org/1999/xlink" xml:space="preserve" overflow="hidden"><defs><clipPath id="clip0"><rect x="787" y="338" width="1009" height="989"/></clipPath><linearGradient x1="1284.75" y1="1211.26" x2="1284.25" y2="433.742" gradientUnits="userSpaceOnUse" spreadMethod="reflect" id="fill1"><stop offset="0" stop-color="#E59EDD"/><stop offset="0.0208333" stop-color="#E59FDD"/><stop offset="0.0416667" stop-color="#E5A1DE"/><stop offset="0.0625" stop-color="#E6A3DE"/><stop offset="0.0833333" stop-color="#E6A5DF"/><stop offset="0.104167" stop-color="#E7A7E0"/><stop offset="0.125" stop-color="#E7A8E0"/><stop offset="0.145833" stop-color="#E8AAE1"/><stop offset="0.166667" stop-color="#E8ACE1"/><stop offset="0.1875" stop-color="#E9ADE2"/><stop offset="0.208333" stop-color="#E9AFE3"/><stop offset="0.229167" stop-color="#EAB0E3"/><stop offset="0.25" stop-color="#EAB2E4"/><stop offset="0.270833" stop-color="#EAB3E4"/><stop offset="0.291667" stop-color="#EBB5E5"/><stop offset="0.3125" stop-color="#EBB6E5"/><stop offset="0.333333" stop-color="#EBB8E6"/><stop offset="0.354167" stop-color="#ECB9E6"/><stop offset="0.375" stop-color="#ECBAE6"/><stop offset="0.395833" stop-color="#ECBBE7"/><stop offset="0.416667" stop-color="#EDBDE7"/><stop offset="0.4375" stop-color="#EDBEE8"/><stop offset="0.458333" stop-color="#EDBFE8"/><stop offset="0.479167" stop-color="#EEC0E8"/><stop offset="0.5" stop-color="#EEC1E9"/><stop offset="0.520833" stop-color="#EEC2E9"/><stop offset="0.541667" stop-color="#EEC3EA"/><stop offset="0.5625" stop-color="#EFC4EA"/><stop offset="0.583333" stop-color="#EFC5EA"/><stop offset="0.604167" stop-color="#EFC6EB"/><stop offset="0.625" stop-color="#EFC7EB"/><stop offset="0.645833" stop-color="#F0C8EB"/><stop offset="0.666667" stop-color="#F0C8EB"/><stop offset="0.6875" stop-color="#F0C9EC"/><stop offset="0.708333" stop-color="#F0CAEC"/><stop offset="0.729167" stop-color="#F0CAEC"/><stop offset="0.75" stop-color="#F1CBEC"/><stop offset="0.770833" stop-color="#F1CBEC"/><stop offset="0.791667" stop-color="#F1CCED"/><stop offset="0.8125" stop-color="#F1CCED"/><stop offset="0.833333" stop-color="#F1CDED"/><stop offset="0.854167" stop-color="#F1CDED"/><stop offset="0.875" stop-color="#F1CEED"/><stop offset="0.895833" stop-color="#F1CEED"/><stop offset="0.916667" stop-color="#F1CEED"/><stop offset="0.9375" stop-color="#F1CEED"/><stop offset="0.958333" stop-color="#F1CEED"/><stop offset="0.979167" stop-color="#F1CEED"/><stop offset="1" stop-color="#F2CFEE"/></linearGradient><linearGradient x1="1056.1" y1="1324.1" x2="1055.9" y2="1034.9" gradientUnits="userSpaceOnUse" spreadMethod="reflect" id="fill2"><stop offset="0" stop-color="#E59EDD"/><stop offset="0.0208333" stop-color="#E59FDD"/><stop offset="0.0416667" stop-color="#E5A1DE"/><stop offset="0.0625" stop-color="#E6A3DE"/><stop offset="0.0833333" stop-color="#E6A5DF"/><stop offset="0.104167" stop-color="#E7A7E0"/><stop offset="0.125" stop-color="#E7A8E0"/><stop offset="0.145833" stop-color="#E8AAE1"/><stop offset="0.166667" stop-color="#E8ACE1"/><stop offset="0.1875" stop-color="#E9ADE2"/><stop offset="0.208333" stop-color="#E9AFE3"/><stop offset="0.229167" stop-color="#EAB0E3"/><stop offset="0.25" stop-color="#EAB2E4"/><stop offset="0.270833" stop-color="#EAB3E4"/><stop offset="0.291667" stop-color="#EBB5E5"/><stop offset="0.3125" stop-color="#EBB6E5"/><stop offset="0.333333" stop-color="#EBB8E6"/><stop offset="0.354167" stop-color="#ECB9E6"/><stop offset="0.375" stop-color="#ECBAE6"/><stop offset="0.395833" stop-color="#ECBBE7"/><stop offset="0.416667" stop-color="#EDBDE7"/><stop offset="0.4375" stop-color="#EDBEE8"/><stop offset="0.458333" stop-color="#EDBFE8"/><stop offset="0.479167" stop-color="#EEC0E8"/><stop offset="0.5" stop-color="#EEC1E9"/><stop offset="0.520833" stop-color="#EEC2E9"/><stop offset="0.541667" stop-color="#EEC3EA"/><stop offset="0.5625" stop-color="#EFC4EA"/><stop offset="0.583333" stop-color="#EFC5EA"/><stop offset="0.604167" stop-color="#EFC6EB"/><stop offset="0.625" stop-color="#EFC7EB"/><stop offset="0.645833" stop-color="#F0C8EB"/><stop offset="0.666667" stop-color="#F0C8EB"/><stop offset="0.6875" stop-color="#F0C9EC"/><stop offset="0.708333" stop-color="#F0CAEC"/><stop offset="0.729167" stop-color="#F0CAEC"/><stop offset="0.75" stop-color="#F1CBEC"/><stop offset="0.770833" stop-color="#F1CBEC"/><stop offset="0.791667" stop-color="#F1CCED"/><stop offset="0.8125" stop-color="#F1CCED"/><stop offset="0.833333" stop-color="#F1CDED"/><stop offset="0.854167" stop-color="#F1CDED"/><stop offset="0.875" stop-color="#F1CEED"/><stop offset="0.895833" stop-color="#F1CEED"/><stop offset="0.916667" stop-color="#F1CEED"/><stop offset="0.9375" stop-color="#F1CEED"/><stop offset="0.958333" stop-color="#F1CEED"/><stop offset="0.979167" stop-color="#F1CEED"/><stop offset="1" stop-color="#F2CFEE"/></linearGradient><linearGradient x1="1652.1" y1="891.096" x2="1651.9" y2="600.904" gradientUnits="userSpaceOnUse" spreadMethod="reflect" id="fill3"><stop offset="0" stop-color="#E59EDD"/><stop offset="0.0208333" stop-color="#E59FDD"/><stop offset="0.0416667" stop-color="#E5A1DE"/><stop offset="0.0625" stop-color="#E6A3DE"/><stop offset="0.0833333" stop-color="#E6A5DF"/><stop offset="0.104167" stop-color="#E7A7E0"/><stop offset="0.125" stop-color="#E7A8E0"/><stop offset="0.145833" stop-color="#E8AAE1"/><stop offset="0.166667" stop-color="#E8ACE1"/><stop offset="0.1875" stop-color="#E9ADE2"/><stop offset="0.208333" stop-color="#E9AFE3"/><stop offset="0.229167" stop-color="#EAB0E3"/><stop offset="0.25" stop-color="#EAB2E4"/><stop offset="0.270833" stop-color="#EAB3E4"/><stop offset="0.291667" stop-color="#EBB5E5"/><stop offset="0.3125" stop-color="#EBB6E5"/><stop offset="0.333333" stop-color="#EBB8E6"/><stop offset="0.354167" stop-color="#ECB9E6"/><stop offset="0.375" stop-color="#ECBAE6"/><stop offset="0.395833" stop-color="#ECBBE7"/><stop offset="0.416667" stop-color="#EDBDE7"/><stop offset="0.4375" stop-color="#EDBEE8"/><stop offset="0.458333" stop-color="#EDBFE8"/><stop offset="0.479167" stop-color="#EEC0E8"/><stop offset="0.5" stop-color="#EEC1E9"/><stop offset="0.520833" stop-color="#EEC2E9"/><stop offset="0.541667" stop-color="#EEC3EA"/><stop offset="0.5625" stop-color="#EFC4EA"/><stop offset="0.583333" stop-color="#EFC5EA"/><stop offset="0.604167" stop-color="#EFC6EB"/><stop offset="0.625" stop-color="#EFC7EB"/><stop offset="0.645833" stop-color="#F0C8EB"/><stop offset="0.666667" stop-color="#F0C8EB"/><stop offset="0.6875" stop-color="#F0C9EC"/><stop offset="0.708333" stop-color="#F0CAEC"/><stop offset="0.729167" stop-color="#F0CAEC"/><stop offset="0.75" stop-color="#F1CBEC"/><stop offset="0.770833" stop-color="#F1CBEC"/><stop offset="0.791667" stop-color="#F1CCED"/><stop offset="0.8125" stop-color="#F1CCED"/><stop offset="0.833333" stop-color="#F1CDED"/><stop offset="0.854167" stop-color="#F1CDED"/><stop offset="0.875" stop-color="#F1CEED"/><stop offset="0.895833" stop-color="#F1CEED"/><stop offset="0.916667" stop-color="#F1CEED"/><stop offset="0.9375" stop-color="#F1CEED"/><stop offset="0.958333" stop-color="#F1CEED"/><stop offset="0.979167" stop-color="#F1CEED"/><stop offset="1" stop-color="#F2CFEE"/></linearGradient><linearGradient x1="931.097" y1="891.096" x2="930.903" y2="600.904" gradientUnits="userSpaceOnUse" spreadMethod="reflect" id="fill4"><stop offset="0" stop-color="#E59EDD"/><stop offset="0.0208333" stop-color="#E59FDD"/><stop offset="0.0416667" stop-color="#E5A1DE"/><stop offset="0.0625" stop-color="#E6A3DE"/><stop offset="0.0833333" stop-color="#E6A5DF"/><stop offset="0.104167" stop-color="#E7A7E0"/><stop offset="0.125" stop-color="#E7A8E0"/><stop offset="0.145833" stop-color="#E8AAE1"/><stop offset="0.166667" stop-color="#E8ACE1"/><stop offset="0.1875" stop-color="#E9ADE2"/><stop offset="0.208333" stop-color="#E9AFE3"/><stop offset="0.229167" stop-color="#EAB0E3"/><stop offset="0.25" stop-color="#EAB2E4"/><stop offset="0.270833" stop-color="#EAB3E4"/><stop offset="0.291667" stop-color="#EBB5E5"/><stop offset="0.3125" stop-color="#EBB6E5"/><stop offset="0.333333" stop-color="#EBB8E6"/><stop offset="0.354167" stop-color="#ECB9E6"/><stop offset="0.375" stop-color="#ECBAE6"/><stop offset="0.395833" stop-color="#ECBBE7"/><stop offset="0.416667" stop-color="#EDBDE7"/><stop offset="0.4375" stop-color="#EDBEE8"/><stop offset="0.458333" stop-color="#EDBFE8"/><stop offset="0.479167" stop-color="#EEC0E8"/><stop offset="0.5" stop-color="#EEC1E9"/><stop offset="0.520833" stop-color="#EEC2E9"/><stop offset="0.541667" stop-color="#EEC3EA"/><stop offset="0.5625" stop-color="#EFC4EA"/><stop offset="0.583333" stop-color="#EFC5EA"/><stop offset="0.604167" stop-color="#EFC6EB"/><stop offset="0.625" stop-color="#EFC7EB"/><stop offset="0.645833" stop-color="#F0C8EB"/><stop offset="0.666667" stop-color="#F0C8EB"/><stop offset="0.6875" stop-color="#F0C9EC"/><stop offset="0.708333" stop-color="#F0CAEC"/><stop offset="0.729167" stop-color="#F0CAEC"/><stop offset="0.75" stop-color="#F1CBEC"/><stop offset="0.770833" stop-color="#F1CBEC"/><stop offset="0.791667" stop-color="#F1CCED"/><stop offset="0.8125" stop-color="#F1CCED"/><stop offset="0.833333" stop-color="#F1CDED"/><stop offset="0.854167" stop-color="#F1CDED"/><stop offset="0.875" stop-color="#F1CEED"/><stop offset="0.895833" stop-color="#F1CEED"/><stop offset="0.916667" stop-color="#F1CEED"/><stop offset="0.9375" stop-color="#F1CEED"/><stop offset="0.958333" stop-color="#F1CEED"/><stop offset="0.979167" stop-color="#F1CEED"/><stop offset="1" stop-color="#F2CFEE"/></linearGradient><linearGradient x1="1285.1" y1="627.096" x2="1284.9" y2="337.904" gradientUnits="userSpaceOnUse" spreadMethod="reflect" id="fill5"><stop offset="0" stop-color="#E59EDD"/><stop offset="0.0208333" stop-color="#E59FDD"/><stop offset="0.0416667" stop-color="#E5A1DE"/><stop offset="0.0625" stop-color="#E6A3DE"/><stop offset="0.0833333" stop-color="#E6A5DF"/><stop offset="0.104167" stop-color="#E7A7E0"/><stop offset="0.125" stop-color="#E7A8E0"/><stop offset="0.145833" stop-color="#E8AAE1"/><stop offset="0.166667" stop-color="#E8ACE1"/><stop offset="0.1875" stop-color="#E9ADE2"/><stop offset="0.208333" stop-color="#E9AFE3"/><stop offset="0.229167" stop-color="#EAB0E3"/><stop offset="0.25" stop-color="#EAB2E4"/><stop offset="0.270833" stop-color="#EAB3E4"/><stop offset="0.291667" stop-color="#EBB5E5"/><stop offset="0.3125" stop-color="#EBB6E5"/><stop offset="0.333333" stop-color="#EBB8E6"/><stop offset="0.354167" stop-color="#ECB9E6"/><stop offset="0.375" stop-color="#ECBAE6"/><stop offset="0.395833" stop-color="#ECBBE7"/><stop offset="0.416667" stop-color="#EDBDE7"/><stop offset="0.4375" stop-color="#EDBEE8"/><stop offset="0.458333" stop-color="#EDBFE8"/><stop offset="0.479167" stop-color="#EEC0E8"/><stop offset="0.5" stop-color="#EEC1E9"/><stop offset="0.520833" stop-color="#EEC2E9"/><stop offset="0.541667" stop-color="#EEC3EA"/><stop offset="0.5625" stop-color="#EFC4EA"/><stop offset="0.583333" stop-color="#EFC5EA"/><stop offset="0.604167" stop-color="#EFC6EB"/><stop offset="0.625" stop-color="#EFC7EB"/><stop offset="0.645833" stop-color="#F0C8EB"/><stop offset="0.666667" stop-color="#F0C8EB"/><stop offset="0.6875" stop-color="#F0C9EC"/><stop offset="0.708333" stop-color="#F0CAEC"/><stop offset="0.729167" stop-color="#F0CAEC"/><stop offset="0.75" stop-color="#F1CBEC"/><stop offset="0.770833" stop-color="#F1CBEC"/><stop offset="0.791667" stop-color="#F1CCED"/><stop offset="0.8125" stop-color="#F1CCED"/><stop offset="0.833333" stop-color="#F1CDED"/><stop offset="0.854167" stop-color="#F1CDED"/><stop offset="0.875" stop-color="#F1CEED"/><stop offset="0.895833" stop-color="#F1CEED"/><stop offset="0.916667" stop-color="#F1CEED"/><stop offset="0.9375" stop-color="#F1CEED"/><stop offset="0.958333" stop-color="#F1CEED"/><stop offset="0.979167" stop-color="#F1CEED"/><stop offset="1" stop-color="#F2CFEE"/></linearGradient><linearGradient x1="1483" y1="1327" x2="1483" y2="900" gradientUnits="userSpaceOnUse" spreadMethod="reflect" id="fill6"><stop offset="0" stop-color="#773ADC"/><stop offset="0.204" stop-color="#7B3FDE"/><stop offset="0.459" stop-color="#864FE4"/><stop offset="0.741" stop-color="#9968ED"/><stop offset="0.899" stop-color="#A67AF4"/><stop offset="1" stop-color="#A67AF4"/></linearGradient><linearGradient x1="1056" y1="1085" x2="1056" y2="1117" gradientUnits="userSpaceOnUse" spreadMethod="reflect" id="fill7"><stop offset="0" stop-color="#50E6FF"/><stop offset="0.5" stop-color="#41D2EE"/><stop offset="1" stop-color="#32BEDD"/></linearGradient><linearGradient x1="1055.5" y1="1209" x2="1055.5" y2="1177" gradientUnits="userSpaceOnUse" spreadMethod="reflect" id="fill8"><stop offset="0" stop-color="#5E9624"/><stop offset="0.183" stop-color="#629C25"/><stop offset="0.435" stop-color="#6DAE2A"/><stop offset="0.726" stop-color="#7FCB30"/><stop offset="0.822" stop-color="#86D633"/><stop offset="1" stop-color="#86D633"/></linearGradient><linearGradient x1="935" y1="650" x2="935" y2="682" gradientUnits="userSpaceOnUse" spreadMethod="reflect" id="fill9"><stop offset="0" stop-color="#50E6FF"/><stop offset="0.5" stop-color="#41D2EE"/><stop offset="1" stop-color="#32BEDD"/></linearGradient><linearGradient x1="935" y1="774" x2="935" y2="742" gradientUnits="userSpaceOnUse" spreadMethod="reflect" id="fill10"><stop offset="0" stop-color="#5E9624"/><stop offset="0.183" stop-color="#629C25"/><stop offset="0.435" stop-color="#6DAE2A"/><stop offset="0.726" stop-color="#7FCB30"/><stop offset="0.822" stop-color="#86D633"/><stop offset="1" stop-color="#86D633"/></linearGradient><linearGradient x1="1292" y1="379" x2="1292" y2="411" gradientUnits="userSpaceOnUse" spreadMethod="reflect" id="fill11"><stop offset="0" stop-color="#50E6FF"/><stop offset="0.5" stop-color="#41D2EE"/><stop offset="1" stop-color="#32BEDD"/></linearGradient><linearGradient x1="1292" y1="504" x2="1292" y2="471" gradientUnits="userSpaceOnUse" spreadMethod="reflect" id="fill12"><stop offset="0" stop-color="#5E9624"/><stop offset="0.183" stop-color="#629C25"/><stop offset="0.435" stop-color="#6DAE2A"/><stop offset="0.726" stop-color="#7FCB30"/><stop offset="0.822" stop-color="#86D633"/><stop offset="1" stop-color="#86D633"/></linearGradient><linearGradient x1="1648.5" y1="650" x2="1648.5" y2="682" gradientUnits="userSpaceOnUse" spreadMethod="reflect" id="fill13"><stop offset="0" stop-color="#50E6FF"/><stop offset="0.5" stop-color="#41D2EE"/><stop offset="1" stop-color="#32BEDD"/></linearGradient><linearGradient x1="1648.5" y1="774" x2="1648.5" y2="742" gradientUnits="userSpaceOnUse" spreadMethod="reflect" id="fill14"><stop offset="0" stop-color="#5E9624"/><stop offset="0.183" stop-color="#629C25"/><stop offset="0.435" stop-color="#6DAE2A"/><stop offset="0.726" stop-color="#7FCB30"/><stop offset="0.822" stop-color="#86D633"/><stop offset="1" stop-color="#86D633"/></linearGradient></defs><g clip-path="url(#clip0)" transform="translate(-787 -338)"><path d="M1356.67 487.337 1284.47 434 1213.47 486.764 877 728.157 1007.94 1126.64 1035.35 1211 1143.27 1211 1143.27 1126.69 1095.86 1126.64 979.452 762.166 1284.47 540.674 1591.88 762.74 1571.54 826.343 1659.69 826.343 1659.69 829.554 1692 731.082 1692 728.157 1356.67 487.337Z" fill="url(#fill1)" fill-rule="evenodd"/><path d="M912 1179.5C912 1099.69 976.471 1035 1056 1035 1135.53 1035 1200 1099.69 1200 1179.5 1200 1259.31 1135.53 1324 1056 1324 976.471 1324 912 1259.31 912 1179.5Z" fill="url(#fill2)" fill-rule="evenodd"/><path d="M1508 746C1508 665.919 1572.47 601 1652 601 1731.53 601 1796 665.919 1796 746 1796 826.081 1731.53 891 1652 891 1572.47 891 1508 826.081 1508 746Z" fill="url(#fill3)" fill-rule="evenodd"/><path d="M787 746C787 665.919 851.471 601 931 601 1010.53 601 1075 665.919 1075 746 1075 826.081 1010.53 891 931 891 851.471 891 787 826.081 787 746Z" fill="url(#fill4)" fill-rule="evenodd"/><path d="M1141 482.5C1141 402.695 1205.47 338 1285 338 1364.53 338 1429 402.695 1429 482.5 1429 562.305 1364.53 627 1285 627 1205.47 627 1141 562.305 1141 482.5Z" fill="url(#fill5)" fill-rule="evenodd"/><path d="M1531.03 1263.99 1564.26 1250.02 1621.95 1276.69 1656.49 1242.01 1653.13 1235.26 1629.13 1189.47 1638.82 1154.79 1694 1131.9 1694 1082.45 1691.44 1080.33 1640.13 1062.59 1627.08 1028.77 1653.19 978.006 1655.69 972.283 1640.13 955.4 1621.61 935.941 1614.88 939.318 1565.57 964.671 1531.88 954.942 1510.45 900 1461.6 900 1459.03 902.518 1442.21 952.824 1407.67 965.93 1350.67 938.86 1316.12 973.542 1319.48 980.295 1345.19 1029.34 1331.28 1063.17 1272 1084.74 1272 1134.19 1279.18 1136.31 1331.4 1153.48 1345.31 1189.42 1318.34 1246.65 1352.89 1281.73 1359.61 1278.81 1408.87 1253.46 1442.56 1267.37 1464.05 1327 1513.75 1327M1487.19 1177.74C1449.03 1177.96 1417.92 1147.09 1417.7 1108.78 1417.48 1070.47 1448.24 1039.24 1486.39 1039.02 1524.55 1038.8 1555.66 1069.67 1555.88 1107.98L1555.88 1107.98C1555.88 1146.2 1525.26 1177.3 1487.19 1177.74Z" fill="url(#fill6)" fill-rule="evenodd"/><path d="M1044.09 1204.18C1050.64 1210.54 1061.33 1210.62 1067.97 1204.34 1074.61 1198.07 1074.69 1187.83 1068.14 1181.47 1068.01 1181.34 1067.89 1181.22 1067.76 1181.11 1066.03 1179.49 1063.95 1178.26 1061.68 1177.48L1061.68 1108 1050.88 1108 1050.88 1177.29C1042.01 1179.9 1037.02 1188.9 1039.74 1197.39 1040.57 1199.98 1042.06 1202.31 1044.08 1204.2Z" fill="#B3B3B3" fill-rule="evenodd"/><path d="M1039 1101C1039 1092.16 1046.61 1085 1056 1085 1065.39 1085 1073 1092.16 1073 1101 1073 1109.84 1065.39 1117 1056 1117 1046.61 1117 1039 1109.84 1039 1101Z" fill="url(#fill7)" fill-rule="evenodd"/><path d="M1026.58 1236.38 1020.14 1242.85C1019 1243.99 1017.19 1244.04 1016.1 1242.95L970.749 1197.73C968.574 1195.56 968.658 1191.95 970.937 1189.66L977.383 1183.2 977.383 1183.2 1026.68 1232.35C1027.76 1233.44 1027.72 1235.24 1026.58 1236.38Z" fill="#50E6FF" fill-rule="evenodd"/><path d="M1019.37 1144.33 1025.8 1150.74C1026.93 1151.88 1026.97 1153.68 1025.88 1154.78L977.17 1203.62 977.17 1203.62 970.736 1197.21C968.462 1194.94 968.388 1191.33 970.569 1189.14L1015.33 1144.26C1016.42 1143.16 1018.22 1143.19 1019.36 1144.33 1019.36 1144.33 1019.37 1144.33 1019.37 1144.33Z" fill="#1490DF" fill-rule="evenodd"/><path d="M1132.4 1183.2 1138.84 1189.67C1141.12 1191.95 1141.21 1195.57 1139.03 1197.73L1093.68 1242.96C1092.59 1244.05 1090.78 1244 1089.64 1242.86L1083.2 1236.39C1082.06 1235.25 1082.02 1233.44 1083.11 1232.36L1132.4 1183.2 1132.4 1183.2Z" fill="#50E6FF" fill-rule="evenodd"/><path d="M1139.05 1197.19 1132.62 1203.6 1132.62 1203.6 1083.91 1154.75C1082.82 1153.66 1082.86 1151.85 1083.99 1150.72L1090.42 1144.31C1091.56 1143.17 1093.36 1143.14 1094.45 1144.23L1139.21 1189.12C1141.39 1191.31 1141.32 1194.92 1139.05 1197.19Z" fill="#1490DF" fill-rule="evenodd"/><path d="M1039 1193C1039 1184.16 1046.39 1177 1055.5 1177 1064.61 1177 1072 1184.16 1072 1193 1072 1201.84 1064.61 1209 1055.5 1209 1046.39 1209 1039 1201.84 1039 1193Z" fill="url(#fill8)" fill-rule="evenodd"/><path d="M923.095 770.133C929.641 776.558 940.33 776.632 946.97 770.297 953.61 763.963 953.686 753.618 947.14 747.193 947.014 747.07 946.887 746.949 946.758 746.83 945.029 745.199 942.954 743.951 940.677 743.173L940.677 673 929.875 673 929.875 742.976C921.007 745.608 916.023 754.698 918.743 763.28 919.569 765.886 921.059 768.249 923.076 770.152Z" fill="#B3B3B3" fill-rule="evenodd"/><path d="M918 666C918 657.164 925.611 650 935 650 944.389 650 952 657.164 952 666 952 674.837 944.389 682 935 682 925.611 682 918 674.837 918 666Z" fill="url(#fill9)" fill-rule="evenodd"/><path d="M905.868 801.436 899.423 807.9C898.283 809.042 896.477 809.09 895.39 808.005L850.035 762.778C847.859 760.609 847.944 756.997 850.223 754.712L856.668 748.248 856.668 748.248 905.962 797.403C907.05 798.488 907.008 800.293 905.868 801.436Z" fill="#50E6FF" fill-rule="evenodd"/><path d="M898.653 709.386 905.081 715.796C906.218 716.93 906.255 718.735 905.165 719.829L856.456 768.675 856.456 768.675 850.021 762.259C847.748 759.992 847.673 756.381 849.854 754.194L894.614 709.308C895.704 708.214 897.51 708.246 898.646 709.379 898.649 709.382 898.651 709.384 898.653 709.386Z" fill="#1490DF" fill-rule="evenodd"/><path d="M1011.68 748.256 1018.13 754.72C1020.41 757.005 1020.49 760.617 1018.32 762.786L972.963 808.013C971.875 809.098 970.069 809.05 968.93 807.908L962.485 801.444C961.345 800.301 961.303 798.496 962.391 797.411L1011.68 748.256 1011.68 748.256Z" fill="#50E6FF" fill-rule="evenodd"/><path d="M1018.33 762.237 1011.9 768.647 1011.9 768.647 963.194 719.801C962.104 718.707 962.141 716.901 963.278 715.768L969.706 709.358C970.843 708.225 972.648 708.193 973.738 709.286L1018.5 754.172C1020.68 756.359 1020.6 759.97 1018.33 762.237Z" fill="#1490DF" fill-rule="evenodd"/><path d="M918 758C918 749.164 925.611 742 935 742 944.389 742 952 749.164 952 758 952 766.837 944.389 774 935 774 925.611 774 918 766.837 918 758Z" fill="url(#fill10)" fill-rule="evenodd"/><path d="M1280.09 499.181C1286.64 505.543 1297.33 505.616 1303.97 499.343 1310.61 493.071 1310.69 482.828 1304.14 476.465 1304.01 476.344 1303.89 476.224 1303.76 476.106 1302.03 474.491 1299.95 473.255 1297.68 472.485L1297.68 403 1286.88 403 1286.88 472.289C1278.01 474.896 1273.02 483.897 1275.74 492.395 1276.57 494.975 1278.06 497.315 1280.08 499.199Z" fill="#B3B3B3" fill-rule="evenodd"/><path d="M1275 395C1275 386.164 1282.61 379 1292 379 1301.39 379 1309 386.164 1309 395 1309 403.837 1301.39 411 1292 411 1282.61 411 1275 403.837 1275 395Z" fill="url(#fill11)" fill-rule="evenodd"/><path d="M1263.13 530.684 1256.68 537.148C1255.54 538.29 1253.74 538.338 1252.65 537.253L1207.29 492.026C1205.12 489.857 1205.2 486.245 1207.48 483.96L1213.93 477.496 1213.93 477.496 1263.22 526.651C1264.31 527.735 1264.27 529.541 1263.13 530.684Z" fill="#50E6FF" fill-rule="evenodd"/><path d="M1255.91 438.634 1262.34 445.044C1263.48 446.177 1263.52 447.983 1262.42 449.076L1213.72 497.923 1213.72 497.923 1207.28 491.506C1205.01 489.239 1204.93 485.628 1207.11 483.441L1251.87 438.555C1252.96 437.461 1254.77 437.494 1255.91 438.627 1255.91 438.629 1255.91 438.632 1255.91 438.634Z" fill="#1490DF" fill-rule="evenodd"/><path d="M1368.94 477.504 1375.39 483.967C1377.67 486.253 1377.75 489.865 1375.58 492.034L1330.22 537.261C1329.14 538.346 1327.33 538.298 1326.19 537.155L1319.74 530.692C1318.6 529.549 1318.56 527.743 1319.65 526.659L1368.94 477.504 1368.94 477.504Z" fill="#50E6FF" fill-rule="evenodd"/><path d="M1375.59 491.485 1369.16 497.895 1369.16 497.895 1320.45 449.048C1319.36 447.955 1319.4 446.149 1320.54 445.016L1326.97 438.606C1328.1 437.472 1329.91 437.44 1331 438.534L1375.76 483.42C1377.94 485.607 1377.86 489.218 1375.59 491.485Z" fill="#1490DF" fill-rule="evenodd"/><path d="M1275 487.5C1275 478.387 1282.61 471 1292 471 1301.39 471 1309 478.387 1309 487.5 1309 496.613 1301.39 504 1292 504 1282.61 504 1275 496.613 1275 487.5Z" fill="url(#fill12)" fill-rule="evenodd"/><path d="M1637.09 770.133C1643.64 776.558 1654.33 776.632 1660.97 770.297 1667.61 763.963 1667.69 753.618 1661.14 747.193 1661.01 747.07 1660.89 746.949 1660.76 746.83 1659.03 745.199 1656.95 743.951 1654.68 743.173L1654.68 673 1643.88 673 1643.88 742.976C1635.01 745.608 1630.02 754.698 1632.74 763.28 1633.57 765.886 1635.06 768.249 1637.08 770.152Z" fill="#B3B3B3" fill-rule="evenodd"/><path d="M1632 666C1632 657.164 1639.39 650 1648.5 650 1657.61 650 1665 657.164 1665 666 1665 674.837 1657.61 682 1648.5 682 1639.39 682 1632 674.837 1632 666Z" fill="url(#fill13)" fill-rule="evenodd"/><path d="M1619.53 801.436 1613.09 807.899C1611.95 809.042 1610.14 809.089 1609.05 808.005L1563.7 762.778C1561.52 760.608 1561.61 756.997 1563.89 754.711L1570.33 748.248 1570.33 748.248 1619.63 797.402C1620.71 798.487 1620.67 800.293 1619.53 801.436Z" fill="#50E6FF" fill-rule="evenodd"/><path d="M1612.32 709.385 1618.74 715.795C1619.88 716.929 1619.92 718.734 1618.83 719.828L1570.12 768.675 1570.12 768.675 1563.68 762.258C1561.41 759.991 1561.34 756.38 1563.52 754.193L1608.28 709.307C1609.37 708.213 1611.17 708.245 1612.31 709.379 1612.31 709.381 1612.31 709.383 1612.32 709.385Z" fill="#1490DF" fill-rule="evenodd"/><path d="M1725.35 748.255 1731.79 754.719C1734.07 757.005 1734.16 760.616 1731.98 762.786L1686.63 808.013C1685.54 809.097 1683.73 809.05 1682.59 807.907L1676.15 801.443C1675.01 800.3 1674.97 798.495 1676.05 797.41L1725.35 748.255 1725.35 748.255Z" fill="#50E6FF" fill-rule="evenodd"/><path d="M1731.99 762.236 1725.57 768.646 1725.57 768.646 1676.86 719.8C1675.77 718.706 1675.81 716.901 1676.94 715.768L1683.37 709.358C1684.51 708.224 1686.31 708.192 1687.4 709.285L1732.16 754.171C1734.34 756.359 1734.27 759.969 1731.99 762.236Z" fill="#1490DF" fill-rule="evenodd"/><path d="M1632 758C1632 749.164 1639.39 742 1648.5 742 1657.61 742 1665 749.164 1665 758 1665 766.837 1657.61 774 1648.5 774 1639.39 774 1632 766.837 1632 758Z" fill="url(#fill14)" fill-rule="evenodd"/></g></svg>