<svg width="557" height="605" xmlns="http://www.w3.org/2000/svg" xmlns:xlink="http://www.w3.org/1999/xlink" xml:space="preserve" overflow="hidden"><defs><clipPath id="clip0"><rect x="371" y="629" width="557" height="605"/></clipPath><linearGradient x1="647.5" y1="743" x2="647.5" y2="629" gradientUnits="userSpaceOnUse" spreadMethod="reflect" id="fill1"><stop offset="0" stop-color="#37C2B1"/><stop offset="0.001" stop-color="#37C2B1"/><stop offset="0.496" stop-color="#3ACEBC"/><stop offset="1" stop-color="#3CD4C2"/></linearGradient><linearGradient x1="836" y1="1207" x2="836" y2="1093" gradientUnits="userSpaceOnUse" spreadMethod="reflect" id="fill2"><stop offset="0" stop-color="#37C2B1"/><stop offset="0.001" stop-color="#37C2B1"/><stop offset="0.496" stop-color="#3ACEBC"/><stop offset="1" stop-color="#3CD4C2"/></linearGradient><linearGradient x1="449" y1="1207" x2="449" y2="1093" gradientUnits="userSpaceOnUse" spreadMethod="reflect" id="fill3"><stop offset="0" stop-color="#37C2B1"/><stop offset="0.001" stop-color="#37C2B1"/><stop offset="0.496" stop-color="#3ACEBC"/><stop offset="1" stop-color="#3CD4C2"/></linearGradient><clipPath id="clip4"><rect x="453" y="793" width="181" height="177"/></clipPath><clipPath id="clip5"><rect x="453" y="793" width="181" height="177"/></clipPath><clipPath id="clip6"><rect x="453" y="793" width="181" height="177"/></clipPath><linearGradient x1="88.8213" y1="5.36811" x2="88.8213" y2="39.3456" gradientUnits="userSpaceOnUse" spreadMethod="pad" id="fill7"><stop offset="0" stop-color="#50E6FF"/><stop offset="1" stop-color="#32BEDD"/></linearGradient><linearGradient x1="88.6356" y1="135.354" x2="88.6356" y2="101.376" gradientUnits="userSpaceOnUse" spreadMethod="pad" id="fill8"><stop offset="0" stop-color="#5E9624"/><stop offset="0.183" stop-color="#629C25"/><stop offset="0.435" stop-color="#6DAE2A"/><stop offset="0.726" stop-color="#7FCB30"/><stop offset="0.822" stop-color="#86D633"/><stop offset="1" stop-color="#86D633"/></linearGradient><clipPath id="clip9"><rect x="665" y="793" width="181" height="177"/></clipPath><clipPath id="clip10"><rect x="665" y="793" width="181" height="177"/></clipPath><clipPath id="clip11"><rect x="665" y="793" width="181" height="177"/></clipPath><linearGradient x1="88.8213" y1="5.36811" x2="88.8213" y2="39.3456" gradientUnits="userSpaceOnUse" spreadMethod="pad" id="fill12"><stop offset="0" stop-color="#50E6FF"/><stop offset="1" stop-color="#32BEDD"/></linearGradient><linearGradient x1="88.6356" y1="135.354" x2="88.6356" y2="101.376" gradientUnits="userSpaceOnUse" spreadMethod="pad" id="fill13"><stop offset="0" stop-color="#5E9624"/><stop offset="0.183" stop-color="#629C25"/><stop offset="0.435" stop-color="#6DAE2A"/><stop offset="0.726" stop-color="#7FCB30"/><stop offset="0.822" stop-color="#86D633"/><stop offset="1" stop-color="#86D633"/></linearGradient><clipPath id="clip14"><rect x="558" y="933" width="183" height="177"/></clipPath><clipPath id="clip15"><rect x="558" y="933" width="183" height="177"/></clipPath><clipPath id="clip16"><rect x="558" y="933" width="183" height="177"/></clipPath><linearGradient x1="88.8213" y1="5.36811" x2="88.8213" y2="39.3456" gradientUnits="userSpaceOnUse" spreadMethod="pad" id="fill17"><stop offset="0" stop-color="#50E6FF"/><stop offset="1" stop-color="#32BEDD"/></linearGradient><linearGradient x1="88.6356" y1="135.354" x2="88.6356" y2="101.376" gradientUnits="userSpaceOnUse" spreadMethod="pad" id="fill18"><stop offset="0" stop-color="#5E9624"/><stop offset="0.183" stop-color="#629C25"/><stop offset="0.435" stop-color="#6DAE2A"/><stop offset="0.726" stop-color="#7FCB30"/><stop offset="0.822" stop-color="#86D633"/><stop offset="1" stop-color="#86D633"/></linearGradient><clipPath id="clip19"><rect x="796" y="1111" width="80" height="80"/></clipPath><clipPath id="clip20"><rect x="796" y="1111" width="80" height="80"/></clipPath><clipPath id="clip21"><rect x="796" y="1111" width="80" height="80"/></clipPath><linearGradient x1="40.049" y1="73.9837" x2="40.049" y2="3.94234" gradientUnits="userSpaceOnUse" spreadMethod="pad" id="fill22"><stop offset="0" stop-color="#FEA11B"/><stop offset="0.284" stop-color="#FEA51A"/><stop offset="0.547" stop-color="#FEB018"/><stop offset="0.8" stop-color="#FFC314"/><stop offset="1" stop-color="#FFD70F"/></linearGradient><clipPath id="clip23"><rect x="410" y="1111" width="80" height="80"/></clipPath><clipPath id="clip24"><rect x="410" y="1111" width="80" height="80"/></clipPath><clipPath id="clip25"><rect x="410" y="1111" width="80" height="80"/></clipPath><linearGradient x1="40.049" y1="73.9837" x2="40.049" y2="3.94234" gradientUnits="userSpaceOnUse" spreadMethod="pad" id="fill26"><stop offset="0" stop-color="#FEA11B"/><stop offset="0.284" stop-color="#FEA51A"/><stop offset="0.547" stop-color="#FEB018"/><stop offset="0.8" stop-color="#FFC314"/><stop offset="1" stop-color="#FFD70F"/></linearGradient><linearGradient x1="40.0489" y1="73.9833" x2="40.0489" y2="3.94232" gradientUnits="userSpaceOnUse" spreadMethod="pad" id="fill27"><stop offset="0" stop-color="#FEA11B"/><stop offset="0.284" stop-color="#FEA51A"/><stop offset="0.547" stop-color="#FEB018"/><stop offset="0.8" stop-color="#FFC314"/><stop offset="1" stop-color="#FFD70F"/></linearGradient></defs><g clip-path="url(#clip0)" transform="translate(-371 -629)"><path d="M590 686C590 654.52 615.744 629 647.5 629 679.256 629 705 654.52 705 686 705 717.48 679.256 743 647.5 743 615.744 743 590 717.48 590 686Z" fill="url(#fill1)" fill-rule="evenodd"/><path d="M719.029 690C718.53 699.32 716.144 708.459 712 716.91 824.164 747.236 901.181 845.598 899.988 956.995 900.007 1002.13 887.423 1046.45 863.533 1085.38 872.341 1089.02 880.281 1094.33 886.87 1101 913.83 1057.42 928.029 1007.71 927.981 957.074 929.506 833.142 843.84 723.647 719.029 690Z" fill="#37C2B1" fill-rule="evenodd"/><path d="M779 1150C779 1118.52 804.52 1093 836 1093 867.48 1093 893 1118.52 893 1150 893 1181.48 867.48 1207 836 1207 804.52 1207 779 1181.48 779 1150Z" fill="url(#fill2)" fill-rule="evenodd"/><path d="M392 1150C392 1118.52 417.52 1093 449 1093 480.48 1093 506 1118.52 506 1150 506 1181.48 480.48 1207 449 1207 417.52 1207 392 1181.48 392 1150Z" fill="url(#fill3)" fill-rule="evenodd"/><path d="M769.186 1174.69C690.848 1217.57 593.993 1214.99 518.277 1168 515.959 1177.1 511.786 1185.67 506 1193.23 590.419 1244.29 697.527 1246.33 784.002 1198.51 777.492 1191.56 772.459 1183.47 769.186 1174.69Z" fill="#37C2B1" fill-rule="evenodd"/><path d="M433.196 1081.27C410.63 1043.23 398.786 1000.27 398.817 956.572 397.653 846.476 473.243 749 584 717.772 579.741 709.389 577.242 700.295 576.642 691 453.497 725.732 369.528 834.199 371.019 956.611 370.977 1004.31 383.637 1051.24 407.81 1093 415.339 1087.47 423.979 1083.48 433.196 1081.27Z" fill="#37C2B1" fill-rule="evenodd"/><g clip-path="url(#clip4)"><g clip-path="url(#clip5)"><g clip-path="url(#clip6)"><path d="M76.7556 130.455C83.3447 137.139 94.1043 137.215 100.788 130.626 107.471 124.037 107.548 113.277 100.959 106.594 100.833 106.466 100.704 106.34 100.574 106.216 98.8337 104.52 96.7452 103.222 94.4533 102.412L94.4533 29.4213 83.5804 29.4213 83.5804 102.207C74.654 104.945 69.6372 114.401 72.3749 123.327 73.2062 126.037 74.7059 128.495 76.736 130.475Z" fill="#B3B3B3" transform="matrix(1.02841 0 0 1 453 793)"/><path d="M105.815 21.5991C105.815 30.9845 98.2067 38.5929 88.8213 38.5929 79.4359 38.5929 71.8276 30.9845 71.8276 21.5991 71.8276 12.2137 79.4359 4.60533 88.8213 4.60533 98.2067 4.60533 105.815 12.2137 105.815 21.5991Z" fill="url(#fill7)" transform="matrix(1.02841 0 0 1 453 793)"/><path d="M26.094 103.593 35.3836 103.593C37.0262 103.593 38.3578 104.924 38.3578 106.567L38.3578 175.064C38.3578 178.349 35.6946 181.012 32.4093 181.012L23.1198 181.012 23.1198 181.012 23.1198 106.567C23.1198 104.924 24.4514 103.593 26.094 103.593Z" fill="#50E6FF" transform="matrix(-0.716178 0.698366 -0.718206 -0.696395 608.378 1010.97)"/><path d="M25.5864 60.402 34.8752 60.402C36.5177 60.402 37.8492 61.7336 37.8492 63.3761L37.8492 136.735 37.8492 136.735 28.5505 136.735C25.2655 136.735 22.6024 134.072 22.6024 130.787L22.6024 63.3761C22.6024 61.7336 23.9339 60.402 25.5764 60.402 25.5797 60.402 25.583 60.402 25.5864 60.402Z" fill="#1490DF" transform="matrix(0.718262 0.69645 -0.716235 0.698422 532.539 800.324)"/><path d="M140.107 103.593 149.396 103.593C152.681 103.593 155.345 106.256 155.345 109.541L155.345 178.038C155.345 179.681 154.013 181.012 152.37 181.012L143.081 181.012C141.438 181.012 140.107 179.681 140.107 178.038L140.107 103.593 140.107 103.593Z" fill="#50E6FF" transform="matrix(0.716178 0.698366 -0.718206 0.696395 599.228 731.077)"/><path d="M146.539 60.402 155.828 60.402 155.828 60.402 155.828 133.761C155.828 135.403 154.496 136.735 152.854 136.735L143.565 136.735C141.923 136.735 140.591 135.403 140.591 133.761L140.591 66.3501C140.591 63.0651 143.254 60.402 146.539 60.402Z" fill="#1490DF" transform="matrix(-0.718262 0.69645 -0.716235 -0.698422 780.388 855.812)"/><path d="M105.629 118.37C105.629 127.755 98.021 135.364 88.6356 135.364 79.2502 135.364 71.6418 127.755 71.6418 118.37 71.6418 108.984 79.2502 101.376 88.6356 101.376 98.021 101.376 105.629 108.984 105.629 118.37Z" fill="url(#fill8)" transform="matrix(1.02841 0 0 1 453 793)"/></g></g></g><g clip-path="url(#clip9)"><g clip-path="url(#clip10)"><g clip-path="url(#clip11)"><path d="M76.7556 130.455C83.3447 137.139 94.1043 137.215 100.788 130.626 107.471 124.037 107.548 113.277 100.959 106.594 100.833 106.466 100.704 106.34 100.574 106.216 98.8337 104.52 96.7452 103.222 94.4533 102.412L94.4533 29.4213 83.5804 29.4213 83.5804 102.207C74.654 104.945 69.6372 114.401 72.3749 123.327 73.2062 126.037 74.7059 128.495 76.736 130.475Z" fill="#B3B3B3" transform="matrix(1.02841 0 0 1 665 793)"/><path d="M105.815 21.5991C105.815 30.9845 98.2067 38.5929 88.8213 38.5929 79.4359 38.5929 71.8276 30.9845 71.8276 21.5991 71.8276 12.2137 79.4359 4.60533 88.8213 4.60533 98.2067 4.60533 105.815 12.2137 105.815 21.5991Z" fill="url(#fill12)" transform="matrix(1.02841 0 0 1 665 793)"/><path d="M26.094 103.593 35.3836 103.593C37.0262 103.593 38.3578 104.924 38.3578 106.567L38.3578 175.064C38.3578 178.349 35.6946 181.012 32.4093 181.012L23.1198 181.012 23.1198 181.012 23.1198 106.567C23.1198 104.924 24.4514 103.593 26.094 103.593Z" fill="#50E6FF" transform="matrix(-0.716178 0.698366 -0.718206 -0.696395 820.378 1010.97)"/><path d="M25.5864 60.402 34.8752 60.402C36.5177 60.402 37.8492 61.7336 37.8492 63.3761L37.8492 136.735 37.8492 136.735 28.5505 136.735C25.2655 136.735 22.6024 134.072 22.6024 130.787L22.6024 63.3761C22.6024 61.7336 23.9339 60.402 25.5764 60.402 25.5797 60.402 25.583 60.402 25.5864 60.402Z" fill="#1490DF" transform="matrix(0.718262 0.69645 -0.716235 0.698422 744.54 800.324)"/><path d="M140.107 103.593 149.396 103.593C152.681 103.593 155.345 106.256 155.345 109.541L155.345 178.038C155.345 179.681 154.013 181.012 152.37 181.012L143.081 181.012C141.438 181.012 140.107 179.681 140.107 178.038L140.107 103.593 140.107 103.593Z" fill="#50E6FF" transform="matrix(0.716178 0.698366 -0.718206 0.696395 811.228 731.077)"/><path d="M146.539 60.402 155.828 60.402 155.828 60.402 155.828 133.761C155.828 135.403 154.496 136.735 152.854 136.735L143.565 136.735C141.923 136.735 140.591 135.403 140.591 133.761L140.591 66.3501C140.591 63.0651 143.254 60.402 146.539 60.402Z" fill="#1490DF" transform="matrix(-0.718262 0.69645 -0.716235 -0.698422 992.389 855.812)"/><path d="M105.629 118.37C105.629 127.755 98.021 135.364 88.6356 135.364 79.2502 135.364 71.6418 127.755 71.6418 118.37 71.6418 108.984 79.2502 101.376 88.6356 101.376 98.021 101.376 105.629 108.984 105.629 118.37Z" fill="url(#fill13)" transform="matrix(1.02841 0 0 1 665 793)"/></g></g></g><g clip-path="url(#clip14)"><g clip-path="url(#clip15)"><g clip-path="url(#clip16)"><path d="M76.7556 130.455C83.3447 137.139 94.1043 137.215 100.788 130.626 107.471 124.037 107.548 113.277 100.959 106.594 100.833 106.466 100.704 106.34 100.574 106.216 98.8337 104.52 96.7452 103.222 94.4533 102.412L94.4533 29.4213 83.5804 29.4213 83.5804 102.207C74.654 104.945 69.6372 114.401 72.3749 123.327 73.2062 126.037 74.7059 128.495 76.736 130.475Z" fill="#B3B3B3" transform="matrix(1.02841 0 0 1 559 934)"/><path d="M105.815 21.5991C105.815 30.9845 98.2067 38.5929 88.8213 38.5929 79.4359 38.5929 71.8276 30.9845 71.8276 21.5991 71.8276 12.2137 79.4359 4.60533 88.8213 4.60533 98.2067 4.60533 105.815 12.2137 105.815 21.5991Z" fill="url(#fill17)" transform="matrix(1.02841 0 0 1 559 934)"/><path d="M26.094 103.593 35.3836 103.593C37.0262 103.593 38.3578 104.925 38.3578 106.567L38.3578 175.064C38.3578 178.349 35.6946 181.012 32.4093 181.012L23.1198 181.012 23.1198 181.012 23.1198 106.567C23.1198 104.925 24.4514 103.593 26.094 103.593Z" fill="#50E6FF" transform="matrix(-0.716179 0.698366 -0.718206 -0.696394 714.379 1151.97)"/><path d="M25.5864 60.4021 34.8752 60.4021C36.5177 60.4021 37.8492 61.7336 37.8492 63.3761L37.8492 136.735 37.8492 136.735 28.5505 136.735C25.2655 136.735 22.6025 134.072 22.6025 130.787L22.6025 63.3761C22.6025 61.7336 23.934 60.4021 25.5765 60.4021 25.5798 60.4021 25.5831 60.4021 25.5864 60.4021Z" fill="#1490DF" transform="matrix(0.718263 0.696449 -0.716235 0.698421 638.539 941.324)"/><path d="M140.107 103.593 149.396 103.593C152.682 103.593 155.345 106.256 155.345 109.541L155.345 178.038C155.345 179.681 154.013 181.012 152.371 181.012L143.081 181.012C141.438 181.012 140.107 179.681 140.107 178.038L140.107 103.593 140.107 103.593Z" fill="#50E6FF" transform="matrix(0.716179 0.698366 -0.718206 0.696394 705.228 872.077)"/><path d="M146.539 60.4021 155.828 60.4021 155.828 60.4021 155.828 133.761C155.828 135.403 154.497 136.735 152.854 136.735L143.565 136.735C141.923 136.735 140.591 135.403 140.591 133.761L140.591 66.3501C140.591 63.0651 143.254 60.4021 146.539 60.4021Z" fill="#1490DF" transform="matrix(-0.718263 0.696449 -0.716235 -0.698421 886.389 996.812)"/><path d="M105.629 118.37C105.629 127.755 98.021 135.364 88.6356 135.364 79.2502 135.364 71.6418 127.755 71.6418 118.37 71.6418 108.984 79.2502 101.376 88.6356 101.376 98.021 101.376 105.629 108.984 105.629 118.37Z" fill="url(#fill18)" transform="matrix(1.02841 0 0 1 559 934)"/></g></g></g><g clip-path="url(#clip19)"><g clip-path="url(#clip20)"><g clip-path="url(#clip21)"><path d="M10.4671 33.0132 14.1327 33.0132C14.784 33.0132 15.3119 33.5411 15.3119 34.1924L15.3119 61.3449C15.3119 62.6449 14.258 63.6989 12.9579 63.6989L9.2746 63.6989 9.2746 63.6989 9.2746 34.188C9.2746 33.5367 9.80255 33.0088 10.4538 33.0088Z" fill="#50E6FF" transform="matrix(-0.710575 0.703683 -0.712587 -0.701696 851.587 1184.32)"/><path d="M10.2679 15.8988 13.9467 15.8988C14.598 15.8988 15.1259 16.4267 15.1259 17.0779L15.1259 46.1506 15.1259 46.1506 11.4427 46.1506C10.1427 46.1506 9.08879 45.0967 9.08879 43.7967L9.08879 17.0691C9.09364 16.4213 9.62015 15.8987 10.2679 15.8988Z" fill="#1490DF" transform="matrix(0.712613 0.701721 -0.710601 0.703708 821.596 1111.5)"/><path d="M64.1714 33.0132 67.8503 33.0132C69.1504 33.0132 70.2043 34.0671 70.2043 35.3672L70.2043 62.5197C70.2043 63.1709 69.6764 63.6989 69.0251 63.6989L65.3639 63.6989C64.7126 63.6989 64.1847 63.1709 64.1847 62.5197L64.1847 33.0132 64.1847 33.0132Z" fill="#50E6FF" transform="matrix(0.710575 0.703683 -0.712587 0.701696 850.324 1077.84)"/><path d="M66.7218 15.8988 70.4006 15.8988 70.4006 15.8988 70.4006 44.9714C70.4006 45.6226 69.8726 46.1506 69.2214 46.1506L65.5426 46.1506C64.8914 46.1506 64.3635 45.6226 64.3635 44.9714L64.3635 18.2438C64.3635 16.9438 65.4173 15.8899 66.7174 15.8899Z" fill="#1490DF" transform="matrix(-0.712613 0.701721 -0.710601 -0.703708 933.875 1116.36)"/><path d="M37.1256 43.45 21.3739 43.45C20.9141 43.4676 20.5244 43.1149 20.4961 42.6556 20.4963 42.5412 20.5233 42.4285 20.5751 42.3265L39.4605 4.95945C39.6244 4.66405 39.9392 4.48463 40.2769 4.49423L58.9077 4.49423C59.3675 4.47667 59.7572 4.82936 59.7855 5.28862 59.7839 5.44782 59.7299 5.60207 59.6319 5.72751L37.4548 34.9619 59.0833 34.9619C59.5431 34.9444 59.9328 35.2971 59.9611 35.7563 59.9577 35.9577 59.8758 36.1499 59.7328 36.2918L23.7922 73.6807C23.4542 73.8826 21.0535 75.8752 22.2297 72.8512L22.2297 72.8512Z" fill="url(#fill22)" transform="matrix(1.01265 0 0 1 796 1111)"/></g></g></g><g clip-path="url(#clip23)"><g clip-path="url(#clip24)"><g clip-path="url(#clip25)"><path d="M10.4671 33.0132 14.1327 33.0132C14.784 33.0132 15.3119 33.5411 15.3119 34.1924L15.3119 61.3449C15.3119 62.6449 14.258 63.6989 12.9579 63.6989L9.2746 63.6989 9.2746 63.6989 9.2746 34.188C9.2746 33.5367 9.80255 33.0088 10.4538 33.0088Z" fill="#50E6FF" transform="matrix(-0.710575 0.703683 -0.712587 -0.701696 465.587 1184.32)"/><path d="M10.2679 15.8988 13.9467 15.8988C14.598 15.8988 15.1259 16.4267 15.1259 17.0779L15.1259 46.1506 15.1259 46.1506 11.4427 46.1506C10.1427 46.1506 9.08879 45.0967 9.08879 43.7967L9.08879 17.0691C9.09364 16.4213 9.62015 15.8987 10.2679 15.8988Z" fill="#1490DF" transform="matrix(0.712613 0.701721 -0.710601 0.703708 435.596 1111.5)"/><path d="M64.1714 33.0132 67.8503 33.0132C69.1504 33.0132 70.2043 34.0671 70.2043 35.3672L70.2043 62.5197C70.2043 63.1709 69.6764 63.6989 69.0251 63.6989L65.3639 63.6989C64.7126 63.6989 64.1847 63.1709 64.1847 62.5197L64.1847 33.0132 64.1847 33.0132Z" fill="#50E6FF" transform="matrix(0.710575 0.703683 -0.712587 0.701696 464.324 1077.84)"/><path d="M66.7218 15.8988 70.4006 15.8988 70.4006 15.8988 70.4006 44.9714C70.4006 45.6226 69.8726 46.1506 69.2214 46.1506L65.5426 46.1506C64.8914 46.1506 64.3635 45.6226 64.3635 44.9714L64.3635 18.2438C64.3635 16.9438 65.4173 15.8899 66.7174 15.8899Z" fill="#1490DF" transform="matrix(-0.712613 0.701721 -0.710601 -0.703708 547.875 1116.36)"/><path d="M37.1256 43.45 21.3739 43.45C20.9141 43.4676 20.5244 43.1149 20.4961 42.6556 20.4963 42.5412 20.5233 42.4285 20.5751 42.3265L39.4605 4.95945C39.6244 4.66405 39.9392 4.48463 40.2769 4.49423L58.9077 4.49423C59.3675 4.47667 59.7572 4.82936 59.7855 5.28862 59.7839 5.44782 59.7299 5.60207 59.6319 5.72751L37.4548 34.9619 59.0833 34.9619C59.5431 34.9444 59.9328 35.2971 59.9611 35.7563 59.9577 35.9577 59.8758 36.1499 59.7328 36.2918L23.7922 73.6807C23.4542 73.8826 21.0535 75.8752 22.2297 72.8512L22.2297 72.8512Z" fill="url(#fill26)" transform="matrix(1.01265 0 0 1 410 1111)"/></g></g></g><g><g><g><path d="M633.316 706.517 630.744 709.096C630.287 709.555 629.545 709.556 629.087 709.099L609.98 690.046C609.066 689.133 609.063 687.652 609.976 686.737L612.56 684.146 612.56 684.146 633.326 704.853C633.785 705.31 633.786 706.052 633.329 706.51Z" fill="#50E6FF"/><path d="M630.345 667.894 632.934 670.475C633.392 670.932 633.393 671.674 632.936 672.132L612.535 692.591 612.535 692.591 609.943 690.006C609.028 689.094 609.026 687.613 609.939 686.698L628.694 667.89C629.152 667.437 629.889 667.439 630.345 667.894Z" fill="#1490DF"/><path d="M684.443 684.163 687.025 686.752C687.937 687.667 687.935 689.148 687.02 690.06L667.913 709.113C667.455 709.57 666.713 709.569 666.256 709.111L663.687 706.535C663.23 706.076 663.231 705.334 663.689 704.877L684.453 684.173 684.453 684.173Z" fill="#50E6FF"/><path d="M687.043 689.995 684.454 692.577 684.454 692.577 664.053 672.118C663.596 671.66 663.597 670.918 664.056 670.461L666.644 667.879C667.103 667.422 667.845 667.423 668.302 667.882L687.057 686.69C687.969 687.605 687.967 689.086 687.052 689.998Z" fill="#1490DF"/><path d="M37.1255 43.4498 21.3738 43.4498C20.914 43.4674 20.5243 43.1147 20.496 42.6555 20.4962 42.541 20.5232 42.4283 20.575 42.3263L39.4604 4.95943C39.6242 4.66403 39.939 4.48461 40.2767 4.49421L58.9074 4.49421C59.3672 4.47665 59.7569 4.82934 59.7852 5.28859 59.7837 5.4478 59.7297 5.60205 59.6316 5.72748L37.4546 34.9618 59.083 34.9618C59.5428 34.9442 59.9325 35.2969 59.9608 35.7561 59.9574 35.9576 59.8755 36.1497 59.7326 36.2916L23.7921 73.6804C23.4541 73.8823 21.0534 75.8748 22.2296 72.8509L22.2296 72.8509Z" fill="url(#fill27)" transform="matrix(1 0 0 1 609 649)"/></g></g></g></g></svg>